%FSTAX23Y23*%
%MOIN*%
%SFA1B1*%

%IPPOS*%
%AMD62*
4,1,8,0.059000,0.157500,-0.059000,0.157500,-0.118100,0.098400,-0.118100,-0.098400,-0.059000,-0.157500,0.059000,-0.157500,0.118100,-0.098400,0.118100,0.098400,0.059000,0.157500,0.0*
1,1,0.118120,0.059000,0.098400*
1,1,0.118120,-0.059000,0.098400*
1,1,0.118120,-0.059000,-0.098400*
1,1,0.118120,0.059000,-0.098400*
%
%ADD57C,0.011550*%
G04~CAMADD=62~8~0.0~0.0~2362.2~3149.6~590.6~0.0~15~0.0~0.0~0.0~0.0~0~0.0~0.0~0.0~0.0~0~0.0~0.0~0.0~0.0~2362.2~3149.6*
%ADD62D62*%
%ADD63C,0.314960*%
%ADD64R,0.196850X0.098430*%
%ADD65C,0.017720*%
%ADD66C,0.019680*%
%ADD67C,0.078740*%
%LNmashiro_fs-1*%
%LPD*%
G36*
X03149Y01811D02*
X00157D01*
X00551*
X00531Y0181*
X00493Y01806*
X00455Y01799*
X00418Y01788*
X00382Y01773*
X00348Y01755*
X00316Y01733*
X00286Y01709*
X00259Y01681*
X00234Y01651*
X00213Y01619*
X00195Y01585*
X0018Y01549*
X00169Y01512*
X00161Y01475*
X00157Y01436*
X00157Y01417*
Y01417*
X0*
Y01811*
Y01968*
X03149*
Y01811*
G37*
G36*
Y01543D02*
X03153D01*
Y01389*
Y01248*
Y01094*
X02938*
X02925Y01097*
X02913Y01102*
X02902Y01109*
X02897Y01114*
X02892Y01119*
X02883Y01133*
X02877Y01147*
X02874Y01163*
Y01171*
Y01248*
Y01389*
X02873Y01406*
X02871Y01439*
X02865Y01471*
X02858Y01504*
X02847Y01535*
X02835Y01566*
X0282Y01595*
X02803Y01623*
X02783Y0165*
X02762Y01675*
X02738Y01699*
X02713Y0172*
X02686Y0174*
X02658Y01757*
X02629Y01772*
X02598Y01784*
X02567Y01795*
X02534Y01802*
X02502Y01808*
X02469Y0181*
X02452Y01811*
X03149*
Y01543*
G37*
G36*
X03153Y0072D02*
Y00578D01*
Y00425*
X03149*
Y00157*
Y0*
X0*
Y00157*
Y00551*
X00157*
X00157Y00531*
X00161Y00493*
X00169Y00455*
X0018Y00418*
X00195Y00382*
X00213Y00348*
X00234Y00316*
X00259Y00286*
X00286Y00259*
X00316Y00234*
X00348Y00213*
X00382Y00195*
X00418Y0018*
X00455Y00169*
X00493Y00161*
X00531Y00157*
X00551Y00157*
X00157*
X03149*
X02452*
X02469Y00157*
X02502Y0016*
X02534Y00165*
X02567Y00173*
X02598Y00183*
X02629Y00196*
X02658Y00211*
X02686Y00228*
X02713Y00247*
X02738Y00269*
X02762Y00292*
X02783Y00317*
X02803Y00344*
X0282Y00372*
X02835Y00402*
X02847Y00432*
X02858Y00464*
X02865Y00496*
X02871Y00529*
X02873Y00562*
X02874Y00578*
Y0072*
Y00797*
Y00805*
X02877Y0082*
X02883Y00835*
X02892Y00848*
X02897Y00854*
X02902Y00859*
X02913Y00866*
X02925Y00871*
X02938Y00874*
X03153*
Y0072*
G37*
G54D57*
X01397Y00728D02*
X01496Y00688D01*
X01476Y00728D02*
X01574Y00688D01*
X0187Y00728D02*
X01968Y00688D01*
X01712Y00728D02*
X01811Y00688D01*
X01791Y00728D02*
X01889Y00688D01*
X01633Y00728D02*
X01732Y00688D01*
X01555Y00728D02*
X01653Y00688D01*
G54D62*
X00137Y00757D03*
Y0121D03*
G54D63*
X00157Y01811D03*
X01811D03*
X02992D03*
X00157Y00157D03*
X01811D03*
X02992D03*
G54D64*
X03051Y01148D03*
Y01488D03*
Y00479D03*
Y00819D03*
G54D65*
X01181Y00423D03*
X0122Y00531D03*
X012Y00688D03*
X01556Y01353D03*
X01377Y01269D03*
X01338D03*
X01486D03*
X01437D03*
X01397Y0125D03*
X01358D03*
X01318D03*
X01574Y01397D03*
X01535D03*
X01496D03*
X01456D03*
X01417D03*
X01377D03*
X01338D03*
X01299D03*
X02193Y01367D03*
X02165Y01387D03*
X02125D03*
X02086D03*
X02047D03*
X02007D03*
X01968D03*
X01929D03*
X01889D03*
X0185D03*
X01811D03*
X01772Y01385D03*
X02855Y00465D03*
X02863Y00491D03*
X02869Y00814D03*
X02867Y00785D03*
Y00758D03*
X02868Y0073D03*
X02845Y00721D03*
X0282Y0072D03*
X02788Y00719D03*
X02753Y0072D03*
X02722Y00721D03*
X0269Y00723D03*
X02664Y00746D03*
X02638Y00768D03*
X0261Y0079D03*
X02583Y008D03*
X02544Y00798D03*
X02498Y00797D03*
X02459Y00798D03*
X02425Y00816D03*
X02372Y00878D03*
X02343Y00899D03*
X02318Y00919D03*
X02313Y00955D03*
X02308Y00993D03*
X02286Y01021D03*
X02263Y01041D03*
X02236Y01071D03*
X02212Y01135D03*
X02214Y01171D03*
X01811Y0125D03*
X01958Y00639D03*
X01564D03*
X01663Y01437D03*
X02431Y0059D03*
X02372Y012D03*
X01476Y00728D03*
X01496Y00688D03*
X0259Y0118D03*
X0259Y01122D03*
X02605Y01095D03*
X02588Y01151D03*
X02869Y01423D03*
X02864Y0145D03*
X02859Y01478D03*
X02874Y01397D03*
X02076Y01102D03*
X01397Y00728D03*
X02253Y012D03*
X02864Y0058D03*
X02244Y01338D03*
X02234Y01023D03*
X02194Y006D03*
X01751Y01269D03*
X01456Y00935D03*
X02096Y01023D03*
X01486Y00639D03*
X02618Y01368D03*
X01131Y00344D03*
X02598Y01338D03*
X02559D03*
X01413Y00645D03*
X02431Y00492D03*
X0124Y01348D03*
X01397Y00915D03*
X01879Y00777D03*
X0184D03*
X01879Y00639D03*
X0121Y01555D03*
X01633Y00728D03*
X02076Y0125D03*
X02047D03*
X02076Y0122D03*
X02007Y0125D03*
Y0121D03*
X01929Y00826D03*
X01968Y0125D03*
X02037Y01043D03*
X02687Y0058D03*
X02746D03*
X02716D03*
X02671Y00548D03*
X02661Y00574D03*
X02582Y00578D03*
X02381Y00767D03*
X0246Y00659D03*
X02429Y00628D03*
X00935Y00994D03*
X01978Y00885D03*
X01945Y00882D03*
X02017Y00875D03*
X01555Y00728D03*
X01791D03*
X01889Y00688D03*
X0187Y00728D03*
X01811Y00688D03*
X0123Y00767D03*
X01968Y00688D03*
X01929Y0125D03*
X02647Y01387D03*
X02805D03*
X0249Y00659D03*
X01525Y00639D03*
X02293Y012D03*
X02332D03*
X0267Y0052D03*
X00984Y00679D03*
X02549D03*
X02529Y012D03*
X0245D03*
X0249D03*
X02283Y01338D03*
X02568Y012D03*
X01919Y00639D03*
X02844Y01387D03*
X0244Y01338D03*
X02519D03*
X02214Y012D03*
X02401Y01338D03*
X02362D03*
X0248D03*
X02076Y00639D03*
X01998D03*
X02381Y00629D03*
X02102Y00622D03*
X02714Y01101D03*
X0269Y01076D03*
X02037Y00639D03*
X02624Y01077D03*
X02283Y0061D03*
X02253D03*
X02224D03*
X0236Y0059D03*
X02667Y0061D03*
X02765Y01387D03*
X02687D03*
X02726D03*
X01446Y00777D03*
X01318Y01358D03*
X01525Y00777D03*
X02017Y00984D03*
Y00944D03*
Y00905D03*
X01289Y00462D03*
X01279Y01555D03*
X01801Y00777D03*
X01407D03*
X0184Y00639D03*
X01919Y00777D03*
X01486D03*
X01938Y00797D03*
X01929Y00856D03*
X01683Y00777D03*
X01604D03*
X01722D03*
X01643D03*
X01761D03*
X02657Y01082D03*
X01437Y01102D03*
X02725Y01225D03*
X02725Y01195D03*
X02726Y01133D03*
X0275Y0125D03*
X02725Y0125D03*
X02725Y01163D03*
X01151Y00659D03*
X02834Y0058D03*
X02869Y00548D03*
X02868Y00516D03*
X02805Y0058D03*
X02775D03*
X02529Y00648D03*
X01564Y00777D03*
X01604Y00639D03*
X01348Y00659D03*
X0125Y00915D03*
X01368Y00777D03*
X01328D03*
X02322Y01338D03*
X02411Y012D03*
X02777Y01249D03*
X02814Y0125D03*
X02871Y01151D03*
X02844Y0125D03*
X02868Y01235D03*
X02869Y01204D03*
X02868Y01177D03*
X02312Y00609D03*
X02492Y00604D03*
X02385Y0059D03*
X02513Y00624D03*
X02342Y0061D03*
X02135Y006D03*
X01643Y00639D03*
X01761D03*
X01683D03*
X01722D03*
X01801D03*
X01633Y01437D03*
X02017Y01013D03*
X02076Y01181D03*
X02066Y01072D03*
X02076Y01141D03*
X01771Y0125D03*
X0185D03*
X01889D03*
X0183Y0121D03*
X01712Y00728D03*
X01653Y00688D03*
X01574D03*
X01732D03*
X0123Y00344D03*
X01692Y0121D03*
X01732Y01387D03*
X01919Y0121D03*
X02213Y01338D03*
G54D66*
X03051Y01574D03*
Y00393D03*
X02933Y01102D03*
Y00866D03*
X02637Y01692D03*
X02696Y01574D03*
X02637Y01456D03*
Y00984D03*
X02696Y00393D03*
X02519Y01692D03*
Y01456D03*
X02578Y00393D03*
X0246Y01574D03*
X02401Y01456D03*
X0246Y00629D03*
X02401Y00511D03*
X02342Y01574D03*
X02283Y01456D03*
X02342Y01102D03*
Y00393D03*
X02165Y01456D03*
X02106Y01574D03*
X02047Y0122D03*
X01929Y01456D03*
Y00511D03*
X0187Y01574D03*
X01811Y00984D03*
Y00511D03*
X01692Y01456D03*
Y00984D03*
X01751Y00866D03*
X01574Y0122D03*
Y00984D03*
X01456D03*
X01515Y00866D03*
X01456Y00039D03*
X01338Y0122D03*
Y00984D03*
X01397Y00393D03*
X01279Y00866D03*
Y00393D03*
X01161Y01574D03*
Y01102D03*
X01043Y01574D03*
X00984Y0122D03*
X01043Y00393D03*
X00925Y01574D03*
X00866Y01456D03*
Y00984D03*
X00925Y00393D03*
X00807Y01574D03*
X00748Y01456D03*
X00807Y01338D03*
X00748Y00511D03*
X00688Y01574D03*
X00629Y01456D03*
X00688Y01338D03*
X00629Y00984D03*
Y00511D03*
X00511Y01456D03*
Y0122D03*
X0057Y01102D03*
X00511Y00984D03*
Y00511D03*
X0057Y00393D03*
X00452Y01574D03*
X00334D03*
Y01338D03*
Y01102D03*
Y00393D03*
X00137Y0121D03*
Y01171D03*
X00177Y0121D03*
Y01171D03*
X00098Y0121D03*
Y01171D03*
Y01131D03*
X00177D03*
X00137D03*
X00098Y01092D03*
X00177D03*
X00137D03*
X00098Y0125D03*
X00177D03*
X00137D03*
X00098Y01289D03*
X00177D03*
X00137D03*
X00098Y01328D03*
X00177D03*
X00137D03*
X00216Y0121D03*
Y01289D03*
Y0125D03*
Y01171D03*
Y01131D03*
X00059Y01092D03*
Y01171D03*
Y01131D03*
Y0125D03*
Y01328D03*
Y01289D03*
Y00836D03*
Y00875D03*
Y00797D03*
Y00679D03*
Y00718D03*
Y00639D03*
X00216Y00679D03*
Y00718D03*
Y00797D03*
Y00836D03*
Y00757D03*
X00137Y00875D03*
X00177D03*
X00098D03*
X00137Y00836D03*
X00177D03*
X00098D03*
X00137Y00797D03*
X00177D03*
X00098D03*
X00137Y00639D03*
X00177D03*
X00098D03*
X00137Y00679D03*
X00177D03*
X00098D03*
Y00718D03*
Y00757D03*
X00177Y00718D03*
Y00757D03*
X00137Y00718D03*
Y00757D03*
X02814Y01574D03*
X02755Y01456D03*
Y0122D03*
X02814Y01102D03*
X02755Y00984D03*
X02814Y00866D03*
X02755Y00748D03*
Y00511D03*
X02814Y00393D03*
X02696Y00866D03*
X02637Y00275D03*
Y00039D03*
X02578Y01574D03*
Y01102D03*
X02519Y00984D03*
X02578Y00866D03*
X02401Y01692D03*
X0246Y01102D03*
X02401Y00984D03*
X0246Y00866D03*
Y00393D03*
X02283Y01692D03*
Y00511D03*
X02165Y01692D03*
X02224Y01574D03*
Y01102D03*
X02165Y00511D03*
X02224Y00393D03*
X02165Y00039D03*
X02047Y01692D03*
Y01456D03*
Y00511D03*
X02106Y00393D03*
X01988Y01574D03*
X01929Y00984D03*
X01988Y00393D03*
X01811Y01456D03*
X0187Y00866D03*
Y00393D03*
X01751Y01574D03*
X01692Y00511D03*
X01751Y00393D03*
X01574Y01692D03*
X01633Y01574D03*
X01574Y01456D03*
X01633Y00866D03*
Y00393D03*
X01574Y00275D03*
X01456Y01692D03*
X01515Y01574D03*
X01456Y01456D03*
Y00275D03*
X01338Y01692D03*
X01397Y01574D03*
X01338Y01456D03*
Y00275D03*
X0122Y01692D03*
Y00275D03*
X01102Y01692D03*
Y0122D03*
Y00275D03*
X00984Y01692D03*
Y01456D03*
X01043Y01338D03*
Y01102D03*
X00984Y00275D03*
Y00039D03*
X00866Y01692D03*
X00925Y01338D03*
X00866Y0122D03*
X00925Y01102D03*
X00866Y00275D03*
X00748Y01692D03*
Y0122D03*
X00807Y01102D03*
X00748Y00984D03*
X00807Y00393D03*
X00748Y00275D03*
X00629Y01692D03*
Y0122D03*
X00688Y01102D03*
X00629Y00748D03*
X00688Y00393D03*
X00629Y00275D03*
X00511Y01692D03*
X0057Y01574D03*
Y01338D03*
X00511Y00748D03*
Y00275D03*
Y00039D03*
X00393Y01692D03*
Y01456D03*
X00452Y01338D03*
X00393Y0122D03*
X00452Y01102D03*
X00393Y00984D03*
Y00748D03*
X00452Y00629D03*
X00393Y00511D03*
X00452Y00393D03*
X00393Y00275D03*
X00275Y01456D03*
Y0122D03*
Y00984D03*
X00334Y00866D03*
Y00629D03*
X00275Y00511D03*
X00216Y01574D03*
X00157Y00984D03*
X00216Y00393D03*
X00039Y00984D03*
X00157Y01889D03*
X00235Y01797D03*
Y01824D03*
X00157Y01732D03*
X00079Y01824D03*
Y01797D03*
X00246Y01916D03*
X00249Y01844D03*
X00225Y0185D03*
X00232Y01874D03*
Y01747D03*
X00225Y01771D03*
X00249Y01777D03*
X00246Y01705D03*
X00068Y01916D03*
X00082Y01874D03*
X00089Y0185D03*
X00064Y01844D03*
Y01777D03*
X00089Y01771D03*
X00082Y01747D03*
X00068Y01705D03*
X00184Y01885D03*
Y01737D03*
X0013Y01885D03*
Y01737D03*
X00293Y01834D03*
Y01787D03*
X00204Y0194D03*
X00174Y01907D03*
X00208Y01871D03*
Y0175D03*
X00204Y01681D03*
X00174Y01714D03*
X0011Y0194D03*
X0014Y01907D03*
X00106Y01871D03*
Y0175D03*
X0011Y01681D03*
X0014Y01714D03*
X00021Y01834D03*
Y01787D03*
X01811Y01889D03*
X01888Y01797D03*
Y01824D03*
X01811Y01732D03*
X01733Y01824D03*
Y01797D03*
X01899Y01916D03*
X01903Y01844D03*
X01879Y0185D03*
X01886Y01874D03*
Y01747D03*
X01879Y01771D03*
X01903Y01777D03*
X01899Y01705D03*
X01722Y01916D03*
X01735Y01874D03*
X01742Y0185D03*
X01718Y01844D03*
Y01777D03*
X01742Y01771D03*
X01735Y01747D03*
X01722Y01705D03*
X01837Y01885D03*
Y01737D03*
X01784Y01885D03*
Y01737D03*
X01946Y01834D03*
Y01787D03*
X01858Y0194D03*
X01828Y01907D03*
X01861Y01871D03*
Y0175D03*
X01858Y01681D03*
X01828Y01714D03*
X01763Y0194D03*
X01793Y01907D03*
X0176Y01871D03*
Y0175D03*
X01763Y01681D03*
X01793Y01714D03*
X01675Y01834D03*
Y01787D03*
X02992Y01889D03*
X03069Y01797D03*
Y01824D03*
X02992Y01732D03*
X02914Y01824D03*
Y01797D03*
X0308Y01916D03*
X03084Y01844D03*
X0306Y0185D03*
X03067Y01874D03*
Y01747D03*
X0306Y01771D03*
X03084Y01777D03*
X0308Y01705D03*
X02903Y01916D03*
X02916Y01874D03*
X02923Y0185D03*
X02899Y01844D03*
Y01777D03*
X02923Y01771D03*
X02916Y01747D03*
X02903Y01705D03*
X03019Y01885D03*
Y01737D03*
X02965Y01885D03*
Y01737D03*
X03127Y01834D03*
Y01787D03*
X03039Y0194D03*
X03009Y01907D03*
X03042Y01871D03*
Y0175D03*
X03039Y01681D03*
X03009Y01714D03*
X02945Y0194D03*
X02975Y01907D03*
X02941Y01871D03*
Y0175D03*
X02945Y01681D03*
X02975Y01714D03*
X02856Y01834D03*
Y01787D03*
X00157Y00236D03*
X00235Y00143D03*
Y00171D03*
X00157Y00078D03*
X00079Y00171D03*
Y00143D03*
X00246Y00263D03*
X00249Y00191D03*
X00225Y00196D03*
X00232Y0022D03*
Y00094D03*
X00225Y00118D03*
X00249Y00123D03*
X00246Y00051D03*
X00068Y00263D03*
X00082Y0022D03*
X00089Y00196D03*
X00064Y00191D03*
Y00123D03*
X00089Y00118D03*
X00082Y00094D03*
X00068Y00051D03*
X00184Y00231D03*
Y00083D03*
X0013Y00231D03*
Y00083D03*
X00293Y00181D03*
Y00133D03*
X00204Y00286D03*
X00174Y00254D03*
X00208Y00217D03*
Y00097D03*
X00204Y00027D03*
X00174Y0006D03*
X0011Y00286D03*
X0014Y00254D03*
X00106Y00217D03*
Y00097D03*
X0011Y00027D03*
X0014Y0006D03*
X00021Y00181D03*
Y00133D03*
X01811Y00236D03*
X01888Y00143D03*
Y00171D03*
X01811Y00078D03*
X01733Y00171D03*
Y00143D03*
X01899Y00263D03*
X01903Y00191D03*
X01879Y00196D03*
X01886Y0022D03*
Y00094D03*
X01879Y00118D03*
X01903Y00123D03*
X01899Y00051D03*
X01722Y00263D03*
X01735Y0022D03*
X01742Y00196D03*
X01718Y00191D03*
Y00123D03*
X01742Y00118D03*
X01735Y00094D03*
X01722Y00051D03*
X01837Y00231D03*
Y00083D03*
X01784Y00231D03*
Y00083D03*
X01946Y00181D03*
Y00133D03*
X01858Y00286D03*
X01828Y00254D03*
X01861Y00217D03*
Y00097D03*
X01858Y00027D03*
X01828Y0006D03*
X01763Y00286D03*
X01793Y00254D03*
X0176Y00217D03*
Y00097D03*
X01763Y00027D03*
X01793Y0006D03*
X01675Y00181D03*
Y00133D03*
X02992Y00236D03*
X03069Y00143D03*
Y00171D03*
X02992Y00078D03*
X02914Y00171D03*
Y00143D03*
X0308Y00263D03*
X03084Y00191D03*
X0306Y00196D03*
X03067Y0022D03*
Y00094D03*
X0306Y00118D03*
X03084Y00123D03*
X0308Y00051D03*
X02903Y00263D03*
X02916Y0022D03*
X02923Y00196D03*
X02899Y00191D03*
Y00123D03*
X02923Y00118D03*
X02916Y00094D03*
X02903Y00051D03*
X03019Y00231D03*
Y00083D03*
X02965Y00231D03*
Y00083D03*
X03127Y00181D03*
Y00133D03*
X03039Y00286D03*
X03009Y00254D03*
X03042Y00217D03*
Y00097D03*
X03039Y00027D03*
X03009Y0006D03*
X02945Y00286D03*
X02975Y00254D03*
X02941Y00217D03*
Y00097D03*
X02945Y00027D03*
X02975Y0006D03*
X02856Y00181D03*
Y00133D03*
X02917Y01405D03*
X02931Y01429D03*
X02903D03*
X02972Y01405D03*
X02986Y01429D03*
X02958D03*
X02944Y01405D03*
X03D03*
X03013Y01429D03*
X03055Y01405D03*
X03068Y01429D03*
X03041D03*
X03027Y01405D03*
X03082D03*
X03096Y01429D03*
X03137Y01405D03*
X03124Y01429D03*
X0311Y01405D03*
X02889D03*
X02917Y01232D03*
X02931Y01208D03*
X02903D03*
X02972Y01232D03*
X02986Y01208D03*
X02958D03*
X02944Y01232D03*
X03D03*
X03013Y01208D03*
X03055Y01232D03*
X03068Y01208D03*
X03041D03*
X03027Y01232D03*
X03082D03*
X03096Y01208D03*
X03137Y01232D03*
X03124Y01208D03*
X0311Y01232D03*
X02889D03*
X02917Y00736D03*
X02931Y00759D03*
X02903D03*
X02972Y00736D03*
X02986Y00759D03*
X02958D03*
X02944Y00736D03*
X03D03*
X03013Y00759D03*
X03055Y00736D03*
X03068Y00759D03*
X03041D03*
X03027Y00736D03*
X03082D03*
X03096Y00759D03*
X03137Y00736D03*
X03124Y00759D03*
X0311Y00736D03*
X02889D03*
X02917Y00562D03*
X02931Y00539D03*
X02903D03*
X02972Y00562D03*
X02986Y00539D03*
X02958D03*
X02944Y00562D03*
X03D03*
X03013Y00539D03*
X03055Y00562D03*
X03068Y00539D03*
X03041D03*
X03027Y00562D03*
X03082D03*
X03096Y00539D03*
X03137Y00562D03*
X03124Y00539D03*
X0311Y00562D03*
X02889D03*
G54D67*
X02775Y01732D03*
X02677Y01791D03*
X02755Y0183D03*
X0309Y01614D03*
X02992Y01594D03*
X02834Y01653D03*
X02893Y01574D03*
X00393Y0183D03*
X00511Y0187D03*
X00433Y01909D03*
X00826Y0187D03*
X00748Y01909D03*
X00669Y0187D03*
X00984D03*
X01062Y01909D03*
X01141Y0187D03*
X01299D03*
X01377Y01909D03*
X01456Y0187D03*
X01535Y01909D03*
X02086D03*
X02007Y0187D03*
X02165D03*
X02322D03*
X02401Y01909D03*
X0248Y0187D03*
X02716Y01909D03*
X02814D03*
X02637Y0187D03*
X00334Y01909D03*
X00905D03*
X0059D03*
X0122D03*
X01614Y0187D03*
X02244Y01909D03*
X02559D03*
X00059Y01476D03*
Y01633D03*
X00118Y01555D03*
X02559Y00059D03*
X00059Y00492D03*
X00118Y00413D03*
X00059Y00334D03*
X02992Y00374D03*
X0248Y00098D03*
X02401Y00059D03*
X02322Y00098D03*
X02244Y00059D03*
X02165Y00098D03*
X02007D03*
X02086Y00059D03*
X01535D03*
X01614Y00098D03*
X01456D03*
X01377Y00059D03*
X01299Y00098D03*
X0122Y00059D03*
X01141Y00098D03*
X01062Y00059D03*
X0059D03*
X00669Y00098D03*
X00748Y00059D03*
X00826Y00098D03*
X00905Y00059D03*
X00984Y00098D03*
X00433Y00059D03*
X00511Y00098D03*
X00334Y00059D03*
X00393Y00137D03*
X02637Y00098D03*
X02755Y00137D03*
X02814Y00059D03*
X02716D03*
X02677Y00177D03*
X02775Y00236D03*
X02834Y00314D03*
X02893Y00393D03*
X0309Y00354D03*
M02*