%FSTAX23Y23*%
%MOIN*%
%SFA1B1*%

%IPPOS*%
%AMD13*
4,1,4,0.018000,-0.001300,-0.001300,0.018000,-0.018000,0.001300,0.001300,-0.018000,0.018000,-0.001300,0.0*
%
%AMD15*
4,1,8,-0.022600,-0.005900,0.022600,-0.005900,0.025600,-0.003000,0.025600,0.003000,0.022600,0.005900,-0.022600,0.005900,-0.025600,0.003000,-0.025600,-0.003000,-0.022600,-0.005900,0.0*
1,1,0.005900,-0.022600,-0.003000*
1,1,0.005900,0.022600,-0.003000*
1,1,0.005900,0.022600,0.003000*
1,1,0.005900,-0.022600,0.003000*
%
%AMD16*
4,1,8,0.013800,-0.002500,0.013800,0.002500,0.011300,0.004900,-0.011300,0.004900,-0.013800,0.002500,-0.013800,-0.002500,-0.011300,-0.004900,0.011300,-0.004900,0.013800,-0.002500,0.0*
1,1,0.004920,0.011300,-0.002500*
1,1,0.004920,0.011300,0.002500*
1,1,0.004920,-0.011300,0.002500*
1,1,0.004920,-0.011300,-0.002500*
%
%AMD17*
4,1,8,-0.002500,-0.013800,0.002500,-0.013800,0.004900,-0.011300,0.004900,0.011300,0.002500,0.013800,-0.002500,0.013800,-0.004900,0.011300,-0.004900,-0.011300,-0.002500,-0.013800,0.0*
1,1,0.004920,-0.002500,-0.011300*
1,1,0.004920,0.002500,-0.011300*
1,1,0.004920,0.002500,0.011300*
1,1,0.004920,-0.002500,0.011300*
%
%AMD20*
4,1,8,0.012800,0.005900,-0.012800,0.005900,-0.015700,0.003000,-0.015700,-0.003000,-0.012800,-0.005900,0.012800,-0.005900,0.015700,-0.003000,0.015700,0.003000,0.012800,0.005900,0.0*
1,1,0.005900,0.012800,0.003000*
1,1,0.005900,-0.012800,0.003000*
1,1,0.005900,-0.012800,-0.003000*
1,1,0.005900,0.012800,-0.003000*
%
%AMD21*
4,1,8,0.003100,-0.006600,0.006600,-0.003100,0.006600,0.000400,0.000400,0.006600,-0.003100,0.006600,-0.006600,0.003100,-0.006600,-0.000400,-0.000400,-0.006600,0.003100,-0.006600,0.0*
1,1,0.004920,0.001300,-0.004900*
1,1,0.004920,0.004900,-0.001300*
1,1,0.004920,-0.001300,0.004900*
1,1,0.004920,-0.004900,0.001300*
%
%AMD22*
4,1,8,0.003100,-0.006600,0.006600,-0.003100,0.006600,0.000400,0.000400,0.006600,-0.003100,0.006600,-0.006600,0.003100,-0.006600,-0.000400,-0.000400,-0.006600,0.003100,-0.006600,0.0*
1,1,0.004920,0.001300,-0.004900*
1,1,0.004920,0.004900,-0.001300*
1,1,0.004920,-0.001300,0.004900*
1,1,0.004920,-0.004900,0.001300*
%
%AMD23*
4,1,8,-0.002100,-0.021600,0.021600,0.002100,0.021600,0.011800,0.011800,0.021600,0.002100,0.021600,-0.021600,-0.002100,-0.021600,-0.011800,-0.011800,-0.021600,-0.002100,-0.021600,0.0*
1,1,0.013780,-0.006900,-0.016700*
1,1,0.013780,0.016700,0.006900*
1,1,0.013780,0.006900,0.016700*
1,1,0.013780,-0.016700,-0.006900*
%
%AMD24*
4,1,8,0.002500,0.013800,-0.002500,0.013800,-0.004900,0.011300,-0.004900,-0.011300,-0.002500,-0.013800,0.002500,-0.013800,0.004900,-0.011300,0.004900,0.011300,0.002500,0.013800,0.0*
1,1,0.004920,0.002500,0.011300*
1,1,0.004920,-0.002500,0.011300*
1,1,0.004920,-0.002500,-0.011300*
1,1,0.004920,0.002500,-0.011300*
%
%AMD25*
4,1,8,-0.013800,0.002500,-0.013800,-0.002500,-0.011300,-0.004900,0.011300,-0.004900,0.013800,-0.002500,0.013800,0.002500,0.011300,0.004900,-0.011300,0.004900,-0.013800,0.002500,0.0*
1,1,0.004920,-0.011300,0.002500*
1,1,0.004920,-0.011300,-0.002500*
1,1,0.004920,0.011300,-0.002500*
1,1,0.004920,0.011300,0.002500*
%
%AMD26*
4,1,8,-0.009800,0.003000,-0.009800,-0.003000,-0.006900,-0.005900,0.006900,-0.005900,0.009800,-0.003000,0.009800,0.003000,0.006900,0.005900,-0.006900,0.005900,-0.009800,0.003000,0.0*
1,1,0.005900,-0.006900,0.003000*
1,1,0.005900,-0.006900,-0.003000*
1,1,0.005900,0.006900,-0.003000*
1,1,0.005900,0.006900,0.003000*
%
%AMD27*
4,1,8,0.005900,-0.012800,0.005900,0.012800,0.003000,0.015700,-0.003000,0.015700,-0.005900,0.012800,-0.005900,-0.012800,-0.003000,-0.015700,0.003000,-0.015700,0.005900,-0.012800,0.0*
1,1,0.005900,0.003000,-0.012800*
1,1,0.005900,0.003000,0.012800*
1,1,0.005900,-0.003000,0.012800*
1,1,0.005900,-0.003000,-0.012800*
%
%AMD28*
4,1,8,-0.015700,0.002700,-0.015700,-0.002700,-0.012900,-0.005500,0.012900,-0.005500,0.015700,-0.002700,0.015700,0.002700,0.012900,0.005500,-0.012900,0.005500,-0.015700,0.002700,0.0*
1,1,0.005520,-0.012900,0.002700*
1,1,0.005520,-0.012900,-0.002700*
1,1,0.005520,0.012900,-0.002700*
1,1,0.005520,0.012900,0.002700*
%
%AMD29*
4,1,8,-0.005500,0.012900,-0.005500,-0.012900,-0.002700,-0.015700,0.002700,-0.015700,0.005500,-0.012900,0.005500,0.012900,0.002700,0.015700,-0.002700,0.015700,-0.005500,0.012900,0.0*
1,1,0.005520,-0.002700,0.012900*
1,1,0.005520,-0.002700,-0.012900*
1,1,0.005520,0.002700,-0.012900*
1,1,0.005520,0.002700,0.012900*
%
%AMD59*
4,1,8,-0.019700,0.009800,-0.019700,-0.009800,-0.009800,-0.019700,0.009800,-0.019700,0.019700,-0.009800,0.019700,0.009800,0.009800,0.019700,-0.009800,0.019700,-0.019700,0.009800,0.0*
1,1,0.019680,-0.009800,0.009800*
1,1,0.019680,-0.009800,-0.009800*
1,1,0.019680,0.009800,-0.009800*
1,1,0.019680,0.009800,0.009800*
%
%AMD62*
4,1,8,0.059000,0.157500,-0.059000,0.157500,-0.118100,0.098400,-0.118100,-0.098400,-0.059000,-0.157500,0.059000,-0.157500,0.118100,-0.098400,0.118100,0.098400,0.059000,0.157500,0.0*
1,1,0.118120,0.059000,0.098400*
1,1,0.118120,-0.059000,0.098400*
1,1,0.118120,-0.059000,-0.098400*
1,1,0.118120,0.059000,-0.098400*
%
%ADD11C,0.007870*%
%ADD12R,0.023620X0.027560*%
G04~CAMADD=13~9~0.0~0.0~275.6~236.2~0.0~0.0~0~0.0~0.0~0.0~0.0~0~0.0~0.0~0.0~0.0~0~0.0~0.0~0.0~315.0~360.0~359.0*
%ADD13D13*%
%ADD14R,0.027560X0.023620*%
G04~CAMADD=15~8~0.0~0.0~511.8~118.1~29.5~0.0~15~0.0~0.0~0.0~0.0~0~0.0~0.0~0.0~0.0~0~0.0~0.0~0.0~180.0~512.0~118.0*
%ADD15D15*%
G04~CAMADD=16~8~0.0~0.0~98.4~275.6~24.6~0.0~15~0.0~0.0~0.0~0.0~0~0.0~0.0~0.0~0.0~0~0.0~0.0~0.0~270.0~276.0~98.0*
%ADD16D16*%
G04~CAMADD=17~8~0.0~0.0~98.4~275.6~24.6~0.0~15~0.0~0.0~0.0~0.0~0~0.0~0.0~0.0~0.0~0~0.0~0.0~0.0~180.0~99.0~276.0*
%ADD17D17*%
%ADD18R,0.110240X0.110240*%
%ADD19R,0.027560X0.049210*%
G04~CAMADD=20~8~0.0~0.0~315.0~118.1~29.5~0.0~15~0.0~0.0~0.0~0.0~0~0.0~0.0~0.0~0.0~0~0.0~0.0~0.0~0.0~315.0~118.1*
%ADD20D20*%
G04~CAMADD=21~8~0.0~0.0~98.4~137.8~24.6~0.0~15~0.0~0.0~0.0~0.0~0~0.0~0.0~0.0~0.0~0~0.0~0.0~0.0~225.0~148.0~148.0*
%ADD21D21*%
G04~CAMADD=22~8~0.0~0.0~98.4~137.8~24.6~0.0~15~0.0~0.0~0.0~0.0~0~0.0~0.0~0.0~0.0~0~0.0~0.0~0.0~225.0~148.0~148.0*
%ADD22D22*%
G04~CAMADD=23~8~0.0~0.0~472.4~275.6~68.9~0.0~15~0.0~0.0~0.0~0.0~0~0.0~0.0~0.0~0.0~0~0.0~0.0~0.0~225.0~471.0~471.0*
%ADD23D23*%
G04~CAMADD=24~8~0.0~0.0~98.4~275.6~24.6~0.0~15~0.0~0.0~0.0~0.0~0~0.0~0.0~0.0~0.0~0~0.0~0.0~0.0~0.0~98.4~275.6*
%ADD24D24*%
G04~CAMADD=25~8~0.0~0.0~98.4~275.6~24.6~0.0~15~0.0~0.0~0.0~0.0~0~0.0~0.0~0.0~0.0~0~0.0~0.0~0.0~90.0~276.0~99.0*
%ADD25D25*%
G04~CAMADD=26~8~0.0~0.0~118.1~196.8~29.5~0.0~15~0.0~0.0~0.0~0.0~0~0.0~0.0~0.0~0.0~0~0.0~0.0~0.0~90.0~196.0~118.0*
%ADD26D26*%
G04~CAMADD=27~8~0.0~0.0~315.0~118.1~29.5~0.0~15~0.0~0.0~0.0~0.0~0~0.0~0.0~0.0~0.0~0~0.0~0.0~0.0~270.0~118.0~315.0*
%ADD27D27*%
G04~CAMADD=28~8~0.0~0.0~110.2~313.3~27.6~0.0~15~0.0~0.0~0.0~0.0~0~0.0~0.0~0.0~0.0~0~0.0~0.0~0.0~90.0~314.0~111.0*
%ADD28D28*%
G04~CAMADD=29~8~0.0~0.0~313.3~110.2~27.6~0.0~15~0.0~0.0~0.0~0.0~0~0.0~0.0~0.0~0.0~0~0.0~0.0~0.0~90.0~111.0~314.0*
%ADD29D29*%
%ADD30R,0.106300X0.106300*%
%ADD31C,0.009840*%
%ADD57C,0.011550*%
%ADD58C,0.011540*%
G04~CAMADD=59~8~0.0~0.0~393.7~393.7~98.4~0.0~15~0.0~0.0~0.0~0.0~0~0.0~0.0~0.0~0.0~0~0.0~0.0~0.0~90.0~394.0~394.0*
%ADD59D59*%
%ADD60R,0.196850X0.090550*%
%ADD61C,0.011540*%
G04~CAMADD=62~8~0.0~0.0~2362.2~3149.6~590.6~0.0~15~0.0~0.0~0.0~0.0~0~0.0~0.0~0.0~0.0~0~0.0~0.0~0.0~0.0~2362.2~3149.6*
%ADD62D62*%
%ADD63C,0.314960*%
%ADD64R,0.196850X0.098430*%
%ADD65C,0.017720*%
%ADD66C,0.019680*%
%ADD67C,0.078740*%
%LNmashiro_fs-1*%
%LPD*%
G36*
X03149Y01811D02*
Y01633D01*
Y01543*
X03153*
Y01389*
X02874*
X02873Y01406*
X02871Y01439*
X02865Y01471*
X02858Y01504*
X02847Y01535*
X02835Y01566*
X0282Y01595*
X02803Y01623*
X02783Y0165*
X02762Y01675*
X02738Y01699*
X02713Y0172*
X02686Y0174*
X02658Y01757*
X02629Y01772*
X02598Y01784*
X02567Y01795*
X02534Y01802*
X02502Y01808*
X02469Y0181*
X02452Y01811*
X02992*
X00157*
X00551*
X00531Y0181*
X00493Y01806*
X00455Y01799*
X00418Y01788*
X00382Y01773*
X00348Y01755*
X00316Y01733*
X00286Y01709*
X00259Y01681*
X00234Y01651*
X00213Y01619*
X00195Y01585*
X0018Y01549*
X00169Y01512*
X00161Y01475*
X00157Y01436*
X00157Y01417*
Y01417*
X0*
Y01811*
Y01968*
X03149*
Y01811*
G37*
G36*
X02469Y01806D02*
X02501Y01804D01*
X02534Y01799*
X02566Y01791*
X02597Y01781*
X02627Y01768*
X02656Y01753*
X02684Y01736*
X02711Y01717*
X02736Y01696*
X02759Y01673*
X0278Y01648*
X02799Y01621*
X02816Y01593*
X02831Y01564*
X02844Y01534*
X02854Y01503*
X02862Y01471*
X02867Y01438*
X02869Y01406*
X0287Y0139*
X0287Y01389*
X0287Y01388*
X0287Y01387*
X02871Y01387*
X02871Y01387*
X02871Y01386*
X0287Y01381*
X02869Y01381*
X02839Y01376*
X02836Y01377*
X02824Y01378*
X02657*
X02645Y01377*
X02634Y01373*
X02624Y01368*
X02615Y0136*
X02608Y01351*
X02602Y01341*
X02599Y0133*
X02599Y01329*
X02204*
X02203Y0133*
X022Y01341*
X02195Y01351*
X02187Y0136*
X02178Y01368*
X02168Y01373*
X02157Y01377*
X02145Y01378*
X01768*
X01754Y01395*
X01753Y01396*
X01752Y01397*
X0175Y01399*
X01749Y014*
X01729Y01417*
X01727Y01418*
X01725Y01419*
X01724Y0142*
X01723Y0142*
X01721Y01421*
X01719Y01422*
X01718Y01422*
X01717Y01422*
X01714Y01423*
X01712Y01423*
X01694*
X01691Y01433*
X01692Y01437*
X01691Y01444*
X01688Y01451*
X01683Y01457*
X01677Y01461*
X0167Y01464*
X01663Y01465*
X01655Y01464*
X01648Y01461*
X01648Y01461*
X01648Y01461*
X01641Y01464*
X01633Y01465*
X01626Y01464*
X01619Y01461*
X01613Y01457*
X01608Y01451*
X01606Y01444*
X01605Y01437*
X01606Y01429*
X01608Y01424*
Y01397*
X01604Y01391*
X016*
Y01383*
X01581*
X01575Y01382*
X0157Y0138*
X01567Y01378*
X01534*
X01512Y01383*
X01508Y01383*
X01504Y01383*
X01322*
X01315Y01383*
X01309Y0138*
X01306Y01378*
X01304*
X01302Y0138*
X01296Y01382*
X0129Y01383*
X01276*
Y01397*
X01276Y01402*
X01273Y01408*
X01271Y01411*
X0129Y01444*
X01312*
Y01507*
X01309*
X01304Y01513*
X01305Y01515*
Y01555*
X01304Y01561*
X01301Y01567*
X01297Y01573*
X01292Y01577*
X01286Y01579*
X01279Y0158*
X01272Y01579*
X01266Y01577*
X01261Y01573*
X01257Y01567*
X01254Y01561*
X01253Y01555*
Y01515*
X01254Y01513*
X01251Y0151*
X01246Y01507*
X01244*
X01239Y0151*
X01236Y01513*
X01236Y01515*
Y01555*
X01235Y01561*
X01232Y01567*
X01228Y01573*
X01223Y01577*
X01217Y01579*
X0121Y0158*
X01203Y01579*
X01197Y01577*
X01192Y01573*
X01188Y01567*
X01185Y01561*
X01184Y01555*
Y01515*
X01185Y01513*
X0118Y01507*
X01177*
Y01472*
X01171Y01469*
X01151Y01486*
Y01496*
X0115Y01503*
X01147Y0151*
X01143Y01517*
X01136Y01521*
X01129Y01524*
X01122Y01525*
X01102*
X01094Y01524*
X01087Y01521*
X01081Y01517*
X01076Y0151*
X01073Y01503*
X01072Y01496*
Y01476*
X01073Y01468*
X01076Y01461*
X01081Y01455*
X01087Y0145*
X01094Y01447*
X01102Y01446*
X01119*
X01145Y01424*
X01145Y01421*
X01144Y01418*
X01139Y01416*
X01135Y01412*
X01131Y01408*
X01129Y01402*
X01128Y01397*
Y01383*
X01114*
X01108Y01382*
X01103Y0138*
X01098Y01376*
X01095Y01371*
X01093Y01366*
X01092Y0136*
Y01355*
X01093Y0135*
X01093Y01348*
X01093Y01346*
X01092Y01341*
Y01336*
X01093Y0133*
X01093Y01328*
X01093Y01327*
X01092Y01321*
Y01316*
X01093Y0131*
X01093Y01309*
X01093Y01307*
X01092Y01301*
Y01296*
X01093Y0129*
X01093Y01289*
X01093Y01287*
X01092Y01281*
Y01277*
X01093Y01271*
X01093Y01269*
X01093Y01268*
X01092Y01262*
Y01257*
X01093Y01251*
X01095Y01246*
X01098Y01241*
X01103Y01238*
X01108Y01235*
X01114Y01235*
X01128*
Y0122*
X01129Y01215*
X01131Y01209*
X01135Y01205*
X01139Y01201*
X01145Y01199*
X01151Y01198*
X01156*
X01161Y01199*
X01163Y012*
X01164Y01199*
X0117Y01198*
X01175*
X01181Y01199*
X01183Y012*
X01184Y01199*
X0119Y01198*
X01195*
X01201Y01199*
X01202Y012*
X01204Y01199*
X0121Y01198*
X01215*
X0122Y01199*
X01222Y012*
X01224Y01199*
X01229Y01198*
X01234*
X0124Y01199*
X01242Y012*
X01243Y01199*
X01249Y01198*
X01254*
X0126Y01199*
X01265Y01201*
X0127Y01205*
X01273Y01209*
X01276Y01215*
X01276Y0122*
Y01235*
X0129*
X01296Y01235*
X01302Y01238*
X01306Y01241*
X0131Y01246*
X01312Y01251*
X01312Y01254*
X01322Y01253*
Y01253*
X01417*
X01419Y01247*
X01418Y01247*
X01413Y01239*
X01412Y01237*
X01411Y01236*
X01392Y01195*
X01366*
Y01175*
X01283Y01169*
X0128Y01172*
X01274Y01177*
X01267Y0118*
X01259Y01181*
X0124*
X01232Y0118*
X01225Y01177*
X01219Y01172*
X01214Y01166*
X01211Y01159*
X0121Y01151*
Y01131*
X01211Y01124*
X01214Y01117*
X01219Y0111*
X01225Y01106*
X01232Y01103*
X0124Y01102*
X01259*
X01267Y01103*
X01274Y01106*
X0128Y0111*
X01285Y01117*
X01286Y01118*
X01361Y01123*
X01366Y01119*
Y01107*
X01433*
Y01161*
X01435Y01163*
X0144Y01161*
Y01107*
X01491*
X01495Y01102*
X01483Y01005*
X01477*
X01476*
X01474Y01006*
X01471Y01008*
X0147Y0101*
X0147Y01012*
Y01013*
Y01097*
X01403*
Y01069*
X01247Y01019*
X01233Y01034*
X01213Y01014*
X01206Y01015*
X01206Y01014*
X01205Y01015*
X01204Y01015*
X01204*
X01174Y01014*
X01154Y01034*
X01114Y00994*
X01075Y01034*
X01056Y01014*
X01048Y01015*
X01048Y01014*
X01047Y01015*
X01046Y01015*
X01046*
X01016Y01014*
X00996Y01034*
X00967Y01004*
X0096Y01006*
X00959Y01008*
X00955Y01014*
X00949Y01019*
X00942Y01021*
X00935Y01022*
X00927Y01021*
X0092Y01019*
X00914Y01014*
X0091Y01008*
X00907Y01001*
X00906Y00994*
X00907Y00986*
X0091Y00979*
X00914Y00973*
X0092Y00969*
X00922Y00968*
X00924Y00961*
X00971Y00914*
X00999Y00942*
X01011Y00953*
X0105Y00914*
X01069Y00934*
X01077Y00933*
X01077*
X01078Y00933*
X01079Y00933*
X01084Y00933*
X01109Y00934*
X01129Y00914*
X01157Y00942*
X01175Y0096*
X01181Y00958*
X01181Y00954*
X01184Y00948*
X01188Y00942*
X01231Y00897*
X01236Y00893*
X01242Y0089*
X01249Y00889*
X01256Y0089*
X01262Y00892*
X01267Y00896*
X01271Y00902*
X01274Y00908*
X01275Y00914*
X01274Y00921*
X01272Y00927*
X01268Y00933*
X01247Y00954*
X01264Y0097*
X01398Y01013*
X01403Y0101*
Y01008*
X01465*
X01466*
X01468Y01008*
X01471Y01006*
X01472Y01004*
X01472Y01002*
Y01001*
Y0096*
X01456*
X0145Y00959*
X01443Y00957*
X01438Y00953*
X01434Y00947*
X01431Y00941*
X01431Y00935*
X01431Y00928*
X01434Y00922*
X01438Y00916*
X01443Y00912*
X0145Y0091*
X01456Y00909*
X01505*
X01512Y0091*
X01518Y00912*
X01524Y00916*
X01528Y00922*
X0153Y00928*
X01531Y00935*
X01531Y00937*
X01536Y00942*
X01539*
Y01005*
X01536Y01009*
X01538Y01031*
X01541Y01031*
X01608*
Y01037*
X01628*
X01632Y01032*
X01638Y01027*
X01645Y01024*
X01653Y01023*
X01673*
X0168Y01024*
X01688Y01027*
X01694Y01032*
X01699Y01038*
X01702Y01045*
X01703Y01053*
Y01057*
X01708Y0106*
X01712Y01057*
Y01053*
X01713Y01045*
X01716Y01038*
X01721Y01032*
X01727Y01027*
X01734Y01024*
X01742Y01023*
X01761*
X01769Y01024*
X01776Y01027*
X01782Y01032*
X01787Y01038*
X0179Y01045*
X01791Y01053*
Y01055*
X01796Y01057*
X018Y01055*
Y01053*
X01801Y01045*
X01804Y01038*
X01809Y01032*
X01815Y01027*
X01823Y01024*
X0183Y01023*
X0185*
X01858Y01024*
X01865Y01027*
X01871Y01032*
X01876Y01038*
X01879Y01045*
X0188Y01053*
Y01072*
X01879Y0108*
X01876Y01087*
X01871Y01093*
X01868Y01096*
X01864Y011*
X01864Y01106*
X01885*
Y011*
X01952*
Y01106*
X01974*
Y011*
X02041*
Y01163*
X02038*
X02033Y01169*
X02033Y01171*
Y0121*
X02032Y01217*
X0203Y01223*
X02026Y01228*
X0202Y01232*
X02014Y01235*
X02007Y01236*
X02001Y01235*
X01995Y01232*
X01989Y01228*
X01985Y01223*
X01983Y01217*
X01982Y0121*
Y01171*
X01982Y01169*
X01977Y01163*
X01974*
Y01157*
X01952*
Y01163*
X01949*
X01944Y01169*
X01944Y01171*
Y0121*
X01944Y01217*
X01941Y01223*
X01937Y01228*
X01932Y01232*
X01925Y01235*
X01919Y01236*
X01912Y01235*
X01906Y01232*
X01901Y01228*
X01897Y01223*
X01894Y01217*
X01893Y0121*
Y01171*
X01893Y01169*
X01888Y01163*
X01885*
Y01157*
X01864*
Y01163*
X01861*
X01856Y01169*
X01856Y01171*
Y0121*
X01855Y01217*
X01852Y01223*
X01848Y01228*
X01843Y01232*
X01837Y01235*
X0183Y01236*
X01824Y01235*
X01817Y01232*
X01812Y01228*
X01808Y01223*
X01805Y01217*
X01805Y0121*
Y01182*
X01799Y01179*
X01735Y01216*
X01737Y01221*
X01737Y01227*
Y01246*
X01746*
Y0125*
X0175Y01254*
X01751Y01253*
X01758Y01254*
X01764Y01257*
X01767Y01259*
X02086*
Y01077*
X02062Y01053*
X02044Y01036*
X02037Y01027*
X02031Y01016*
X02028Y01005*
X02027Y00994*
X02027Y00989*
X02027Y00984*
Y00964*
Y00925*
Y00871*
X02019Y00862*
X02011Y00864*
X02009Y00867*
X02003Y00872*
X01995Y00875*
X01988Y00876*
X01968*
X0196Y00875*
X01953Y00872*
X01947Y00867*
X01942Y00861*
X01939Y00854*
X01938Y00846*
Y00826*
X01939Y00819*
X01942Y00811*
X01947Y00805*
X0195Y00803*
X01952Y00795*
X01926Y0077*
X01924Y00768*
X01338*
X01327Y00766*
X0132Y00765*
X01315Y00769*
Y00783*
X01317Y00783*
X01323Y00785*
X01328Y00789*
X01331Y00794*
X01334Y00799*
X01334Y00805*
Y00811*
X01334Y00817*
X01332Y00821*
X01334Y00824*
X01334Y0083*
Y00831*
X01356Y00844*
X01391*
Y00889*
X01397*
X01404Y0089*
X0141Y00893*
X01415Y00897*
X01419Y00902*
X01422Y00908*
X01423Y00915*
X01422Y00922*
X01419Y00928*
X01415Y00933*
X0141Y00937*
X01404Y0094*
X01397Y00941*
X01358*
X01351Y0094*
X01345Y00937*
X0134Y00933*
X01336Y00928*
X01333Y00922*
X01332Y00915*
X01332Y00913*
X01327Y00907*
X01324*
Y00885*
X01282Y00859*
X01266*
X0126Y00858*
X01255Y00856*
X0125Y00852*
X01246Y00848*
X01245Y00845*
X00904Y00923*
X00904Y00923*
X00901Y0093*
X00897Y00936*
X0089Y00941*
X00883Y00944*
X00875Y00945*
X00856*
X00848Y00944*
X00841Y00941*
X00835Y00936*
X0083Y0093*
X00827Y00923*
X00826Y00915*
Y00895*
X00826Y00894*
X00821Y0089*
X00566Y00921*
X00566Y00921*
X00565Y00922*
X00509Y00927*
X00508Y0093*
X00503Y00936*
X00497Y00941*
X00489Y00944*
X00482Y00945*
X00462*
X00454Y00944*
X00447Y00941*
X00441Y00936*
X00436Y0093*
X00433Y00923*
X00432Y00915*
Y00895*
X00433Y00887*
X00436Y0088*
X00441Y00874*
X00447Y00869*
X00454Y00866*
X00462Y00865*
X00482*
X00489Y00866*
X00497Y00869*
X00503Y00874*
X00504Y00876*
X00511Y00875*
Y00856*
X00512Y00848*
X00515Y00841*
X0052Y00835*
X00526Y0083*
X00533Y00827*
X00541Y00826*
X00561*
X00568Y00827*
X00575Y0083*
X00582Y00835*
X00583Y00837*
X0059Y00836*
Y00816*
X00591Y00809*
X00594Y00802*
X00599Y00795*
X00605Y00791*
X00612Y00788*
X0062Y00787*
X00639*
X00647Y00788*
X00654Y00791*
X0066Y00795*
X00662Y00797*
X00669Y00797*
Y00777*
X0067Y00769*
X00673Y00762*
X00677Y00756*
X00683Y00751*
X00691Y00748*
X00698Y00747*
X00718*
X00726Y00748*
X00733Y00751*
X00739Y00756*
X00741Y00759*
X00747Y00758*
X00747Y00757*
Y00738*
X00748Y0073*
X00751Y00723*
X00756Y00717*
X00762Y00712*
X00769Y00709*
X00777Y00708*
X00797*
X00804Y00709*
X00812Y00712*
X00818Y00717*
X0082Y0072*
X00976Y00712*
X00976Y00706*
X00969Y00704*
X00963Y00699*
X00959Y00693*
X00956Y00686*
X00955Y00679*
X00956Y00671*
X00959Y00664*
X00963Y00658*
X00969Y00654*
X00974Y00652*
X00973Y00646*
X00645Y00685*
X00644Y00685*
X00644Y00685*
X00587Y00691*
X00586Y00694*
X00582Y007*
X00575Y00704*
X00568Y00707*
X00561Y00708*
X00541*
X00533Y00707*
X00526Y00704*
X0052Y007*
X00515Y00694*
X00512Y00686*
X00511Y00679*
Y00659*
X00512Y00651*
X00515Y00644*
X0052Y00638*
X00526Y00633*
X00533Y0063*
X00541Y00629*
X00561*
X00568Y0063*
X00575Y00633*
X00582Y00638*
X00583Y0064*
X0059Y00639*
Y0062*
X00591Y00612*
X00594Y00605*
X00599Y00599*
X00605Y00594*
X00612Y00591*
X0062Y0059*
X00639*
X00647Y00591*
X00654Y00594*
X0066Y00599*
X00662Y006*
X00669Y006*
Y0058*
X0067Y00573*
X00673Y00565*
X00677Y00559*
X00683Y00554*
X00691Y00551*
X00698Y0055*
X00718*
X00726Y00551*
X00733Y00554*
X00739Y00559*
X00741Y00561*
X00747Y00561*
X00747Y00561*
Y00541*
X00748Y00533*
X00751Y00526*
X00756Y0052*
X00762Y00515*
X00769Y00512*
X00777Y00511*
X00797*
X00804Y00512*
X00812Y00515*
X00818Y0052*
X00819Y00522*
X00826Y00522*
X00826Y00521*
Y00501*
X00827Y00494*
X0083Y00487*
X00835Y0048*
X00841Y00476*
X00848Y00473*
X00856Y00472*
X00875*
X00883Y00473*
X0089Y00476*
X00897Y0048*
X009Y00485*
X01046Y00483*
X0105Y00482*
X01095*
X01101Y00483*
X01106Y00485*
X01111Y00489*
X01115Y00494*
X01117Y00499*
X01118Y00505*
Y00511*
X01117Y00517*
X01116Y00521*
X01117Y00524*
X01118Y0053*
Y00536*
X01117Y00542*
X01116Y00546*
X01117Y00549*
X01118Y00555*
Y00561*
X01117Y00567*
X01116Y00571*
X01117Y00574*
X01118Y0058*
Y00586*
X01117Y00592*
X01116Y00596*
X01117Y00599*
X01118Y00605*
Y00611*
X01117Y00615*
X01127Y00618*
X01129Y00619*
X01134Y00621*
X01143Y00627*
X01147Y00634*
X01149Y00633*
X01155Y00634*
X01162Y00636*
X01167Y00639*
X01172Y00644*
X01174Y00647*
X0118Y00646*
X01192Y00535*
X01191Y00531*
X01192Y00524*
X01193Y00521*
X012Y00458*
X01196Y00454*
X01192Y0045*
X0119Y0045*
X01188Y00451*
X01181Y00452*
X01173Y00451*
X01171Y0045*
X01165Y00453*
Y00454*
X01098*
Y00391*
X01101*
X01106Y00385*
X01106Y00383*
Y00344*
X01107Y00337*
X01109Y00331*
X01113Y00326*
X01119Y00322*
X01125Y00319*
X01131Y00318*
X01138Y00319*
X01144Y00322*
X0115Y00326*
X01154Y00331*
X01156Y00337*
X01157Y00344*
Y00383*
X01157Y00385*
X01162Y00391*
X01165*
Y00392*
X01171Y00396*
X01173Y00395*
X01181Y00394*
X01188Y00395*
X0119Y00396*
X01196Y00392*
Y00391*
X01199*
X01204Y00385*
X01204Y00383*
Y00344*
X01205Y00337*
X01208Y00331*
X01212Y00326*
X01217Y00322*
X01223Y00319*
X0123Y00318*
X01236Y00319*
X01243Y00322*
X01248Y00326*
X01252Y00331*
X01255Y00337*
X01256Y00344*
Y00383*
X01255Y00385*
X0126Y00391*
X01263*
Y00444*
X01269Y00446*
X01271Y00444*
X01276Y0044*
X01282Y00437*
X01289Y00436*
X01296Y00437*
X01302Y0044*
X01307Y00444*
X01311Y00449*
X01314Y00455*
X01315Y00462*
Y00501*
X01314Y00508*
X01317Y00508*
X01323Y0051*
X01328Y00514*
X01329Y00516*
X01494Y00403*
Y00379*
X01557*
Y00438*
X01566*
Y00498*
X01576*
Y00557*
X01586*
Y00624*
X01523*
X01521Y00622*
X01403Y00643*
X01403Y00649*
X02094*
X02096Y00646*
X02103Y00637*
X02112Y00629*
X02117Y00627*
X02114Y00619*
X0211Y00614*
X02108Y00607*
X02107Y006*
X02108Y00592*
X0211Y00586*
X02115Y0058*
X02121Y00575*
X02128Y00572*
X02135Y00571*
X02143Y00572*
X0215Y00575*
X02156Y0058*
X0216Y00586*
X02163Y00592*
X02163Y00594*
X02169Y00594*
X0217Y00593*
X02172Y00586*
X02177Y00581*
X02182Y00577*
X02188Y00575*
X02195Y00574*
X02202Y00575*
X02208Y00578*
X02213Y00582*
X02217Y00588*
X02219Y00594*
X0222Y00601*
X02219Y00607*
X02217Y00615*
X0222Y00619*
X02358*
X02359Y00617*
X02363Y00611*
X02369Y00607*
X02375Y00605*
X02381Y00604*
X02388Y00605*
X02394Y00607*
X024Y00611*
X02404Y00617*
X02406Y00623*
X02407Y00625*
X02414Y00629*
X02423Y00637*
X02455Y00669*
X02525*
X02526Y00667*
X0253Y00661*
X02535Y00657*
X02541Y00654*
X02543Y00654*
X02545Y00647*
X02501Y00592*
X02476*
Y00586*
X02464*
Y00592*
X02459*
X02458Y00598*
X02456Y00604*
X02451Y0061*
X02445Y00615*
X02438Y00618*
X02431Y00619*
X02423Y00618*
X02416Y00615*
X0241Y0061*
X02406Y00604*
X02403Y00598*
X02402Y00592*
X02397*
Y00529*
X024*
X02405Y00523*
X02405Y00521*
Y00492*
X02406Y00485*
X02408Y00479*
X02412Y00473*
X02418Y00469*
X02424Y00467*
X02431Y00466*
X02437Y00467*
X02443Y00469*
X02449Y00473*
X02453Y00479*
X02455Y00485*
X02456Y00492*
Y00521*
X02456Y00523*
X02461Y00529*
X02464*
Y00535*
X02476*
Y0049*
X02543*
Y00495*
X02557*
Y00488*
X02574*
X02591Y00445*
X02589Y0044*
X02588Y00433*
Y00413*
X02589Y00405*
X02592Y00398*
X02597Y00392*
X02603Y00387*
X0261Y00384*
X02618Y00383*
X02637*
X02645Y00384*
X02652Y00387*
X02658Y00392*
X02663Y00398*
X02666Y00405*
X02667Y00413*
Y00433*
X02666Y0044*
X02663Y00447*
X02658Y00454*
X02652Y00458*
X02645Y00461*
X02639Y00462*
X02631Y00483*
X02634Y00488*
X02659*
Y00555*
X02658*
X02654Y00559*
X02654Y00582*
X02658Y00585*
X0266Y00585*
X02666Y00584*
X02673Y00585*
X02679Y00587*
X02683Y0059*
X02834*
X02845Y00591*
X0287Y00587*
X02871Y00584*
X02871Y00581*
X02871Y00581*
X0287Y0058*
X0287Y00579*
X0287Y00579*
X0287Y00578*
X02869Y00562*
X02867Y00529*
X02862Y00497*
X02854Y00465*
X02844Y00434*
X02831Y00403*
X02816Y00374*
X02799Y00346*
X0278Y0032*
X02759Y00295*
X02736Y00272*
X02711Y0025*
X02684Y00231*
X02656Y00214*
X02627Y00199*
X02597Y00187*
X02566Y00176*
X02534Y00169*
X02501Y00164*
X02469Y00161*
X02452Y00161*
X00551*
X00532Y00161*
X00493Y00165*
X00456Y00173*
X00419Y00184*
X00384Y00198*
X0035Y00216*
X00318Y00238*
X00289Y00262*
X00262Y00289*
X00238Y00318*
X00216Y0035*
X00198Y00384*
X00184Y00419*
X00173Y00456*
X00165Y00493*
X00161Y00532*
X00161Y00551*
Y00551*
Y00551*
X00161Y00551*
X0016Y00552*
X0016Y00553*
X0016Y00553*
X0016Y00553*
X00157Y00555*
X0*
Y00626*
X00005Y00628*
X00005Y00628*
X00012Y00615*
X00022Y00603*
X00034Y00593*
X00048Y00586*
X00063Y00581*
X00078Y0058*
X00196*
X00212Y00581*
X00227Y00586*
X0024Y00593*
X00252Y00603*
X00262Y00615*
X00269Y00629*
X00274Y00644*
X00275Y00659*
Y00856*
X00274Y00871*
X00269Y00886*
X00262Y009*
X00252Y00912*
X0024Y00922*
X00227Y00929*
X00212Y00933*
X00196Y00935*
X00078*
X00063Y00933*
X00048Y00929*
X00034Y00922*
X00022Y00912*
X00012Y009*
X00005Y00887*
X00005Y00886*
X0Y00889*
Y01413*
X00157*
X00157*
X0016Y01414*
X0016Y01414*
X0016Y01414*
X0016Y01415*
X00161Y01417*
X00161Y01417*
X00161Y01436*
X00165Y01474*
X00173Y01512*
X00184Y01548*
X00198Y01584*
X00216Y01617*
X00238Y01649*
X00262Y01679*
X00289Y01706*
X00318Y0173*
X0035Y01751*
X00384Y01769*
X00419Y01784*
X00456Y01795*
X00493Y01802*
X00532Y01806*
X00551Y01807*
X02452*
X02469Y01806*
G37*
G36*
X01224Y01352D02*
X01224D01*
X01227Y01346*
X01224Y01341*
X01221Y0133*
X0122Y01318*
X01221Y01307*
X01224Y01296*
X0123Y01285*
X01237Y01276*
X01241Y01273*
X01241Y01266*
X01238Y01265*
X01234Y01265*
X01229*
X01224Y01265*
X01222Y01264*
X0122Y01265*
X01215Y01265*
X0121*
X01204Y01265*
X01202Y01264*
X01201Y01265*
X01195Y01265*
X0119*
X01184Y01265*
X01183Y01264*
X01181Y01265*
X01175Y01265*
X0117*
X01164Y01265*
X01164Y01265*
X0116Y01266*
X01158Y01271*
X01158Y01271*
X01159Y01277*
Y01281*
X01158Y01287*
X01158Y01289*
X01158Y0129*
X01159Y01296*
Y01301*
X01158Y01307*
X01158Y01309*
X01158Y0131*
X01159Y01316*
Y01321*
X01158Y01327*
X01158Y01328*
X01158Y0133*
X01159Y01336*
Y01341*
X01158Y01346*
X01158Y01347*
X0116Y01351*
X01164Y01353*
X01164Y01352*
X0117Y01352*
X01175*
X01181Y01352*
X01183Y01353*
X01184Y01352*
X0119Y01352*
X01195*
X01201Y01352*
X01202Y01353*
X01204Y01352*
X0121Y01352*
X01215*
X0122Y01352*
X01222Y01353*
X01224Y01352*
G37*
G36*
X02667Y01324D02*
X02667Y01324D01*
Y01313*
X02667Y01313*
X02663*
Y01309*
X02657Y01309*
X02651*
Y01311*
X02664Y01324*
X02667*
G37*
G36*
X02138D02*
X02151Y01311D01*
Y01309*
X02145*
X02139Y01309*
Y01313*
X02135*
X02135Y01313*
Y01324*
X02135Y01324*
X02138*
G37*
G36*
X02651Y01289D02*
X02663D01*
X02663Y01289*
Y01286*
X0265Y01273*
X02647*
Y01279*
X02647Y01285*
X02651*
Y01289*
X02651Y01289*
G37*
G36*
X02151Y01285D02*
X02155D01*
X02155Y01279*
Y01273*
X02153*
X02139Y01286*
Y01289*
X02139Y01289*
X02151*
X02151Y01289*
Y01285*
G37*
G36*
X03149Y01318D02*
Y01271D01*
X02956*
X02949Y01274*
X02943Y0128*
X0294Y01287*
Y01291*
X0294Y01295*
X02937Y01303*
X02931Y01309*
X02922Y01313*
X02918Y01313*
X02909*
Y01318*
Y01324*
X02918*
X02922Y01324*
X02931Y01327*
X02937Y01334*
X0294Y01342*
X0294Y01346*
Y0135*
X02943Y01357*
X02949Y01363*
X02956Y01366*
X03149*
Y01318*
G37*
G36*
X02155Y01263D02*
X02155Y01258D01*
X02151*
Y01253*
X02151Y01253*
X02139*
X02139Y01253*
Y01256*
X02153Y01269*
X02155*
Y01263*
G37*
G36*
X02663Y01256D02*
Y01253D01*
X02663Y01253*
X02651*
X02651Y01253*
Y01258*
X02647*
X02647Y01263*
Y01269*
X0265*
X02663Y01256*
G37*
G36*
X03153Y01094D02*
X02945D01*
X02938*
X02925Y01097*
X02913Y01102*
X02902Y01109*
X02897Y01114*
X02892Y01119*
X02883Y01133*
X02877Y01147*
X02874Y01163*
Y01171*
Y01248*
X03153*
Y01094*
G37*
G36*
X016Y01246D02*
X01604D01*
X01608Y0124*
X01608Y01237*
X01608Y01235*
Y01227*
X01609Y01221*
X0161Y01219*
X01618Y01137*
X01618Y01136*
X01618Y01135*
X01619Y01131*
X01622Y01122*
X01628Y01115*
X01632Y01111*
X01634Y0111*
X01641Y01106*
X0164Y01099*
X01638Y01098*
X01632Y01093*
X01628Y01088*
X01608*
Y01133*
X01568*
X01535Y0115*
X01507Y01163*
Y01195*
X01454*
X01451Y012*
X01455Y01209*
X01589Y01254*
X016*
Y01246*
G37*
G36*
X0287Y01256D02*
X02871Y0125D01*
X02871Y0125*
X0287Y01248*
Y01247*
Y01171*
Y01163*
X0287Y01162*
X0287Y01162*
X02873Y01146*
X02873Y01146*
Y01146*
X02874Y01145*
Y00823*
X02873Y00822*
Y00821*
X02873Y00821*
X0287Y00805*
X0287Y00805*
X0287Y00805*
Y00797*
Y0072*
Y0072*
X02871Y00718*
X02871Y00717*
X0287Y00711*
X02845Y00707*
X02834Y00708*
X02682*
X02662Y00728*
X0262Y0077*
X02611Y00777*
X02601Y00783*
X0259Y00786*
X02578Y00787*
X02436*
X02383Y00839*
Y0087*
X02353*
X02303Y0092*
Y00954*
X02302Y00959*
X02303Y00964*
X02302Y00976*
X02298Y00987*
X02293Y00997*
X02286Y01006*
X02256Y01035*
X02256Y01036*
X02252Y01041*
X02247Y01045*
X02246Y01046*
X02205Y01087*
Y0121*
X02598*
Y01141*
X02599Y0113*
X02602Y01119*
X02608Y01108*
X02615Y01099*
X02624Y01092*
X02631Y01088*
Y01082*
X02632Y01076*
X02635Y01069*
X02639Y01064*
X02644Y0106*
X0265Y01057*
X02657Y01057*
X02664Y01057*
X0267Y0106*
X02675Y01064*
X02679Y01069*
X02682Y01076*
X02683Y01082*
Y01088*
X0269Y01092*
X02699Y01099*
X02706Y01108*
X02712Y01119*
X02715Y0113*
X02716Y01141*
Y01259*
X02824*
X02836Y0126*
X02839Y01261*
X0287Y01256*
G37*
G36*
X03153Y0072D02*
X02874D01*
Y00797*
Y00805*
X02877Y0082*
X02883Y00835*
X02892Y00848*
X02897Y00854*
X02902Y00859*
X02913Y00866*
X02925Y00871*
X02938Y00874*
X03153*
Y0072*
G37*
G36*
X01221Y00797D02*
X01221Y00791D01*
X01217Y00789*
X01211Y00785*
X01207Y0078*
X01205Y00774*
X01204Y00767*
X01205Y0076*
X01208Y00754*
X01212Y00749*
X01217Y00745*
X01223Y00742*
X01244Y00737*
X01243Y00736*
Y0073*
X01244Y00724*
X01246Y00721*
X01244Y00717*
X01243Y00712*
X01215Y00713*
X01215Y00713*
X01208Y00716*
X012Y00717*
X01193Y00716*
X01192Y00716*
X01118Y0073*
Y00736*
X01117Y00742*
X01116Y00746*
X01117Y00749*
X01118Y00755*
Y00761*
X01117Y00767*
X01116Y00771*
X01117Y00774*
X01118Y0078*
Y00786*
X01117Y00792*
X01116Y00796*
X01117Y00799*
X01118Y00805*
Y00811*
X01117Y00815*
X01121Y00819*
X01122Y0082*
X01221Y00797*
G37*
G36*
X03149Y00649D02*
Y00602D01*
X02956*
X02949Y00605*
X02943Y0061*
X0294Y00618*
Y00622*
X0294Y00626*
X02937Y00634*
X02931Y0064*
X02922Y00643*
X02918Y00644*
X02909*
Y00649*
Y00654*
X02918*
X02922Y00655*
X02931Y00658*
X02937Y00664*
X0294Y00672*
X0294Y00677*
Y00681*
X02943Y00688*
X02949Y00693*
X02956Y00696*
X03149*
Y00649*
G37*
G36*
X0125Y0066D02*
X01252Y00654D01*
X0125Y00652*
X01246Y00648*
X01244Y00642*
X01243Y00636*
Y0063*
X01244Y00624*
X01246Y00621*
X01244Y00617*
X01243Y00611*
Y00605*
X01244Y00599*
X01246Y00596*
X01244Y00592*
X01244Y00588*
X01238Y00588*
X0123Y00656*
X01234Y00661*
X0125Y0066*
G37*
G36*
X02597Y0062D02*
X02603Y00615D01*
X02603Y00615*
X02602Y00555*
X02557*
Y00547*
X02543*
Y00562*
X02589Y00621*
X02595Y00621*
X02597Y0062*
G37*
G36*
X02874Y00578D02*
X03153D01*
Y00425*
X03149*
Y00157*
Y0*
X0*
Y00157*
Y00551*
X00157*
X00157Y00531*
X00161Y00493*
X00169Y00455*
X0018Y00418*
X00195Y00382*
X00213Y00348*
X00234Y00316*
X00259Y00286*
X00286Y00259*
X00316Y00234*
X00348Y00213*
X00382Y00195*
X00418Y0018*
X00455Y00169*
X00493Y00161*
X00531Y00157*
X00551Y00157*
X00157*
X03149*
X02452*
X02469Y00157*
X02502Y0016*
X02534Y00165*
X02567Y00173*
X02598Y00183*
X02629Y00196*
X02658Y00211*
X02686Y00228*
X02713Y00247*
X02738Y00269*
X02762Y00292*
X02783Y00317*
X02803Y00344*
X0282Y00372*
X02835Y00402*
X02847Y00432*
X02858Y00464*
X02865Y00496*
X02871Y00529*
X02873Y00562*
X02874Y00578*
G37*
%LNmashiro_fs-2*%
%LPC*%
G36*
X0206Y00361D02*
D01*
X02046Y0036*
X02033Y00356*
X0202Y00351*
X02008Y00344*
X01997Y00335*
X01998Y00335*
X01991Y00327*
X01987Y00319*
X01984Y0031*
X01983Y003*
X01983*
Y00265*
Y00234*
X01983*
X01984Y00225*
X01987Y00215*
X01991Y00207*
X01998Y002*
X01997Y002*
X02008Y00191*
X0202Y00183*
X02033Y00178*
X02046Y00175*
X0206Y00174*
Y00174*
X02112*
Y00174*
X02126Y00175*
X02139Y00178*
X02152Y00183*
X02164Y00191*
X02175Y002*
X02175Y002*
X02181Y00207*
X02185Y00215*
X02188Y00224*
X02539*
Y00306*
X02188*
X02188Y0031*
X02185Y00319*
X02181Y00327*
X02175Y00335*
X02175Y00335*
X02164Y00344*
X02152Y00351*
X02139Y00356*
X02126Y0036*
X02112Y00361*
Y00361*
X02066*
X0206Y00361*
G37*
%LNmashiro_fs-3*%
%LPD*%
G54D11*
X02105Y0022D02*
D01*
X02105Y00224*
X02104Y00229*
X02104Y00233*
X02102Y00238*
X02101Y00242*
X02099Y00246*
X02097Y0025*
X02095Y00254*
X02093Y00258*
X0209Y00261*
X02087Y00264*
X02086Y00265*
X0206Y00337D02*
D01*
X02056Y00337*
X02051Y00336*
X02047Y00335*
X02042Y00334*
X02038Y00333*
X02034Y00331*
X0203Y00329*
X02026Y00327*
X02022Y00324*
X02019Y00322*
X02015Y00319*
X02014Y00318*
D01*
X02013Y00317*
X02012Y00315*
X02011Y00314*
X0201Y00312*
X02009Y00311*
X02009Y00309*
X02008Y00307*
X02008Y00306*
X02007Y00304*
X02007Y00302*
X02007Y003*
X02007Y003*
X02014Y00216D02*
D01*
X02018Y00213*
X02021Y00211*
X02025Y00208*
X02029Y00206*
X02033Y00204*
X02037Y00202*
X02041Y002*
X02046Y00199*
X0205Y00198*
X02055Y00198*
X02059Y00197*
X0206Y00197*
X02007Y00234D02*
D01*
X02007Y00232*
X02007Y00231*
X02008Y00229*
X02008Y00227*
X02009Y00226*
X02009Y00224*
X0201Y00222*
X02011Y00221*
X02012Y00219*
X02013Y00218*
X02014Y00217*
X02014Y00216*
X02067Y00311D02*
D01*
X02067Y00306*
X02068Y00302*
X02069Y00297*
X0207Y00293*
X02071Y00289*
X02073Y00285*
X02075Y00281*
X02077Y00277*
X0208Y00273*
X02082Y00269*
X02085Y00266*
X02086Y00265*
X0203Y00303D02*
D01*
X0203Y00298*
X0203Y00294*
X02031Y0029*
X02032Y00285*
X02033Y00281*
X02035Y00277*
X02037Y00273*
X02039Y00269*
X02042Y00265*
X02045Y00262*
X02047Y00259*
X02048Y00258*
X02143Y00231D02*
D01*
X02142Y00235*
X02142Y00239*
X02141Y00243*
X0214Y00246*
X02139Y0025*
X02138Y00254*
X02136Y00257*
X02134Y0026*
X02132Y00263*
X0213Y00266*
X02127Y00269*
X02127Y0027*
X02165Y003D02*
D01*
X02165Y00302*
X02165Y00304*
X02165Y00305*
X02164Y00307*
X02164Y00309*
X02163Y0031*
X02162Y00312*
X02161Y00313*
X0216Y00315*
X02159Y00316*
X02158Y00317*
X02158Y00318*
D01*
X02155Y00321*
X02151Y00324*
X02147Y00326*
X02143Y00329*
X02139Y00331*
X02135Y00332*
X02131Y00334*
X02127Y00335*
X02122Y00336*
X02118Y00337*
X02113Y00337*
X02112Y00337*
X02105Y00318D02*
D01*
X02105Y00314*
X02106Y00309*
X02106Y00305*
X02107Y00301*
X02109Y00296*
X0211Y00292*
X02112Y00288*
X02115Y00284*
X02117Y0028*
X0212Y00277*
X02123Y00274*
X02124Y00273*
X02158Y00216D02*
D01*
X02159Y00218*
X0216Y00219*
X02161Y00221*
X02162Y00222*
X02163Y00224*
X02164Y00225*
X02164Y00227*
X02165Y00229*
X02165Y0023*
X02165Y00232*
X02165Y00234*
Y00234*
X02112Y00197D02*
D01*
X02116Y00198*
X02121Y00198*
X02125Y00199*
X0213Y002*
X02134Y00201*
X02138Y00203*
X02142Y00205*
X02146Y00207*
X0215Y0021*
X02154Y00213*
X02157Y00216*
X02158Y00216*
X02067Y00213D02*
D01*
X02067Y00217*
X02067Y00221*
X02066Y00226*
X02065Y0023*
X02063Y00234*
X02062Y00238*
X0206Y00242*
X02058Y00246*
X02055Y0025*
X02052Y00253*
X02049Y00257*
X02049Y00258*
X02067Y00337D02*
X02112D01*
X02067Y00197D02*
X02112D01*
X02143Y00231D02*
Y00303D01*
X02105Y00213D02*
Y00322D01*
X02067Y00213D02*
Y00322D01*
X0203Y00231D02*
Y00303D01*
X02165Y00234D02*
Y00269D01*
Y003*
X02007Y00234D02*
Y00265D01*
Y003*
X02105Y00311D02*
Y00322D01*
Y00318D02*
Y00322D01*
X02124Y00273D02*
X02127Y0027D01*
X02067Y00311D02*
Y00322D01*
Y00311D02*
Y00322D01*
X0206Y00337D02*
X02067D01*
X02048Y00258D02*
X02049Y00258D01*
X0206Y00197D02*
X02067D01*
G54D12*
X01417Y01318D03*
X01456D03*
X01564Y00413D03*
X01525D03*
X01929Y01318D03*
X01968D03*
X02352Y00836D03*
X02391D03*
X02588Y00521D03*
X02627D03*
X01594Y0059D03*
X01555D03*
X01574Y00472D03*
X01535D03*
X01584Y00531D03*
X01545D03*
G54D13*
X01234Y00988D03*
X01206Y0096D03*
X01127D03*
X01155Y00988D03*
X01049Y0096D03*
X01076Y00988D03*
X0097Y0096D03*
X00998Y00988D03*
G54D14*
X01505Y00974D03*
Y00935D03*
X02007Y01131D03*
Y01171D03*
X01919Y01131D03*
Y01171D03*
X02431Y00561D03*
Y00521D03*
X02509Y00561D03*
Y00521D03*
X0123Y00383D03*
Y00423D03*
X01131Y00383D03*
Y00423D03*
X0121Y01476D03*
Y01515D03*
X01279Y01476D03*
Y01515D03*
X01574Y01062D03*
Y01102D03*
X0183Y01131D03*
Y01171D03*
X02657Y01161D03*
Y01122D03*
X02086Y00866D03*
Y00905D03*
X02244Y00866D03*
Y00905D03*
X01358Y00875D03*
Y00915D03*
G54D15*
X01072Y00833D03*
Y00808D03*
Y00783D03*
Y00758D03*
Y00733D03*
Y00708D03*
Y00683D03*
Y00658D03*
Y00633D03*
Y00608D03*
Y00583D03*
Y00558D03*
Y00533D03*
Y00508D03*
X01289Y00833D03*
Y00808D03*
Y00783D03*
Y00758D03*
Y00733D03*
Y00708D03*
Y00683D03*
Y00658D03*
Y00633D03*
Y00608D03*
Y00583D03*
Y00558D03*
Y00533D03*
Y00508D03*
G54D16*
X01125Y01358D03*
Y01338D03*
Y01318D03*
Y01299D03*
Y01279D03*
Y01259D03*
X01279D03*
Y01279D03*
Y01299D03*
Y01318D03*
Y01338D03*
Y01358D03*
G54D17*
X01153Y01232D03*
X01173D03*
X01192D03*
X01212D03*
X01232D03*
X01251D03*
Y01385D03*
X01232D03*
X01212D03*
X01192D03*
X01173D03*
X01153D03*
G54D18*
X01202Y01309D03*
G54D19*
X01474Y01151D03*
X01399D03*
X01437Y01053D03*
G54D20*
X02139Y01049D03*
X0219Y00998D03*
Y01023D03*
Y01049D03*
X02139Y00998D03*
Y01023D03*
G54D21*
X02629Y00621D03*
X02657Y00649D03*
X02617Y00689D03*
X02603Y00676D03*
X02589Y00662D03*
G54D22*
X02643Y00635D03*
G54D23*
X02623Y00655D03*
G54D24*
X02155Y00744D03*
X02175D03*
X02155Y00673D03*
X02175D03*
G54D25*
X022Y00708D03*
X02129D03*
Y00688D03*
Y00728D03*
X022D03*
Y00688D03*
G54D26*
X02165Y00708D03*
G54D27*
X02407Y00724D03*
X02356Y00673D03*
X02381D03*
X02407D03*
X02356Y00724D03*
X02381D03*
G54D28*
X01594Y01358D03*
Y01338D03*
Y01318D03*
Y01299D03*
Y01279D03*
X01751D03*
Y01299D03*
Y01318D03*
Y01338D03*
Y01358D03*
G54D29*
X01633Y0124D03*
X01653D03*
X01673D03*
X01692D03*
X01712D03*
Y01397D03*
X01692D03*
X01673D03*
X01653D03*
X01633D03*
G54D30*
X01673Y01318D03*
G54D31*
X02244Y0028D02*
X02236Y00288D01*
X02229Y00291*
X02218*
X0221Y00288*
X02203Y0028*
X02199Y00269*
Y00262*
X02203Y0025*
X0221Y00243*
X02218Y00239*
X02229*
X02236Y00243*
X02244Y0025*
X02302Y0028D02*
X02298Y00288D01*
X02287Y00291*
X02276*
X02264Y00288*
X02261Y0028*
X02264Y00273*
X02272Y00269*
X02291Y00265*
X02298Y00262*
X02302Y00254*
Y0025*
X02298Y00243*
X02287Y00239*
X02276*
X02264Y00243*
X02261Y0025*
X02318Y00291D02*
X02333Y00239D01*
X02348Y00291D02*
X02333Y00239D01*
X02348Y00291D02*
X02363Y00239D01*
X02378Y00291D02*
X02363Y00239D01*
X02401Y00247D02*
X02397Y00243D01*
X02401Y00239*
X02404Y00243*
X02401Y00247*
X02466Y0028D02*
X02459Y00288D01*
X02451Y00291*
X0244*
X02433Y00288*
X02425Y0028*
X02422Y00269*
Y00262*
X02425Y0025*
X02433Y00243*
X0244Y00239*
X02451*
X02459Y00243*
X02466Y0025*
X02483Y00291D02*
X02525Y00239D01*
Y00291D02*
X02483Y00239D01*
G54D57*
X02583Y00689D02*
D01*
X02583Y0069*
X02582Y0069*
X02581Y0069*
X0258Y00691*
X0258Y00691*
X02579Y00691*
X02578Y00691*
X02577Y00691*
X02576Y00691*
X02576Y00691*
X02575Y00691*
X02574Y00691*
X02573Y00691*
X02573Y00691*
X02572Y0069*
X02571Y0069*
X01026Y00699D02*
D01*
X01025Y00699*
X01024Y00698*
X01023Y00698*
X01022Y00697*
X01021Y00697*
X01021Y00696*
X0102Y00696*
X01019Y00695*
X01019Y00694*
X01018Y00693*
X01018Y00692*
X01017Y00692*
X01017Y00691*
X01017Y0069*
X01017Y00689*
X01016Y00688*
X01016Y00687*
X01016Y00686*
Y0068D02*
D01*
X01016Y00679*
X01016Y00678*
X01017Y00677*
X01017Y00676*
X01017Y00676*
X01017Y00675*
X01018Y00674*
X01018Y00673*
X01019Y00672*
X01019Y00671*
X0102Y00671*
X01021Y0067*
X01022Y00669*
X01022Y00669*
X01023Y00668*
X01024Y00668*
X01025Y00667*
X01026Y00667*
X01734Y01378D02*
D01*
X01734Y01379*
X01733Y0138*
X01733Y0138*
X01504Y01279D02*
D01*
X01505Y01279*
X01506Y01279*
X01507Y01279*
X01507Y01279*
X01316Y01281D02*
D01*
X01316Y0128*
X01317Y0128*
X01318Y0128*
X01318Y0128*
X01319Y01279*
X0132Y01279*
X01321Y01279*
X01322Y01279*
X01322Y01279*
X01298Y01293D02*
D01*
X01297Y01293*
X01296Y01293*
X01295Y01294*
X01294Y01294*
X01294Y01294*
X01119Y00642D02*
D01*
X0112Y00643*
X01121Y00643*
X01122Y00643*
X01122Y00644*
X01123Y00644*
X01124Y00645*
X01125Y00646*
X01125Y00646*
X01126Y00647*
X01126Y00648*
X01127Y00649*
X01127Y0065*
X01128Y00651*
X01128Y00652*
X01128Y00652*
X01128Y00653*
X01128Y00654*
X01128Y00655*
Y00661D02*
D01*
X01128Y00662*
X01128Y00663*
X01128Y00664*
X01128Y00665*
X01128Y00666*
X01127Y00667*
X01127Y00668*
X01126Y00668*
X01126Y00669*
X01125Y0067*
X01125Y00671*
X01124Y00671*
X01123Y00672*
X01122Y00672*
X01122Y00673*
X01121Y00673*
X0112Y00674*
X01119Y00674*
X01205Y00989D02*
D01*
X01205Y00989*
X01205Y00989*
X01205Y00989*
X01205Y00989*
X01204Y00989*
X01077Y00959D02*
D01*
X01078Y00959*
X01078Y00959*
X01078Y00959*
X01078*
X01078Y00959*
X01048Y00989D02*
D01*
X01047Y00989*
X01047Y00989*
X01047Y00989*
X01047Y00989*
X01047Y00989*
X012Y00689D02*
D01*
X012Y00688*
X01201Y00688*
X01643Y0114D02*
D01*
X01643Y01139*
X01643Y01138*
X01644Y01137*
X01644Y01137*
X01644Y01136*
X01645Y01135*
X01645Y01134*
X01646Y01134*
X01646Y01133*
X01647Y01133*
X01647Y01132*
X01648Y01132*
X01648Y01131*
X01671Y01165D02*
D01*
X01672Y01165*
X01672Y01164*
X01672Y01163*
X01673Y01162*
X01673Y01162*
X01674Y01161*
X01674Y0116*
X01675Y0116*
X01675Y01159*
X01676Y01159*
X01677Y01159*
X00563Y00896D02*
D01*
X00563Y00896*
X00563Y00896*
X00563Y00896*
X00563Y00896*
X00563Y00896*
Y00896*
X00642Y00857D02*
D01*
X00642Y00857*
X00641Y00857*
X00641Y00857*
X00641Y00857*
X00641Y00857*
Y00857*
X00642Y0066D02*
D01*
X00642Y0066*
X00642Y0066*
X00641Y0066*
X00641Y0066*
X00641Y0066*
Y0066*
X0072Y0062D02*
D01*
X0072Y0062*
X0072Y0062*
X0072Y0062*
X0072Y0062*
X0072Y0062*
X0072Y0062*
X01441Y01231D02*
D01*
X0144Y01231*
X0144Y01231*
X01439Y0123*
X01438Y0123*
X01438Y01229*
X01437Y01229*
X01436Y01228*
X01436Y01228*
X01435Y01227*
X01435Y01226*
X01435Y01226*
X01434Y01225*
X01172Y01434D02*
D01*
X01171Y01435*
X01171Y01436*
X01171Y01436*
X0117Y01437*
X01169Y01438*
X01169Y01438*
X02582Y00724D02*
D01*
X02581Y00725*
X0258Y00726*
X0258Y00726*
X02579Y00726*
X02578Y00727*
X02578Y00727*
X02577Y00727*
X02576Y00728*
X02575Y00728*
X02574Y00728*
X02574Y00728*
X02573Y00728*
X02657Y01082D02*
Y01122D01*
X0219Y01023D02*
X02234D01*
X02096D02*
X02139D01*
X02431Y00492D02*
Y00521D01*
Y00561D02*
Y0059D01*
X02549Y00679D02*
X02571Y0069D01*
X02583Y00689D02*
X02603Y00676D01*
X02643Y00635D02*
X02667Y0061D01*
X02381Y00629D02*
Y00673D01*
Y00724D02*
Y00767D01*
X02175Y00665D02*
X02194Y006D01*
X02135D02*
X02154Y00663D01*
X01026Y00667D02*
X01053Y00658D01*
X01016Y0068D02*
Y00686D01*
X00984Y00679D02*
X01015Y00681D01*
X01507Y01357D02*
X01594Y01338D01*
X01322Y01358D02*
X01504D01*
X01751Y01338D02*
Y01358D01*
X01712Y01397D02*
X01733Y0138D01*
X01734Y01378D02*
X01751Y01358D01*
X01692Y01397D02*
X01712D01*
X01663Y01437D02*
X01672Y01409D01*
X01653D02*
X01663Y01437D01*
X01633Y01397D02*
Y01437D01*
X01279Y01515D02*
Y01555D01*
X0121Y01515D02*
Y01555D01*
X01322Y01279D02*
X01504D01*
X01316Y01281D02*
X01316Y01281D01*
X01507Y01279D02*
X01594Y01299D01*
X01298Y01293D02*
X01316Y01281D01*
X01279Y01299D02*
X01294Y01294D01*
X01751Y01279D02*
Y01299D01*
X02007Y01171D02*
Y0121D01*
X01919Y01171D02*
Y0121D01*
X0183Y01171D02*
Y0121D01*
X01692D02*
X01692Y0124D01*
X01692Y0121D02*
X0183Y01131D01*
X00935Y00994D02*
X0097Y0096D01*
X01206D02*
X0125Y00915D01*
X01456Y00935D02*
X01505D01*
X01358Y00915D02*
X01397D01*
X0123Y00767D02*
X01267Y00758D01*
X01289Y00783D02*
Y00758D01*
Y00658D02*
X01348Y00659D01*
X01128Y00655D02*
Y00661D01*
X01151Y00659*
X01289Y00462D02*
Y00501D01*
X0123Y00344D02*
Y00383D01*
X01131Y00344D02*
Y00383D01*
X01313Y00558D02*
X01525Y00413D01*
X01312Y00583D02*
X01535Y00472D01*
X01311Y00608D02*
X01545Y00531D01*
X01312Y00633D02*
X01555Y0059D01*
X01289Y00833D02*
X01358Y00875D01*
X01399Y01151D02*
X01434Y01225D01*
X0125Y01141D02*
X01399Y01151D01*
X01524Y01126D02*
X01574Y01102D01*
X01474Y01151D02*
X01524Y01126D01*
X01505Y00974D02*
X01524Y01126D01*
X01234Y00988D02*
X01437Y01053D01*
X01155Y00988D02*
X01204Y00989D01*
X01205Y00989D02*
X01234Y00988D01*
X01049Y0096D02*
X01077Y00959D01*
X01078Y00959D02*
X01127Y0096D01*
X00998Y00988D02*
X01047Y00989D01*
X01048Y00989D02*
X01076Y00988D01*
X00866Y00905D02*
X01289Y00808D01*
Y00708D02*
X01417Y00688D01*
X01289Y00733D02*
X01397Y00728D01*
X01417Y00688D02*
X01476Y00728D01*
X01496Y00688D02*
X01555Y00728D01*
X01919Y01131D02*
X02007D01*
X0183D02*
X01919D01*
X01673Y0124D02*
X01692D01*
X02139Y01023D02*
X0219D01*
X02381Y00673D02*
Y00724D01*
X02431Y00561D02*
X02509D01*
X02588Y00521D02*
X02627Y00423D01*
Y00521D02*
X02629Y00621D01*
X02509Y00561D02*
X02589Y00662D01*
X02509Y00521D02*
X02588D01*
X01948Y00728D02*
X02129Y00708D01*
X01968Y00688D02*
X02129D01*
X01889D02*
X01948Y00728D01*
X01732Y00688D02*
X01791Y00728D01*
X01811Y00688D02*
X0187Y00728D01*
X01653Y00688D02*
X01712Y00728D01*
X01574Y00688D02*
X01633Y00728D01*
X01201Y00688D02*
D01*
X01218Y00531D01*
X0123Y00423*
X01218Y00531D02*
X01289Y00533D01*
X01093Y00709D02*
X012Y00689D01*
X01201Y00688D02*
D01*
X01289Y00683*
X01131Y00423D02*
X0123D01*
X01092Y00633D02*
X01119Y00642D01*
X01092Y00683D02*
X01119Y00674D01*
X01026Y00699D02*
X01053Y00708D01*
X01648Y01131D02*
X01751Y01062D01*
X01643Y0114D02*
X01643Y0114D01*
X01633Y0124D02*
X01643Y0114D01*
X01653Y01227D02*
X01671Y01165D01*
X01677Y01159D02*
D01*
X0184Y01062*
X00472Y00905D02*
X00563Y00896D01*
X00563Y00896D02*
X01072Y00833D01*
X00551Y00866D02*
X00641Y00857D01*
X00642Y00857D02*
X01072Y00808D01*
X00629Y00826D02*
X01072Y00783D01*
X00708Y00787D02*
X01072Y00758D01*
X00787Y00748D02*
X01072Y00733D01*
X00551Y00669D02*
X00641Y0066D01*
X00642Y0066D02*
X01072Y00608D01*
X0072Y0062D02*
X01072Y00583D01*
X00629Y00629D02*
X0072Y0062D01*
X00708Y0059D02*
X01072Y00558D01*
X00787Y00551D02*
X01072Y00533D01*
X00866Y00511D02*
X01072Y00508D01*
X01574Y01062D02*
X01663D01*
X01441Y01231D02*
X01583Y01279D01*
X0121Y01476D02*
X01231Y01396D01*
X01231Y01396*
X01232Y01396D02*
X01279Y01476D01*
X01169Y01438D02*
X01169Y01438D01*
X01112Y01486D02*
X01169Y01438D01*
X01172Y01434D02*
X01192Y01396D01*
X02657Y01161D02*
Y0122D01*
X02677Y01318D02*
X02893D01*
X01751D02*
X01929D01*
X01968D02*
X02125D01*
X01279D02*
X01417D01*
X01456D02*
X01594D01*
X022Y00688D02*
X02356Y00673D01*
X022Y00708D02*
X02356Y00724D01*
X02582Y00724D02*
X02582Y00724D01*
X02407Y00728D02*
X02573Y00728D01*
X02582Y00724D02*
X02617Y00689D01*
X02659Y00649D02*
X02893D01*
Y01318D02*
X02956D01*
X02155Y01263D02*
X02165D01*
X02145Y0122D02*
Y01253D01*
X02637Y01263D02*
X02647D01*
X02657Y01253D02*
Y0122D01*
X02155Y01279D02*
X02165D01*
X02145Y01289D02*
Y01299D01*
X02637Y01279D02*
X02647D01*
X02657Y01289D02*
Y01299D01*
X02145D02*
Y01309D01*
X02125Y01318D02*
X02135D01*
X02657Y01299D02*
Y01309D01*
X02667Y01318D02*
X02677D01*
X02893Y00649D02*
X02956D01*
G54D58*
X02086Y0083D02*
D01*
X02086Y0083*
X02086Y00829*
X02086Y00828*
X02087Y00827*
X02087Y00827*
X02087Y00826*
X02087Y00825*
X02088Y00824*
X02088Y00824*
X02089Y00823*
X02241Y00823D02*
D01*
X02241Y00824*
X02242Y00824*
X02242Y00825*
X02243Y00826*
X02243Y00827*
X02243Y00827*
X02243Y00828*
X02243Y00829*
X02244Y0083*
X02244Y0083*
Y00975D02*
D01*
X02244Y00976*
X02243Y00976*
X02243Y00977*
X02243Y00978*
X02243Y00979*
X02243Y0098*
X02242Y0098*
X02242Y00981*
X02241Y00982*
X02241Y00982*
X0224Y00983*
X0224Y00983*
X02239Y00984*
X02239Y00984*
X02238Y00985*
X02237Y00985*
X02236Y00986*
X02236Y00986*
X02235Y00986*
X02095D02*
D01*
X02094Y00986*
X02093Y00985*
X02092Y00985*
X02092Y00985*
X02091Y00984*
X0209Y00984*
X0209Y00983*
X02089Y00983*
X02089Y00982*
X02088Y00982*
X02088Y00981*
X02087Y0098*
X02087Y00979*
X02087Y00979*
X02087Y00978*
X02086Y00977*
X02086Y00976*
X02086Y00976*
X02086Y00975*
X01978Y00836D02*
X02121Y0073D01*
X02208D02*
X02352Y00836D01*
X02089Y00823D02*
X02154Y00745D01*
X02086Y0083D02*
D01*
Y00866*
X02244Y0083D02*
X02244D01*
X02176Y00745D02*
X02241Y00823D01*
X02244Y0083D02*
Y00866D01*
Y00905D02*
Y00975D01*
X02235Y00986D02*
X02235D01*
X0219Y00998D02*
X02235Y00986D01*
X02086Y00905D02*
Y00975D01*
X02095Y00986D02*
X02095D01*
X02139Y00998*
X02145Y0105D02*
Y0122D01*
X02165Y01263D02*
X02637D01*
X02165Y01279D02*
X02637D01*
G54D59*
X02627Y00423D03*
X0125Y01141D03*
X01112Y01486D03*
X01978Y00836D03*
X0184Y01062D03*
X01751D03*
X01663D03*
X00866Y00511D03*
X00787Y00551D03*
X00708Y0059D03*
X00629Y00629D03*
X00551Y00669D03*
X00787Y00748D03*
X00708Y00787D03*
X00629Y00826D03*
X00551Y00866D03*
X00866Y00905D03*
X00472D03*
G54D60*
X03051Y01318D03*
Y00649D03*
G54D61*
X02145Y0122D03*
X02657D03*
X02677Y01318D03*
X02125D03*
G54D62*
X00137Y00757D03*
Y0121D03*
G54D63*
X00157Y01811D03*
X01811D03*
X02992D03*
X00157Y00157D03*
X01811D03*
X02992D03*
G54D64*
X03051Y01148D03*
Y01488D03*
Y00479D03*
Y00819D03*
G54D65*
X01181Y00423D03*
X0122Y00531D03*
X012Y00688D03*
X01556Y01353D03*
X01377Y01269D03*
X01338D03*
X01486D03*
X01437D03*
X01397Y0125D03*
X01358D03*
X01318D03*
X01574Y01397D03*
X01535D03*
X01496D03*
X01456D03*
X01417D03*
X01377D03*
X01338D03*
X01299D03*
X02193Y01367D03*
X02165Y01387D03*
X02125D03*
X02086D03*
X02047D03*
X02007D03*
X01968D03*
X01929D03*
X01889D03*
X0185D03*
X01811D03*
X01772Y01385D03*
X02855Y00465D03*
X02863Y00491D03*
X02869Y00814D03*
X02867Y00785D03*
Y00758D03*
X02868Y0073D03*
X02845Y00721D03*
X0282Y0072D03*
X02788Y00719D03*
X02753Y0072D03*
X02722Y00721D03*
X0269Y00723D03*
X02664Y00746D03*
X02638Y00768D03*
X0261Y0079D03*
X02583Y008D03*
X02544Y00798D03*
X02498Y00797D03*
X02459Y00798D03*
X02425Y00816D03*
X02372Y00878D03*
X02343Y00899D03*
X02318Y00919D03*
X02313Y00955D03*
X02308Y00993D03*
X02286Y01021D03*
X02263Y01041D03*
X02236Y01071D03*
X02212Y01135D03*
X02214Y01171D03*
X01811Y0125D03*
X01958Y00639D03*
X01564D03*
X01663Y01437D03*
X02431Y0059D03*
X02372Y012D03*
X01476Y00728D03*
X01496Y00688D03*
X0259Y0118D03*
X0259Y01122D03*
X02605Y01095D03*
X02588Y01151D03*
X02869Y01423D03*
X02864Y0145D03*
X02859Y01478D03*
X02874Y01397D03*
X02076Y01102D03*
X01397Y00728D03*
X02253Y012D03*
X02864Y0058D03*
X02244Y01338D03*
X02234Y01023D03*
X02194Y006D03*
X01751Y01269D03*
X01456Y00935D03*
X02096Y01023D03*
X01486Y00639D03*
X02618Y01368D03*
X01131Y00344D03*
X02598Y01338D03*
X02559D03*
X01413Y00645D03*
X02431Y00492D03*
X0124Y01348D03*
X01397Y00915D03*
X01879Y00777D03*
X0184D03*
X01879Y00639D03*
X0121Y01555D03*
X01633Y00728D03*
X02076Y0125D03*
X02047D03*
X02076Y0122D03*
X02007Y0125D03*
Y0121D03*
X01929Y00826D03*
X01968Y0125D03*
X02037Y01043D03*
X02687Y0058D03*
X02746D03*
X02716D03*
X02671Y00548D03*
X02661Y00574D03*
X02582Y00578D03*
X02381Y00767D03*
X0246Y00659D03*
X02429Y00628D03*
X00935Y00994D03*
X01978Y00885D03*
X01945Y00882D03*
X02017Y00875D03*
X01555Y00728D03*
X01791D03*
X01889Y00688D03*
X0187Y00728D03*
X01811Y00688D03*
X0123Y00767D03*
X01968Y00688D03*
X01929Y0125D03*
X02647Y01387D03*
X02805D03*
X0249Y00659D03*
X01525Y00639D03*
X02293Y012D03*
X02332D03*
X0267Y0052D03*
X00984Y00679D03*
X02549D03*
X02529Y012D03*
X0245D03*
X0249D03*
X02283Y01338D03*
X02568Y012D03*
X01919Y00639D03*
X02844Y01387D03*
X0244Y01338D03*
X02519D03*
X02214Y012D03*
X02401Y01338D03*
X02362D03*
X0248D03*
X02076Y00639D03*
X01998D03*
X02381Y00629D03*
X02102Y00622D03*
X02714Y01101D03*
X0269Y01076D03*
X02037Y00639D03*
X02624Y01077D03*
X02283Y0061D03*
X02253D03*
X02224D03*
X0236Y0059D03*
X02667Y0061D03*
X02765Y01387D03*
X02687D03*
X02726D03*
X01446Y00777D03*
X01318Y01358D03*
X01525Y00777D03*
X02017Y00984D03*
Y00944D03*
Y00905D03*
X01289Y00462D03*
X01279Y01555D03*
X01801Y00777D03*
X01407D03*
X0184Y00639D03*
X01919Y00777D03*
X01486D03*
X01938Y00797D03*
X01929Y00856D03*
X01683Y00777D03*
X01604D03*
X01722D03*
X01643D03*
X01761D03*
X02657Y01082D03*
X01437Y01102D03*
X02725Y01225D03*
X02725Y01195D03*
X02726Y01133D03*
X0275Y0125D03*
X02725Y0125D03*
X02725Y01163D03*
X01151Y00659D03*
X02834Y0058D03*
X02869Y00548D03*
X02868Y00516D03*
X02805Y0058D03*
X02775D03*
X02529Y00648D03*
X01564Y00777D03*
X01604Y00639D03*
X01348Y00659D03*
X0125Y00915D03*
X01368Y00777D03*
X01328D03*
X02322Y01338D03*
X02411Y012D03*
X02777Y01249D03*
X02814Y0125D03*
X02871Y01151D03*
X02844Y0125D03*
X02868Y01235D03*
X02869Y01204D03*
X02868Y01177D03*
X02312Y00609D03*
X02492Y00604D03*
X02385Y0059D03*
X02513Y00624D03*
X02342Y0061D03*
X02135Y006D03*
X01643Y00639D03*
X01761D03*
X01683D03*
X01722D03*
X01801D03*
X01633Y01437D03*
X02017Y01013D03*
X02076Y01181D03*
X02066Y01072D03*
X02076Y01141D03*
X01771Y0125D03*
X0185D03*
X01889D03*
X0183Y0121D03*
X01712Y00728D03*
X01653Y00688D03*
X01574D03*
X01732D03*
X0123Y00344D03*
X01692Y0121D03*
X01732Y01387D03*
X01919Y0121D03*
X02213Y01338D03*
G54D66*
X03051Y01574D03*
Y00393D03*
X02933Y01102D03*
Y00866D03*
X02637Y01692D03*
X02696Y01574D03*
X02637Y01456D03*
Y00984D03*
X02696Y00393D03*
X02519Y01692D03*
Y01456D03*
X02578Y00393D03*
X0246Y01574D03*
X02401Y01456D03*
X0246Y00629D03*
X02401Y00511D03*
X02342Y01574D03*
X02283Y01456D03*
X02342Y01102D03*
Y00393D03*
X02165Y01456D03*
X02106Y01574D03*
X02047Y0122D03*
X01929Y01456D03*
Y00511D03*
X0187Y01574D03*
X01811Y00984D03*
Y00511D03*
X01692Y01456D03*
Y00984D03*
X01751Y00866D03*
X01574Y0122D03*
Y00984D03*
X01456D03*
X01515Y00866D03*
X01456Y00039D03*
X01338Y0122D03*
Y00984D03*
X01397Y00393D03*
X01279Y00866D03*
Y00393D03*
X01161Y01574D03*
Y01102D03*
X01043Y01574D03*
X00984Y0122D03*
X01043Y00393D03*
X00925Y01574D03*
X00866Y01456D03*
Y00984D03*
X00925Y00393D03*
X00807Y01574D03*
X00748Y01456D03*
X00807Y01338D03*
X00748Y00511D03*
X00688Y01574D03*
X00629Y01456D03*
X00688Y01338D03*
X00629Y00984D03*
Y00511D03*
X00511Y01456D03*
Y0122D03*
X0057Y01102D03*
X00511Y00984D03*
Y00511D03*
X0057Y00393D03*
X00452Y01574D03*
X00334D03*
Y01338D03*
Y01102D03*
Y00393D03*
X00137Y0121D03*
Y01171D03*
X00177Y0121D03*
Y01171D03*
X00098Y0121D03*
Y01171D03*
Y01131D03*
X00177D03*
X00137D03*
X00098Y01092D03*
X00177D03*
X00137D03*
X00098Y0125D03*
X00177D03*
X00137D03*
X00098Y01289D03*
X00177D03*
X00137D03*
X00098Y01328D03*
X00177D03*
X00137D03*
X00216Y0121D03*
Y01289D03*
Y0125D03*
Y01171D03*
Y01131D03*
X00059Y01092D03*
Y01171D03*
Y01131D03*
Y0125D03*
Y01328D03*
Y01289D03*
Y00836D03*
Y00875D03*
Y00797D03*
Y00679D03*
Y00718D03*
Y00639D03*
X00216Y00679D03*
Y00718D03*
Y00797D03*
Y00836D03*
Y00757D03*
X00137Y00875D03*
X00177D03*
X00098D03*
X00137Y00836D03*
X00177D03*
X00098D03*
X00137Y00797D03*
X00177D03*
X00098D03*
X00137Y00639D03*
X00177D03*
X00098D03*
X00137Y00679D03*
X00177D03*
X00098D03*
Y00718D03*
Y00757D03*
X00177Y00718D03*
Y00757D03*
X00137Y00718D03*
Y00757D03*
X02814Y01574D03*
X02755Y01456D03*
Y0122D03*
X02814Y01102D03*
X02755Y00984D03*
X02814Y00866D03*
X02755Y00748D03*
Y00511D03*
X02814Y00393D03*
X02696Y00866D03*
X02637Y00275D03*
Y00039D03*
X02578Y01574D03*
Y01102D03*
X02519Y00984D03*
X02578Y00866D03*
X02401Y01692D03*
X0246Y01102D03*
X02401Y00984D03*
X0246Y00866D03*
Y00393D03*
X02283Y01692D03*
Y00511D03*
X02165Y01692D03*
X02224Y01574D03*
Y01102D03*
X02165Y00511D03*
X02224Y00393D03*
X02165Y00039D03*
X02047Y01692D03*
Y01456D03*
Y00511D03*
X02106Y00393D03*
X01988Y01574D03*
X01929Y00984D03*
X01988Y00393D03*
X01811Y01456D03*
X0187Y00866D03*
Y00393D03*
X01751Y01574D03*
X01692Y00511D03*
X01751Y00393D03*
X01574Y01692D03*
X01633Y01574D03*
X01574Y01456D03*
X01633Y00866D03*
Y00393D03*
X01574Y00275D03*
X01456Y01692D03*
X01515Y01574D03*
X01456Y01456D03*
Y00275D03*
X01338Y01692D03*
X01397Y01574D03*
X01338Y01456D03*
Y00275D03*
X0122Y01692D03*
Y00275D03*
X01102Y01692D03*
Y0122D03*
Y00275D03*
X00984Y01692D03*
Y01456D03*
X01043Y01338D03*
Y01102D03*
X00984Y00275D03*
Y00039D03*
X00866Y01692D03*
X00925Y01338D03*
X00866Y0122D03*
X00925Y01102D03*
X00866Y00275D03*
X00748Y01692D03*
Y0122D03*
X00807Y01102D03*
X00748Y00984D03*
X00807Y00393D03*
X00748Y00275D03*
X00629Y01692D03*
Y0122D03*
X00688Y01102D03*
X00629Y00748D03*
X00688Y00393D03*
X00629Y00275D03*
X00511Y01692D03*
X0057Y01574D03*
Y01338D03*
X00511Y00748D03*
Y00275D03*
Y00039D03*
X00393Y01692D03*
Y01456D03*
X00452Y01338D03*
X00393Y0122D03*
X00452Y01102D03*
X00393Y00984D03*
Y00748D03*
X00452Y00629D03*
X00393Y00511D03*
X00452Y00393D03*
X00393Y00275D03*
X00275Y01456D03*
Y0122D03*
Y00984D03*
X00334Y00866D03*
Y00629D03*
X00275Y00511D03*
X00216Y01574D03*
X00157Y00984D03*
X00216Y00393D03*
X00039Y00984D03*
X00157Y01889D03*
X00235Y01797D03*
Y01824D03*
X00157Y01732D03*
X00079Y01824D03*
Y01797D03*
X00246Y01916D03*
X00249Y01844D03*
X00225Y0185D03*
X00232Y01874D03*
Y01747D03*
X00225Y01771D03*
X00249Y01777D03*
X00246Y01705D03*
X00068Y01916D03*
X00082Y01874D03*
X00089Y0185D03*
X00064Y01844D03*
Y01777D03*
X00089Y01771D03*
X00082Y01747D03*
X00068Y01705D03*
X00184Y01885D03*
Y01737D03*
X0013Y01885D03*
Y01737D03*
X00293Y01834D03*
Y01787D03*
X00204Y0194D03*
X00174Y01907D03*
X00208Y01871D03*
Y0175D03*
X00204Y01681D03*
X00174Y01714D03*
X0011Y0194D03*
X0014Y01907D03*
X00106Y01871D03*
Y0175D03*
X0011Y01681D03*
X0014Y01714D03*
X00021Y01834D03*
Y01787D03*
X01811Y01889D03*
X01888Y01797D03*
Y01824D03*
X01811Y01732D03*
X01733Y01824D03*
Y01797D03*
X01899Y01916D03*
X01903Y01844D03*
X01879Y0185D03*
X01886Y01874D03*
Y01747D03*
X01879Y01771D03*
X01903Y01777D03*
X01899Y01705D03*
X01722Y01916D03*
X01735Y01874D03*
X01742Y0185D03*
X01718Y01844D03*
Y01777D03*
X01742Y01771D03*
X01735Y01747D03*
X01722Y01705D03*
X01837Y01885D03*
Y01737D03*
X01784Y01885D03*
Y01737D03*
X01946Y01834D03*
Y01787D03*
X01858Y0194D03*
X01828Y01907D03*
X01861Y01871D03*
Y0175D03*
X01858Y01681D03*
X01828Y01714D03*
X01763Y0194D03*
X01793Y01907D03*
X0176Y01871D03*
Y0175D03*
X01763Y01681D03*
X01793Y01714D03*
X01675Y01834D03*
Y01787D03*
X02992Y01889D03*
X03069Y01797D03*
Y01824D03*
X02992Y01732D03*
X02914Y01824D03*
Y01797D03*
X0308Y01916D03*
X03084Y01844D03*
X0306Y0185D03*
X03067Y01874D03*
Y01747D03*
X0306Y01771D03*
X03084Y01777D03*
X0308Y01705D03*
X02903Y01916D03*
X02916Y01874D03*
X02923Y0185D03*
X02899Y01844D03*
Y01777D03*
X02923Y01771D03*
X02916Y01747D03*
X02903Y01705D03*
X03019Y01885D03*
Y01737D03*
X02965Y01885D03*
Y01737D03*
X03127Y01834D03*
Y01787D03*
X03039Y0194D03*
X03009Y01907D03*
X03042Y01871D03*
Y0175D03*
X03039Y01681D03*
X03009Y01714D03*
X02945Y0194D03*
X02975Y01907D03*
X02941Y01871D03*
Y0175D03*
X02945Y01681D03*
X02975Y01714D03*
X02856Y01834D03*
Y01787D03*
X00157Y00236D03*
X00235Y00143D03*
Y00171D03*
X00157Y00078D03*
X00079Y00171D03*
Y00143D03*
X00246Y00263D03*
X00249Y00191D03*
X00225Y00196D03*
X00232Y0022D03*
Y00094D03*
X00225Y00118D03*
X00249Y00123D03*
X00246Y00051D03*
X00068Y00263D03*
X00082Y0022D03*
X00089Y00196D03*
X00064Y00191D03*
Y00123D03*
X00089Y00118D03*
X00082Y00094D03*
X00068Y00051D03*
X00184Y00231D03*
Y00083D03*
X0013Y00231D03*
Y00083D03*
X00293Y00181D03*
Y00133D03*
X00204Y00286D03*
X00174Y00254D03*
X00208Y00217D03*
Y00097D03*
X00204Y00027D03*
X00174Y0006D03*
X0011Y00286D03*
X0014Y00254D03*
X00106Y00217D03*
Y00097D03*
X0011Y00027D03*
X0014Y0006D03*
X00021Y00181D03*
Y00133D03*
X01811Y00236D03*
X01888Y00143D03*
Y00171D03*
X01811Y00078D03*
X01733Y00171D03*
Y00143D03*
X01899Y00263D03*
X01903Y00191D03*
X01879Y00196D03*
X01886Y0022D03*
Y00094D03*
X01879Y00118D03*
X01903Y00123D03*
X01899Y00051D03*
X01722Y00263D03*
X01735Y0022D03*
X01742Y00196D03*
X01718Y00191D03*
Y00123D03*
X01742Y00118D03*
X01735Y00094D03*
X01722Y00051D03*
X01837Y00231D03*
Y00083D03*
X01784Y00231D03*
Y00083D03*
X01946Y00181D03*
Y00133D03*
X01858Y00286D03*
X01828Y00254D03*
X01861Y00217D03*
Y00097D03*
X01858Y00027D03*
X01828Y0006D03*
X01763Y00286D03*
X01793Y00254D03*
X0176Y00217D03*
Y00097D03*
X01763Y00027D03*
X01793Y0006D03*
X01675Y00181D03*
Y00133D03*
X02992Y00236D03*
X03069Y00143D03*
Y00171D03*
X02992Y00078D03*
X02914Y00171D03*
Y00143D03*
X0308Y00263D03*
X03084Y00191D03*
X0306Y00196D03*
X03067Y0022D03*
Y00094D03*
X0306Y00118D03*
X03084Y00123D03*
X0308Y00051D03*
X02903Y00263D03*
X02916Y0022D03*
X02923Y00196D03*
X02899Y00191D03*
Y00123D03*
X02923Y00118D03*
X02916Y00094D03*
X02903Y00051D03*
X03019Y00231D03*
Y00083D03*
X02965Y00231D03*
Y00083D03*
X03127Y00181D03*
Y00133D03*
X03039Y00286D03*
X03009Y00254D03*
X03042Y00217D03*
Y00097D03*
X03039Y00027D03*
X03009Y0006D03*
X02945Y00286D03*
X02975Y00254D03*
X02941Y00217D03*
Y00097D03*
X02945Y00027D03*
X02975Y0006D03*
X02856Y00181D03*
Y00133D03*
X02917Y01405D03*
X02931Y01429D03*
X02903D03*
X02972Y01405D03*
X02986Y01429D03*
X02958D03*
X02944Y01405D03*
X03D03*
X03013Y01429D03*
X03055Y01405D03*
X03068Y01429D03*
X03041D03*
X03027Y01405D03*
X03082D03*
X03096Y01429D03*
X03137Y01405D03*
X03124Y01429D03*
X0311Y01405D03*
X02889D03*
X02917Y01232D03*
X02931Y01208D03*
X02903D03*
X02972Y01232D03*
X02986Y01208D03*
X02958D03*
X02944Y01232D03*
X03D03*
X03013Y01208D03*
X03055Y01232D03*
X03068Y01208D03*
X03041D03*
X03027Y01232D03*
X03082D03*
X03096Y01208D03*
X03137Y01232D03*
X03124Y01208D03*
X0311Y01232D03*
X02889D03*
X02917Y00736D03*
X02931Y00759D03*
X02903D03*
X02972Y00736D03*
X02986Y00759D03*
X02958D03*
X02944Y00736D03*
X03D03*
X03013Y00759D03*
X03055Y00736D03*
X03068Y00759D03*
X03041D03*
X03027Y00736D03*
X03082D03*
X03096Y00759D03*
X03137Y00736D03*
X03124Y00759D03*
X0311Y00736D03*
X02889D03*
X02917Y00562D03*
X02931Y00539D03*
X02903D03*
X02972Y00562D03*
X02986Y00539D03*
X02958D03*
X02944Y00562D03*
X03D03*
X03013Y00539D03*
X03055Y00562D03*
X03068Y00539D03*
X03041D03*
X03027Y00562D03*
X03082D03*
X03096Y00539D03*
X03137Y00562D03*
X03124Y00539D03*
X0311Y00562D03*
X02889D03*
G54D67*
X02775Y01732D03*
X02677Y01791D03*
X02755Y0183D03*
X0309Y01614D03*
X02992Y01594D03*
X02834Y01653D03*
X02893Y01574D03*
X00393Y0183D03*
X00511Y0187D03*
X00433Y01909D03*
X00826Y0187D03*
X00748Y01909D03*
X00669Y0187D03*
X00984D03*
X01062Y01909D03*
X01141Y0187D03*
X01299D03*
X01377Y01909D03*
X01456Y0187D03*
X01535Y01909D03*
X02086D03*
X02007Y0187D03*
X02165D03*
X02322D03*
X02401Y01909D03*
X0248Y0187D03*
X02716Y01909D03*
X02814D03*
X02637Y0187D03*
X00334Y01909D03*
X00905D03*
X0059D03*
X0122D03*
X01614Y0187D03*
X02244Y01909D03*
X02559D03*
X00059Y01476D03*
Y01633D03*
X00118Y01555D03*
X02559Y00059D03*
X00059Y00492D03*
X00118Y00413D03*
X00059Y00334D03*
X02992Y00374D03*
X0248Y00098D03*
X02401Y00059D03*
X02322Y00098D03*
X02244Y00059D03*
X02165Y00098D03*
X02007D03*
X02086Y00059D03*
X01535D03*
X01614Y00098D03*
X01456D03*
X01377Y00059D03*
X01299Y00098D03*
X0122Y00059D03*
X01141Y00098D03*
X01062Y00059D03*
X0059D03*
X00669Y00098D03*
X00748Y00059D03*
X00826Y00098D03*
X00905Y00059D03*
X00984Y00098D03*
X00433Y00059D03*
X00511Y00098D03*
X00334Y00059D03*
X00393Y00137D03*
X02637Y00098D03*
X02755Y00137D03*
X02814Y00059D03*
X02716D03*
X02677Y00177D03*
X02775Y00236D03*
X02834Y00314D03*
X02893Y00393D03*
X0309Y00354D03*
M02*