%FSTAX23Y23*%
%MOIN*%
%SFA1B1*%

%IPPOS*%
%AMD62*
4,1,8,0.059000,0.157500,-0.059000,0.157500,-0.118100,0.098400,-0.118100,-0.098400,-0.059000,-0.157500,0.059000,-0.157500,0.118100,-0.098400,0.118100,0.098400,0.059000,0.157500,0.0*
1,1,0.118120,0.059000,0.098400*
1,1,0.118120,-0.059000,0.098400*
1,1,0.118120,-0.059000,-0.098400*
1,1,0.118120,0.059000,-0.098400*
%
G04~CAMADD=62~8~0.0~0.0~2362.2~3149.6~590.6~0.0~15~0.0~0.0~0.0~0.0~0~0.0~0.0~0.0~0.0~0~0.0~0.0~0.0~0.0~2362.2~3149.6*
%ADD62D62*%
%ADD63C,0.314960*%
%ADD64R,0.196850X0.098430*%
%ADD65C,0.017720*%
%ADD66C,0.019680*%
%ADD67C,0.078740*%
%LNmashiro_fs-1*%
%LPD*%
G36*
X03149Y0D02*
X0D01*
Y00626*
X00005Y00628*
X00005Y00628*
X00012Y00615*
X00022Y00603*
X00034Y00593*
X00048Y00586*
X00063Y00581*
X00078Y0058*
X00196*
X00212Y00581*
X00227Y00586*
X0024Y00593*
X00252Y00603*
X00262Y00615*
X00269Y00629*
X00274Y00644*
X00275Y00659*
Y00856*
X00274Y00871*
X00269Y00886*
X00262Y009*
X00252Y00912*
X0024Y00922*
X00227Y00929*
X00212Y00933*
X00196Y00935*
X00078*
X00063Y00933*
X00048Y00929*
X00034Y00922*
X00022Y00912*
X00012Y009*
X00005Y00887*
X00005Y00886*
X0Y00889*
Y01968*
X03149*
Y0*
G37*
%LNmashiro_fs-2*%
%LPC*%
G36*
X01663Y01465D02*
X01655Y01464D01*
X01648Y01461*
X01648Y01461*
X01648Y01461*
X01641Y01464*
X01633Y01465*
X01626Y01464*
X01619Y01461*
X01613Y01457*
X01608Y01451*
X01606Y01444*
X01605Y01437*
X01606Y01429*
X01608Y01422*
X01613Y01416*
X01619Y01412*
X01626Y01409*
X01633Y01408*
X01641Y01409*
X01648Y01412*
X01648Y01412*
X01648Y01412*
X01655Y01409*
X01663Y01408*
X0167Y01409*
X01677Y01412*
X01683Y01416*
X01688Y01422*
X01691Y01429*
X01692Y01437*
X01691Y01444*
X01688Y01451*
X01683Y01457*
X01677Y01461*
X0167Y01464*
X01663Y01465*
G37*
G36*
X01692Y01239D02*
X01685Y01238D01*
X01678Y01235*
X01672Y0123*
X01667Y01225*
X01665Y01218*
X01664Y0121*
X01665Y01203*
X01667Y01196*
X01672Y0119*
X01678Y01185*
X01685Y01182*
X01692Y01181*
X017Y01182*
X01707Y01185*
X01713Y0119*
X01717Y01196*
X0172Y01203*
X01721Y0121*
X0172Y01218*
X01717Y01225*
X01713Y0123*
X01707Y01235*
X017Y01238*
X01692Y01239*
G37*
G36*
X00935Y01022D02*
X00927Y01021D01*
X0092Y01019*
X00914Y01014*
X0091Y01008*
X00907Y01001*
X00906Y00994*
X00907Y00986*
X0091Y00979*
X00914Y00973*
X0092Y00969*
X00927Y00966*
X00935Y00965*
X00942Y00966*
X00949Y00969*
X00955Y00973*
X00959Y00979*
X00962Y00986*
X00963Y00994*
X00962Y01001*
X00959Y01008*
X00955Y01014*
X00949Y01019*
X00942Y01021*
X00935Y01022*
G37*
G36*
X01397Y00757D02*
X0139Y00756D01*
X01383Y00753*
X01377Y00748*
X01372Y00742*
X01369Y00735*
X01368Y00728*
X01369Y0072*
X01372Y00713*
X01377Y00707*
X01383Y00703*
X0139Y007*
X01397Y00699*
X01405Y007*
X01412Y00703*
X01417Y00707*
X01422Y00713*
X01425Y0072*
X01426Y00728*
X01425Y00735*
X01422Y00742*
X01417Y00748*
X01412Y00753*
X01405Y00756*
X01397Y00757*
G37*
G36*
X01968Y00717D02*
X01961Y00716D01*
X01954Y00713*
X01948Y00709*
X01943Y00703*
X0194Y00696*
X01939Y00688*
X0194Y00681*
X01943Y00674*
X01948Y00668*
X01954Y00664*
X01961Y00661*
X01968Y0066*
X01975Y00661*
X01982Y00664*
X01988Y00668*
X01993Y00674*
X01996Y00681*
X01997Y00688*
X01996Y00696*
X01993Y00703*
X01988Y00709*
X01982Y00713*
X01975Y00716*
X01968Y00717*
G37*
G36*
X0187Y00757D02*
X01862Y00756D01*
X01855Y00753*
X01849Y00748*
X01845Y00742*
X01842Y00735*
X01841Y00728*
X01842Y0072*
X01845Y00713*
X01849Y00707*
X01855Y00703*
X01862Y007*
X01863Y00699*
X01861Y00696*
X0186Y00688*
X01861Y00681*
X01864Y00674*
X01869Y00668*
X01875Y00664*
X01882Y00661*
X01889Y0066*
X01897Y00661*
X01904Y00664*
X0191Y00668*
X01914Y00674*
X01917Y00681*
X01918Y00688*
X01917Y00696*
X01914Y00703*
X0191Y00709*
X01904Y00713*
X01901Y00714*
X01897Y0072*
X01898Y00728*
X01897Y00735*
X01895Y00742*
X0189Y00748*
X01884Y00753*
X01877Y00756*
X0187Y00757*
G37*
G36*
X01791D02*
X01783Y00756D01*
X01776Y00753*
X0177Y00748*
X01766Y00742*
X01763Y00735*
X01762Y00728*
X01763Y0072*
X01766Y00713*
X0177Y00707*
X01776Y00703*
X01783Y007*
X01783Y00696*
X01783Y00696*
X01782Y00688*
X01783Y00681*
X01786Y00674*
X0179Y00668*
X01796Y00664*
X01803Y00661*
X01811Y0066*
X01818Y00661*
X01825Y00664*
X01831Y00668*
X01835Y00674*
X01838Y00681*
X01839Y00688*
X01838Y00696*
X01835Y00703*
X01831Y00709*
X01825Y00713*
X01823Y00714*
X01819Y0072*
X0182Y00728*
X01819Y00735*
X01816Y00742*
X01811Y00748*
X01805Y00753*
X01798Y00756*
X01791Y00757*
G37*
G36*
X01712D02*
X01705Y00756D01*
X01698Y00753*
X01692Y00748*
X01687Y00742*
X01684Y00735*
X01683Y00728*
X01684Y0072*
X01687Y00713*
X01692Y00707*
X01698Y00703*
X017Y00702*
X01704Y00696*
X01703Y00688*
X01704Y00681*
X01707Y00674*
X01711Y00668*
X01717Y00664*
X01724Y00661*
X01732Y0066*
X01739Y00661*
X01746Y00664*
X01752Y00668*
X01757Y00674*
X0176Y00681*
X01761Y00688*
X0176Y00696*
X01757Y00703*
X01752Y00709*
X01746Y00713*
X01744Y00714*
X0174Y0072*
X01741Y00728*
X0174Y00735*
X01737Y00742*
X01732Y00748*
X01726Y00753*
X0172Y00756*
X01712Y00757*
G37*
G36*
X01633D02*
X01626Y00756D01*
X01619Y00753*
X01613Y00748*
X01608Y00742*
X01606Y00735*
X01605Y00728*
X01606Y0072*
X01608Y00713*
X01613Y00707*
X01619Y00703*
X01626Y007*
X01625Y00696*
X01625Y00696*
X01624Y00688*
X01625Y00681*
X01628Y00674*
X01633Y00668*
X01639Y00664*
X01646Y00661*
X01653Y0066*
X01661Y00661*
X01667Y00664*
X01673Y00668*
X01678Y00674*
X01681Y00681*
X01682Y00688*
X01681Y00696*
X01678Y00703*
X01673Y00709*
X01667Y00713*
X01665Y00714*
X01661Y0072*
X01662Y00728*
X01661Y00735*
X01658Y00742*
X01654Y00748*
X01648Y00753*
X01641Y00756*
X01633Y00757*
G37*
G36*
X01555D02*
X01547Y00756D01*
X0154Y00753*
X01534Y00748*
X0153Y00742*
X01527Y00735*
X01526Y00728*
X01527Y0072*
X0153Y00713*
X01534Y00707*
X0154Y00703*
X01547Y007*
X01547Y00696*
X01547Y00696*
X01546Y00688*
X01547Y00681*
X01549Y00674*
X01554Y00668*
X0156Y00664*
X01567Y00661*
X01574Y0066*
X01582Y00661*
X01589Y00664*
X01595Y00668*
X01599Y00674*
X01602Y00681*
X01603Y00688*
X01602Y00696*
X01599Y00703*
X01595Y00709*
X01589Y00713*
X01586Y00714*
X01582Y0072*
X01583Y00728*
X01582Y00735*
X0158Y00742*
X01575Y00748*
X01569Y00753*
X01562Y00756*
X01555Y00757*
G37*
G36*
X01476D02*
X01468Y00756D01*
X01461Y00753*
X01456Y00748*
X01451Y00742*
X01448Y00735*
X01447Y00728*
X01448Y0072*
X01451Y00713*
X01456Y00707*
X01461Y00703*
X01468Y007*
X01468Y00696*
X01468Y00696*
X01467Y00688*
X01468Y00681*
X01471Y00674*
X01475Y00668*
X01481Y00664*
X01488Y00661*
X01496Y0066*
X01503Y00661*
X0151Y00664*
X01516Y00668*
X01521Y00674*
X01523Y00681*
X01524Y00688*
X01523Y00696*
X01521Y00703*
X01516Y00709*
X0151Y00713*
X01508Y00714*
X01504Y0072*
X01505Y00728*
X01504Y00735*
X01501Y00742*
X01496Y00748*
X0149Y00753*
X01483Y00756*
X01476Y00757*
G37*
G36*
X012Y00717D02*
X01193Y00716D01*
X01186Y00713*
X0118Y00709*
X01175Y00703*
X01172Y00696*
X01172Y00688*
X01172Y00681*
X01175Y00674*
X0118Y00668*
X01186Y00664*
X01193Y00661*
X012Y0066*
X01208Y00661*
X01215Y00664*
X01221Y00668*
X01225Y00674*
X01228Y00681*
X01229Y00688*
X01228Y00696*
X01225Y00703*
X01221Y00709*
X01215Y00713*
X01208Y00716*
X012Y00717*
G37*
G36*
X00984Y00707D02*
X00976Y00706D01*
X00969Y00704*
X00963Y00699*
X00959Y00693*
X00956Y00686*
X00955Y00679*
X00956Y00671*
X00959Y00664*
X00963Y00658*
X00969Y00654*
X00976Y00651*
X00984Y0065*
X00991Y00651*
X00998Y00654*
X01004Y00658*
X01009Y00664*
X01012Y00671*
X01013Y00679*
X01012Y00686*
X01009Y00693*
X01004Y00699*
X00998Y00704*
X00991Y00706*
X00984Y00707*
G37*
G36*
X02135Y00629D02*
X02128Y00628D01*
X02121Y00625*
X02115Y0062*
X0211Y00614*
X02108Y00607*
X02107Y006*
X02108Y00592*
X0211Y00586*
X02115Y0058*
X02121Y00575*
X02128Y00572*
X02135Y00571*
X02143Y00572*
X0215Y00575*
X02156Y0058*
X0216Y00586*
X02163Y00592*
X02164Y006*
X02163Y00607*
X0216Y00614*
X02156Y0062*
X0215Y00625*
X02143Y00628*
X02135Y00629*
G37*
G36*
X02431Y00619D02*
X02423Y00618D01*
X02416Y00615*
X0241Y0061*
X02406Y00604*
X02403Y00598*
X02402Y0059*
X02403Y00583*
X02406Y00576*
X0241Y0057*
X02416Y00565*
X02423Y00562*
X02431Y00561*
X02438Y00562*
X02445Y00565*
X02451Y0057*
X02456Y00576*
X02458Y00583*
X02459Y0059*
X02458Y00598*
X02456Y00604*
X02451Y0061*
X02445Y00615*
X02438Y00618*
X02431Y00619*
G37*
G36*
X0122Y0056D02*
X01213Y00559D01*
X01206Y00556*
X012Y00551*
X01195Y00545*
X01192Y00538*
X01191Y00531*
X01192Y00524*
X01195Y00517*
X012Y00511*
X01206Y00506*
X01213Y00503*
X0122Y00502*
X01227Y00503*
X01234Y00506*
X0124Y00511*
X01245Y00517*
X01248Y00524*
X01249Y00531*
X01248Y00538*
X01245Y00545*
X0124Y00551*
X01234Y00556*
X01227Y00559*
X0122Y0056*
G37*
G36*
X01181Y00452D02*
X01173Y00451D01*
X01166Y00448*
X0116Y00443*
X01156Y00437*
X01153Y0043*
X01152Y00423*
X01153Y00415*
X01156Y00408*
X0116Y00402*
X01166Y00398*
X01173Y00395*
X01181Y00394*
X01188Y00395*
X01195Y00398*
X01201Y00402*
X01206Y00408*
X01208Y00415*
X01209Y00423*
X01208Y0043*
X01206Y00437*
X01201Y00443*
X01195Y00448*
X01188Y00451*
X01181Y00452*
G37*
%LNmashiro_fs-3*%
%LPD*%
G54D62*
X00137Y0121D03*
G54D63*
X00157Y01811D03*
X01811D03*
X02992D03*
X00157Y00157D03*
X01811D03*
X02992D03*
G54D64*
X03051Y01148D03*
Y01488D03*
Y00479D03*
Y00819D03*
G54D65*
X01556Y01353D03*
X01377Y01269D03*
X01338D03*
X01486D03*
X01437D03*
X01397Y0125D03*
X01358D03*
X01318D03*
X01574Y01397D03*
X01535D03*
X01496D03*
X01456D03*
X01417D03*
X01377D03*
X01338D03*
X01299D03*
X02193Y01367D03*
X02165Y01387D03*
X02125D03*
X02086D03*
X02047D03*
X02007D03*
X01968D03*
X01929D03*
X01889D03*
X0185D03*
X01811D03*
X01772Y01385D03*
X02855Y00465D03*
X02863Y00491D03*
X02869Y00814D03*
X02867Y00785D03*
Y00758D03*
X02868Y0073D03*
X02845Y00721D03*
X0282Y0072D03*
X02788Y00719D03*
X02753Y0072D03*
X02722Y00721D03*
X0269Y00723D03*
X02664Y00746D03*
X02638Y00768D03*
X0261Y0079D03*
X02583Y008D03*
X02544Y00798D03*
X02498Y00797D03*
X02459Y00798D03*
X02425Y00816D03*
X02372Y00878D03*
X02343Y00899D03*
X02318Y00919D03*
X02313Y00955D03*
X02308Y00993D03*
X02286Y01021D03*
X02263Y01041D03*
X02236Y01071D03*
X02212Y01135D03*
X02214Y01171D03*
X01811Y0125D03*
X01958Y00639D03*
X01564D03*
X02372Y012D03*
X0259Y0118D03*
X0259Y01122D03*
X02605Y01095D03*
X02588Y01151D03*
X02869Y01423D03*
X02864Y0145D03*
X02859Y01478D03*
X02874Y01397D03*
X02076Y01102D03*
X02253Y012D03*
X02864Y0058D03*
X02244Y01338D03*
X02234Y01023D03*
X02194Y006D03*
X01751Y01269D03*
X01456Y00935D03*
X02096Y01023D03*
X01486Y00639D03*
X02618Y01368D03*
X01131Y00344D03*
X02598Y01338D03*
X02559D03*
X01413Y00645D03*
X02431Y00492D03*
X0124Y01348D03*
X01397Y00915D03*
X01879Y00777D03*
X0184D03*
X01879Y00639D03*
X0121Y01555D03*
X02076Y0125D03*
X02047D03*
X02076Y0122D03*
X02007Y0125D03*
Y0121D03*
X01929Y00826D03*
X01968Y0125D03*
X02037Y01043D03*
X02687Y0058D03*
X02746D03*
X02716D03*
X02671Y00548D03*
X02661Y00574D03*
X02582Y00578D03*
X02381Y00767D03*
X0246Y00659D03*
X02429Y00628D03*
X01978Y00885D03*
X01945Y00882D03*
X02017Y00875D03*
X0123Y00767D03*
X01929Y0125D03*
X02647Y01387D03*
X02805D03*
X0249Y00659D03*
X01525Y00639D03*
X02293Y012D03*
X02332D03*
X0267Y0052D03*
X02549Y00679D03*
X02529Y012D03*
X0245D03*
X0249D03*
X02283Y01338D03*
X02568Y012D03*
X01919Y00639D03*
X02844Y01387D03*
X0244Y01338D03*
X02519D03*
X02214Y012D03*
X02401Y01338D03*
X02362D03*
X0248D03*
X02076Y00639D03*
X01998D03*
X02381Y00629D03*
X02102Y00622D03*
X02714Y01101D03*
X0269Y01076D03*
X02037Y00639D03*
X02624Y01077D03*
X02283Y0061D03*
X02253D03*
X02224D03*
X0236Y0059D03*
X02667Y0061D03*
X02765Y01387D03*
X02687D03*
X02726D03*
X01446Y00777D03*
X01318Y01358D03*
X01525Y00777D03*
X02017Y00984D03*
Y00944D03*
Y00905D03*
X01289Y00462D03*
X01279Y01555D03*
X01801Y00777D03*
X01407D03*
X0184Y00639D03*
X01919Y00777D03*
X01486D03*
X01938Y00797D03*
X01929Y00856D03*
X01683Y00777D03*
X01604D03*
X01722D03*
X01643D03*
X01761D03*
X02657Y01082D03*
X01437Y01102D03*
X02725Y01225D03*
X02725Y01195D03*
X02726Y01133D03*
X0275Y0125D03*
X02725Y0125D03*
X02725Y01163D03*
X01151Y00659D03*
X02834Y0058D03*
X02869Y00548D03*
X02868Y00516D03*
X02805Y0058D03*
X02775D03*
X02529Y00648D03*
X01564Y00777D03*
X01604Y00639D03*
X01348Y00659D03*
X0125Y00915D03*
X01368Y00777D03*
X01328D03*
X02322Y01338D03*
X02411Y012D03*
X02777Y01249D03*
X02814Y0125D03*
X02871Y01151D03*
X02844Y0125D03*
X02868Y01235D03*
X02869Y01204D03*
X02868Y01177D03*
X02312Y00609D03*
X02492Y00604D03*
X02385Y0059D03*
X02513Y00624D03*
X02342Y0061D03*
X01643Y00639D03*
X01761D03*
X01683D03*
X01722D03*
X01801D03*
X02017Y01013D03*
X02076Y01181D03*
X02066Y01072D03*
X02076Y01141D03*
X01771Y0125D03*
X0185D03*
X01889D03*
X0183Y0121D03*
X0123Y00344D03*
X01732Y01387D03*
X01919Y0121D03*
X02213Y01338D03*
G54D66*
X03051Y01574D03*
Y00393D03*
X02933Y01102D03*
Y00866D03*
X02637Y01692D03*
X02696Y01574D03*
X02637Y01456D03*
Y00984D03*
X02696Y00393D03*
X02519Y01692D03*
Y01456D03*
X02578Y00393D03*
X0246Y01574D03*
X02401Y01456D03*
X0246Y00629D03*
X02401Y00511D03*
X02342Y01574D03*
X02283Y01456D03*
X02342Y01102D03*
Y00393D03*
X02165Y01456D03*
X02106Y01574D03*
X02047Y0122D03*
X01929Y01456D03*
Y00511D03*
X0187Y01574D03*
X01811Y00984D03*
Y00511D03*
X01692Y01456D03*
Y00984D03*
X01751Y00866D03*
X01574Y0122D03*
Y00984D03*
X01456D03*
X01515Y00866D03*
X01456Y00039D03*
X01338Y0122D03*
Y00984D03*
X01397Y00393D03*
X01279Y00866D03*
Y00393D03*
X01161Y01574D03*
Y01102D03*
X01043Y01574D03*
X00984Y0122D03*
X01043Y00393D03*
X00925Y01574D03*
X00866Y01456D03*
Y00984D03*
X00925Y00393D03*
X00807Y01574D03*
X00748Y01456D03*
X00807Y01338D03*
X00748Y00511D03*
X00688Y01574D03*
X00629Y01456D03*
X00688Y01338D03*
X00629Y00984D03*
Y00511D03*
X00511Y01456D03*
Y0122D03*
X0057Y01102D03*
X00511Y00984D03*
Y00511D03*
X0057Y00393D03*
X00452Y01574D03*
X00334D03*
Y01338D03*
Y01102D03*
Y00393D03*
X00137Y0121D03*
Y01171D03*
X00177Y0121D03*
Y01171D03*
X00098Y0121D03*
Y01171D03*
Y01131D03*
X00177D03*
X00137D03*
X00098Y01092D03*
X00177D03*
X00137D03*
X00098Y0125D03*
X00177D03*
X00137D03*
X00098Y01289D03*
X00177D03*
X00137D03*
X00098Y01328D03*
X00177D03*
X00137D03*
X00216Y0121D03*
Y01289D03*
Y0125D03*
Y01171D03*
Y01131D03*
X00059Y01092D03*
Y01171D03*
Y01131D03*
Y0125D03*
Y01328D03*
Y01289D03*
X02814Y01574D03*
X02755Y01456D03*
Y0122D03*
X02814Y01102D03*
X02755Y00984D03*
X02814Y00866D03*
X02755Y00748D03*
Y00511D03*
X02814Y00393D03*
X02696Y00866D03*
X02637Y00275D03*
Y00039D03*
X02578Y01574D03*
Y01102D03*
X02519Y00984D03*
X02578Y00866D03*
X02401Y01692D03*
X0246Y01102D03*
X02401Y00984D03*
X0246Y00866D03*
Y00393D03*
X02283Y01692D03*
Y00511D03*
X02165Y01692D03*
X02224Y01574D03*
Y01102D03*
X02165Y00511D03*
X02224Y00393D03*
X02165Y00039D03*
X02047Y01692D03*
Y01456D03*
Y00511D03*
X02106Y00393D03*
X01988Y01574D03*
X01929Y00984D03*
X01988Y00393D03*
X01811Y01456D03*
X0187Y00866D03*
Y00393D03*
X01751Y01574D03*
X01692Y00511D03*
X01751Y00393D03*
X01574Y01692D03*
X01633Y01574D03*
X01574Y01456D03*
X01633Y00866D03*
Y00393D03*
X01574Y00275D03*
X01456Y01692D03*
X01515Y01574D03*
X01456Y01456D03*
Y00275D03*
X01338Y01692D03*
X01397Y01574D03*
X01338Y01456D03*
Y00275D03*
X0122Y01692D03*
Y00275D03*
X01102Y01692D03*
Y0122D03*
Y00275D03*
X00984Y01692D03*
Y01456D03*
X01043Y01338D03*
Y01102D03*
X00984Y00275D03*
Y00039D03*
X00866Y01692D03*
X00925Y01338D03*
X00866Y0122D03*
X00925Y01102D03*
X00866Y00275D03*
X00748Y01692D03*
Y0122D03*
X00807Y01102D03*
X00748Y00984D03*
X00807Y00393D03*
X00748Y00275D03*
X00629Y01692D03*
Y0122D03*
X00688Y01102D03*
X00629Y00748D03*
X00688Y00393D03*
X00629Y00275D03*
X00511Y01692D03*
X0057Y01574D03*
Y01338D03*
X00511Y00748D03*
Y00275D03*
Y00039D03*
X00393Y01692D03*
Y01456D03*
X00452Y01338D03*
X00393Y0122D03*
X00452Y01102D03*
X00393Y00984D03*
Y00748D03*
X00452Y00629D03*
X00393Y00511D03*
X00452Y00393D03*
X00393Y00275D03*
X00275Y01456D03*
Y0122D03*
Y00984D03*
X00334Y00866D03*
Y00629D03*
X00275Y00511D03*
X00216Y01574D03*
X00157Y00984D03*
X00216Y00393D03*
X00039Y00984D03*
X00157Y01889D03*
X00235Y01797D03*
Y01824D03*
X00157Y01732D03*
X00079Y01824D03*
Y01797D03*
X00246Y01916D03*
X00249Y01844D03*
X00225Y0185D03*
X00232Y01874D03*
Y01747D03*
X00225Y01771D03*
X00249Y01777D03*
X00246Y01705D03*
X00068Y01916D03*
X00082Y01874D03*
X00089Y0185D03*
X00064Y01844D03*
Y01777D03*
X00089Y01771D03*
X00082Y01747D03*
X00068Y01705D03*
X00184Y01885D03*
Y01737D03*
X0013Y01885D03*
Y01737D03*
X00293Y01834D03*
Y01787D03*
X00204Y0194D03*
X00174Y01907D03*
X00208Y01871D03*
Y0175D03*
X00204Y01681D03*
X00174Y01714D03*
X0011Y0194D03*
X0014Y01907D03*
X00106Y01871D03*
Y0175D03*
X0011Y01681D03*
X0014Y01714D03*
X00021Y01834D03*
Y01787D03*
X01811Y01889D03*
X01888Y01797D03*
Y01824D03*
X01811Y01732D03*
X01733Y01824D03*
Y01797D03*
X01899Y01916D03*
X01903Y01844D03*
X01879Y0185D03*
X01886Y01874D03*
Y01747D03*
X01879Y01771D03*
X01903Y01777D03*
X01899Y01705D03*
X01722Y01916D03*
X01735Y01874D03*
X01742Y0185D03*
X01718Y01844D03*
Y01777D03*
X01742Y01771D03*
X01735Y01747D03*
X01722Y01705D03*
X01837Y01885D03*
Y01737D03*
X01784Y01885D03*
Y01737D03*
X01946Y01834D03*
Y01787D03*
X01858Y0194D03*
X01828Y01907D03*
X01861Y01871D03*
Y0175D03*
X01858Y01681D03*
X01828Y01714D03*
X01763Y0194D03*
X01793Y01907D03*
X0176Y01871D03*
Y0175D03*
X01763Y01681D03*
X01793Y01714D03*
X01675Y01834D03*
Y01787D03*
X02992Y01889D03*
X03069Y01797D03*
Y01824D03*
X02992Y01732D03*
X02914Y01824D03*
Y01797D03*
X0308Y01916D03*
X03084Y01844D03*
X0306Y0185D03*
X03067Y01874D03*
Y01747D03*
X0306Y01771D03*
X03084Y01777D03*
X0308Y01705D03*
X02903Y01916D03*
X02916Y01874D03*
X02923Y0185D03*
X02899Y01844D03*
Y01777D03*
X02923Y01771D03*
X02916Y01747D03*
X02903Y01705D03*
X03019Y01885D03*
Y01737D03*
X02965Y01885D03*
Y01737D03*
X03127Y01834D03*
Y01787D03*
X03039Y0194D03*
X03009Y01907D03*
X03042Y01871D03*
Y0175D03*
X03039Y01681D03*
X03009Y01714D03*
X02945Y0194D03*
X02975Y01907D03*
X02941Y01871D03*
Y0175D03*
X02945Y01681D03*
X02975Y01714D03*
X02856Y01834D03*
Y01787D03*
X00157Y00236D03*
X00235Y00143D03*
Y00171D03*
X00157Y00078D03*
X00079Y00171D03*
Y00143D03*
X00246Y00263D03*
X00249Y00191D03*
X00225Y00196D03*
X00232Y0022D03*
Y00094D03*
X00225Y00118D03*
X00249Y00123D03*
X00246Y00051D03*
X00068Y00263D03*
X00082Y0022D03*
X00089Y00196D03*
X00064Y00191D03*
Y00123D03*
X00089Y00118D03*
X00082Y00094D03*
X00068Y00051D03*
X00184Y00231D03*
Y00083D03*
X0013Y00231D03*
Y00083D03*
X00293Y00181D03*
Y00133D03*
X00204Y00286D03*
X00174Y00254D03*
X00208Y00217D03*
Y00097D03*
X00204Y00027D03*
X00174Y0006D03*
X0011Y00286D03*
X0014Y00254D03*
X00106Y00217D03*
Y00097D03*
X0011Y00027D03*
X0014Y0006D03*
X00021Y00181D03*
Y00133D03*
X01811Y00236D03*
X01888Y00143D03*
Y00171D03*
X01811Y00078D03*
X01733Y00171D03*
Y00143D03*
X01899Y00263D03*
X01903Y00191D03*
X01879Y00196D03*
X01886Y0022D03*
Y00094D03*
X01879Y00118D03*
X01903Y00123D03*
X01899Y00051D03*
X01722Y00263D03*
X01735Y0022D03*
X01742Y00196D03*
X01718Y00191D03*
Y00123D03*
X01742Y00118D03*
X01735Y00094D03*
X01722Y00051D03*
X01837Y00231D03*
Y00083D03*
X01784Y00231D03*
Y00083D03*
X01946Y00181D03*
Y00133D03*
X01858Y00286D03*
X01828Y00254D03*
X01861Y00217D03*
Y00097D03*
X01858Y00027D03*
X01828Y0006D03*
X01763Y00286D03*
X01793Y00254D03*
X0176Y00217D03*
Y00097D03*
X01763Y00027D03*
X01793Y0006D03*
X01675Y00181D03*
Y00133D03*
X02992Y00236D03*
X03069Y00143D03*
Y00171D03*
X02992Y00078D03*
X02914Y00171D03*
Y00143D03*
X0308Y00263D03*
X03084Y00191D03*
X0306Y00196D03*
X03067Y0022D03*
Y00094D03*
X0306Y00118D03*
X03084Y00123D03*
X0308Y00051D03*
X02903Y00263D03*
X02916Y0022D03*
X02923Y00196D03*
X02899Y00191D03*
Y00123D03*
X02923Y00118D03*
X02916Y00094D03*
X02903Y00051D03*
X03019Y00231D03*
Y00083D03*
X02965Y00231D03*
Y00083D03*
X03127Y00181D03*
Y00133D03*
X03039Y00286D03*
X03009Y00254D03*
X03042Y00217D03*
Y00097D03*
X03039Y00027D03*
X03009Y0006D03*
X02945Y00286D03*
X02975Y00254D03*
X02941Y00217D03*
Y00097D03*
X02945Y00027D03*
X02975Y0006D03*
X02856Y00181D03*
Y00133D03*
X02917Y01405D03*
X02931Y01429D03*
X02903D03*
X02972Y01405D03*
X02986Y01429D03*
X02958D03*
X02944Y01405D03*
X03D03*
X03013Y01429D03*
X03055Y01405D03*
X03068Y01429D03*
X03041D03*
X03027Y01405D03*
X03082D03*
X03096Y01429D03*
X03137Y01405D03*
X03124Y01429D03*
X0311Y01405D03*
X02889D03*
X02917Y01232D03*
X02931Y01208D03*
X02903D03*
X02972Y01232D03*
X02986Y01208D03*
X02958D03*
X02944Y01232D03*
X03D03*
X03013Y01208D03*
X03055Y01232D03*
X03068Y01208D03*
X03041D03*
X03027Y01232D03*
X03082D03*
X03096Y01208D03*
X03137Y01232D03*
X03124Y01208D03*
X0311Y01232D03*
X02889D03*
X02917Y00736D03*
X02931Y00759D03*
X02903D03*
X02972Y00736D03*
X02986Y00759D03*
X02958D03*
X02944Y00736D03*
X03D03*
X03013Y00759D03*
X03055Y00736D03*
X03068Y00759D03*
X03041D03*
X03027Y00736D03*
X03082D03*
X03096Y00759D03*
X03137Y00736D03*
X03124Y00759D03*
X0311Y00736D03*
X02889D03*
X02917Y00562D03*
X02931Y00539D03*
X02903D03*
X02972Y00562D03*
X02986Y00539D03*
X02958D03*
X02944Y00562D03*
X03D03*
X03013Y00539D03*
X03055Y00562D03*
X03068Y00539D03*
X03041D03*
X03027Y00562D03*
X03082D03*
X03096Y00539D03*
X03137Y00562D03*
X03124Y00539D03*
X0311Y00562D03*
X02889D03*
G54D67*
X02775Y01732D03*
X02677Y01791D03*
X02755Y0183D03*
X0309Y01614D03*
X02992Y01594D03*
X02834Y01653D03*
X02893Y01574D03*
X00393Y0183D03*
X00511Y0187D03*
X00433Y01909D03*
X00826Y0187D03*
X00748Y01909D03*
X00669Y0187D03*
X00984D03*
X01062Y01909D03*
X01141Y0187D03*
X01299D03*
X01377Y01909D03*
X01456Y0187D03*
X01535Y01909D03*
X02086D03*
X02007Y0187D03*
X02165D03*
X02322D03*
X02401Y01909D03*
X0248Y0187D03*
X02716Y01909D03*
X02814D03*
X02637Y0187D03*
X00334Y01909D03*
X00905D03*
X0059D03*
X0122D03*
X01614Y0187D03*
X02244Y01909D03*
X02559D03*
X00059Y01476D03*
Y01633D03*
X00118Y01555D03*
X02559Y00059D03*
X00059Y00492D03*
X00118Y00413D03*
X00059Y00334D03*
X02992Y00374D03*
X0248Y00098D03*
X02401Y00059D03*
X02322Y00098D03*
X02244Y00059D03*
X02165Y00098D03*
X02007D03*
X02086Y00059D03*
X01535D03*
X01614Y00098D03*
X01456D03*
X01377Y00059D03*
X01299Y00098D03*
X0122Y00059D03*
X01141Y00098D03*
X01062Y00059D03*
X0059D03*
X00669Y00098D03*
X00748Y00059D03*
X00826Y00098D03*
X00905Y00059D03*
X00984Y00098D03*
X00433Y00059D03*
X00511Y00098D03*
X00334Y00059D03*
X00393Y00137D03*
X02637Y00098D03*
X02755Y00137D03*
X02814Y00059D03*
X02716D03*
X02677Y00177D03*
X02775Y00236D03*
X02834Y00314D03*
X02893Y00393D03*
X0309Y00354D03*
M02*