%FSTAX23Y23*%
%MOIN*%
%SFA1B1*%

%IPPOS*%
%AMD53*
4,1,8,0.059000,0.161500,-0.059000,0.161500,-0.122100,0.098400,-0.122100,-0.098400,-0.059000,-0.161500,0.059000,-0.161500,0.122100,-0.098400,0.122100,0.098400,0.059000,0.161500,0.0*
1,1,0.126120,0.059000,0.098400*
1,1,0.126120,-0.059000,0.098400*
1,1,0.126120,-0.059000,-0.098400*
1,1,0.126120,0.059000,-0.098400*
%
G04~CAMADD=53~8~0.0~0.0~2442.2~3229.6~630.6~0.0~15~0.0~0.0~0.0~0.0~0~0.0~0.0~0.0~0.0~0~0.0~0.0~0.0~0.0~2442.2~3229.6*
%ADD53D53*%
%ADD54C,0.322960*%
%ADD55R,0.204850X0.106420*%
%ADD56C,0.027690*%
%LNmashiro_fs-1*%
%LPD*%
G36*
X03149Y01811D02*
X00157D01*
X00551*
X00531Y0181*
X00493Y01806*
X00455Y01799*
X00418Y01788*
X00382Y01773*
X00348Y01755*
X00316Y01733*
X00286Y01709*
X00259Y01681*
X00234Y01651*
X00213Y01619*
X00195Y01585*
X0018Y01549*
X00169Y01512*
X00161Y01475*
X00157Y01436*
X00157Y01417*
Y01417*
X0*
Y01811*
Y01968*
X03149*
Y01811*
G37*
G36*
Y01543D02*
X03153D01*
Y01389*
Y01248*
Y01094*
X02945*
X02938*
X02925Y01097*
X02913Y01102*
X02902Y01109*
X02897Y01114*
X02892Y01119*
X02883Y01133*
X02877Y01147*
X02874Y01163*
Y01171*
Y01248*
Y01389*
X02873Y01406*
X02871Y01439*
X02865Y01471*
X02858Y01504*
X02847Y01535*
X02835Y01566*
X0282Y01595*
X02803Y01623*
X02783Y0165*
X02762Y01675*
X02738Y01699*
X02713Y0172*
X02686Y0174*
X02658Y01757*
X02629Y01772*
X02598Y01784*
X02567Y01795*
X02534Y01802*
X02502Y01808*
X02469Y0181*
X02452Y01811*
X03149*
Y01543*
G37*
G36*
X03153Y0072D02*
Y00578D01*
Y00425*
X03149*
Y00157*
Y0*
X0*
Y00157*
Y00551*
X00157*
X00157Y00531*
X00161Y00493*
X00169Y00455*
X0018Y00418*
X00195Y00382*
X00213Y00348*
X00234Y00316*
X00259Y00286*
X00286Y00259*
X00316Y00234*
X00348Y00213*
X00382Y00195*
X00418Y0018*
X00455Y00169*
X00493Y00161*
X00531Y00157*
X00551Y00157*
X00157*
X03149*
X02452*
X02469Y00157*
X02502Y0016*
X02534Y00165*
X02567Y00173*
X02598Y00183*
X02629Y00196*
X02658Y00211*
X02686Y00228*
X02713Y00247*
X02738Y00269*
X02762Y00292*
X02783Y00317*
X02803Y00344*
X0282Y00372*
X02835Y00402*
X02847Y00432*
X02858Y00464*
X02865Y00496*
X02871Y00529*
X02873Y00562*
X02874Y00578*
Y0072*
Y00797*
Y00805*
X02877Y0082*
X02883Y00835*
X02892Y00848*
X02897Y00854*
X02902Y00859*
X02913Y00866*
X02925Y00871*
X02938Y00874*
X03153*
Y0072*
G37*
G54D53*
X00137Y00757D03*
Y0121D03*
G54D54*
X00157Y01811D03*
X01811D03*
X02992D03*
X00157Y00157D03*
X01811D03*
X02992D03*
G54D55*
X03051Y01148D03*
Y01488D03*
Y00479D03*
Y00819D03*
G54D56*
X00157Y01889D03*
X00235Y01797D03*
Y01824D03*
X00157Y01732D03*
X00079Y01824D03*
Y01797D03*
X00246Y01916D03*
X00249Y01844D03*
X00225Y0185D03*
X00232Y01874D03*
Y01747D03*
X00225Y01771D03*
X00249Y01777D03*
X00246Y01705D03*
X00068Y01916D03*
X00082Y01874D03*
X00089Y0185D03*
X00064Y01844D03*
Y01777D03*
X00089Y01771D03*
X00082Y01747D03*
X00068Y01705D03*
X00184Y01885D03*
Y01737D03*
X0013Y01885D03*
Y01737D03*
X00293Y01834D03*
Y01787D03*
X00204Y0194D03*
X00174Y01907D03*
X00208Y01871D03*
Y0175D03*
X00204Y01681D03*
X00174Y01714D03*
X0011Y0194D03*
X0014Y01907D03*
X00106Y01871D03*
Y0175D03*
X0011Y01681D03*
X0014Y01714D03*
X00021Y01834D03*
Y01787D03*
X01811Y01889D03*
X01888Y01797D03*
Y01824D03*
X01811Y01732D03*
X01733Y01824D03*
Y01797D03*
X01899Y01916D03*
X01903Y01844D03*
X01879Y0185D03*
X01886Y01874D03*
Y01747D03*
X01879Y01771D03*
X01903Y01777D03*
X01899Y01705D03*
X01722Y01916D03*
X01735Y01874D03*
X01742Y0185D03*
X01718Y01844D03*
Y01777D03*
X01742Y01771D03*
X01735Y01747D03*
X01722Y01705D03*
X01837Y01885D03*
Y01737D03*
X01784Y01885D03*
Y01737D03*
X01946Y01834D03*
Y01787D03*
X01858Y0194D03*
X01828Y01907D03*
X01861Y01871D03*
Y0175D03*
X01858Y01681D03*
X01828Y01714D03*
X01763Y0194D03*
X01793Y01907D03*
X0176Y01871D03*
Y0175D03*
X01763Y01681D03*
X01793Y01714D03*
X01675Y01834D03*
Y01787D03*
X02992Y01889D03*
X03069Y01797D03*
Y01824D03*
X02992Y01732D03*
X02914Y01824D03*
Y01797D03*
X0308Y01916D03*
X03084Y01844D03*
X0306Y0185D03*
X03067Y01874D03*
Y01747D03*
X0306Y01771D03*
X03084Y01777D03*
X0308Y01705D03*
X02903Y01916D03*
X02916Y01874D03*
X02923Y0185D03*
X02899Y01844D03*
Y01777D03*
X02923Y01771D03*
X02916Y01747D03*
X02903Y01705D03*
X03019Y01885D03*
Y01737D03*
X02965Y01885D03*
Y01737D03*
X03127Y01834D03*
Y01787D03*
X03039Y0194D03*
X03009Y01907D03*
X03042Y01871D03*
Y0175D03*
X03039Y01681D03*
X03009Y01714D03*
X02945Y0194D03*
X02975Y01907D03*
X02941Y01871D03*
Y0175D03*
X02945Y01681D03*
X02975Y01714D03*
X02856Y01834D03*
Y01787D03*
X00157Y00236D03*
X00235Y00143D03*
Y00171D03*
X00157Y00078D03*
X00079Y00171D03*
Y00143D03*
X00246Y00263D03*
X00249Y00191D03*
X00225Y00196D03*
X00232Y0022D03*
Y00094D03*
X00225Y00118D03*
X00249Y00123D03*
X00246Y00051D03*
X00068Y00263D03*
X00082Y0022D03*
X00089Y00196D03*
X00064Y00191D03*
Y00123D03*
X00089Y00118D03*
X00082Y00094D03*
X00068Y00051D03*
X00184Y00231D03*
Y00083D03*
X0013Y00231D03*
Y00083D03*
X00293Y00181D03*
Y00133D03*
X00204Y00286D03*
X00174Y00254D03*
X00208Y00217D03*
Y00097D03*
X00204Y00027D03*
X00174Y0006D03*
X0011Y00286D03*
X0014Y00254D03*
X00106Y00217D03*
Y00097D03*
X0011Y00027D03*
X0014Y0006D03*
X00021Y00181D03*
Y00133D03*
X01811Y00236D03*
X01888Y00143D03*
Y00171D03*
X01811Y00078D03*
X01733Y00171D03*
Y00143D03*
X01899Y00263D03*
X01903Y00191D03*
X01879Y00196D03*
X01886Y0022D03*
Y00094D03*
X01879Y00118D03*
X01903Y00123D03*
X01899Y00051D03*
X01722Y00263D03*
X01735Y0022D03*
X01742Y00196D03*
X01718Y00191D03*
Y00123D03*
X01742Y00118D03*
X01735Y00094D03*
X01722Y00051D03*
X01837Y00231D03*
Y00083D03*
X01784Y00231D03*
Y00083D03*
X01946Y00181D03*
Y00133D03*
X01858Y00286D03*
X01828Y00254D03*
X01861Y00217D03*
Y00097D03*
X01858Y00027D03*
X01828Y0006D03*
X01763Y00286D03*
X01793Y00254D03*
X0176Y00217D03*
Y00097D03*
X01763Y00027D03*
X01793Y0006D03*
X01675Y00181D03*
Y00133D03*
X02992Y00236D03*
X03069Y00143D03*
Y00171D03*
X02992Y00078D03*
X02914Y00171D03*
Y00143D03*
X0308Y00263D03*
X03084Y00191D03*
X0306Y00196D03*
X03067Y0022D03*
Y00094D03*
X0306Y00118D03*
X03084Y00123D03*
X0308Y00051D03*
X02903Y00263D03*
X02916Y0022D03*
X02923Y00196D03*
X02899Y00191D03*
Y00123D03*
X02923Y00118D03*
X02916Y00094D03*
X02903Y00051D03*
X03019Y00231D03*
Y00083D03*
X02965Y00231D03*
Y00083D03*
X03127Y00181D03*
Y00133D03*
X03039Y00286D03*
X03009Y00254D03*
X03042Y00217D03*
Y00097D03*
X03039Y00027D03*
X03009Y0006D03*
X02945Y00286D03*
X02975Y00254D03*
X02941Y00217D03*
Y00097D03*
X02945Y00027D03*
X02975Y0006D03*
X02856Y00181D03*
Y00133D03*
X02917Y01405D03*
X02931Y01429D03*
X02903D03*
X02972Y01405D03*
X02986Y01429D03*
X02958D03*
X02944Y01405D03*
X03D03*
X03013Y01429D03*
X03055Y01405D03*
X03068Y01429D03*
X03041D03*
X03027Y01405D03*
X03082D03*
X03096Y01429D03*
X03137Y01405D03*
X03124Y01429D03*
X0311Y01405D03*
X02889D03*
X02917Y01232D03*
X02931Y01208D03*
X02903D03*
X02972Y01232D03*
X02986Y01208D03*
X02958D03*
X02944Y01232D03*
X03D03*
X03013Y01208D03*
X03055Y01232D03*
X03068Y01208D03*
X03041D03*
X03027Y01232D03*
X03082D03*
X03096Y01208D03*
X03137Y01232D03*
X03124Y01208D03*
X0311Y01232D03*
X02889D03*
X02917Y00736D03*
X02931Y00759D03*
X02903D03*
X02972Y00736D03*
X02986Y00759D03*
X02958D03*
X02944Y00736D03*
X03D03*
X03013Y00759D03*
X03055Y00736D03*
X03068Y00759D03*
X03041D03*
X03027Y00736D03*
X03082D03*
X03096Y00759D03*
X03137Y00736D03*
X03124Y00759D03*
X0311Y00736D03*
X02889D03*
X02917Y00562D03*
X02931Y00539D03*
X02903D03*
X02972Y00562D03*
X02986Y00539D03*
X02958D03*
X02944Y00562D03*
X03D03*
X03013Y00539D03*
X03055Y00562D03*
X03068Y00539D03*
X03041D03*
X03027Y00562D03*
X03082D03*
X03096Y00539D03*
X03137Y00562D03*
X03124Y00539D03*
X0311Y00562D03*
X02889D03*
M02*