%FSTAX23Y23*%
%MOIN*%
%SFA1B1*%

%IPPOS*%
%ADD11C,0.007870*%
%ADD68C,0.006850*%
%ADD69C,0.012600*%
%ADD70C,0.006690*%
%LNmashiro_fs-1*%
%LPD*%
G36*
X02519Y00311D02*
D01*
Y00226*
X02047*
Y00311*
Y00383*
X02519*
Y00311*
G37*
G36*
X00439Y01519D02*
X0044Y01519D01*
X00441Y01519*
X00442Y01519*
X00442Y01518*
X00442Y01518*
X00443Y01518*
X00443Y01518*
X00443Y01517*
X00444Y01517*
X00444Y01515*
X00444Y01514*
X00444Y01513*
Y01513*
Y01513*
X00444Y01511*
X00444Y0151*
X00444Y0151*
X00444Y01509*
X00443Y01508*
X00443Y01508*
X00443Y01508*
Y01508*
X00442Y01507*
X00441Y01507*
X00439Y01506*
X00439Y01506*
X00438Y01506*
X00437*
X00436Y01506*
X00434Y01506*
X00433Y01507*
X00433Y01507*
X00432Y01507*
X00432Y01507*
X00432Y01508*
X00431*
X00431Y01508*
X0043Y01509*
X0043Y01511*
X0043Y01512*
X0043Y01512*
Y01513*
Y01513*
X0043Y01514*
X0043Y01515*
X0043Y01516*
X0043Y01517*
X00431Y01517*
X00431Y01518*
X00431Y01518*
X00431Y01518*
X00432Y01518*
X00433Y01519*
X00435Y01519*
X00436Y01519*
X00436Y0152*
X00437*
X00439Y01519*
G37*
G36*
X00495Y01521D02*
X00495Y01521D01*
X00496*
X00496Y01521*
X00497Y01521*
X00497Y01521*
X00498Y01521*
X00498Y0152*
X00498Y0152*
X00498Y0152*
X00499Y0152*
X00499Y01519*
Y01519*
Y01519*
Y01453*
X00499Y01452*
X00499Y01452*
Y01452*
X00498Y01452*
X00498Y01451*
X00498Y01451*
X00498*
X00497Y01451*
X00496*
X00496Y01451*
X00496*
X00495Y01451*
X00494Y01451*
X00491*
X0049Y01451*
X0049Y01451*
X00489*
X00489Y01451*
X00488*
X00488Y01451*
X00487*
X00487Y01452*
X00487Y01452*
X00487Y01452*
X00486*
X00486Y01452*
X00486Y01452*
Y01453*
Y01453*
Y01483*
X00485Y01484*
X00484Y01485*
X00483Y01486*
X00483Y01487*
X00482Y01487*
X00482Y01487*
X00481Y01488*
X00481Y01488*
X0048Y01488*
X00479Y01489*
X00478Y01489*
X00478Y01489*
X00477Y0149*
X00477Y0149*
X00476*
X00475Y0149*
X00474Y01489*
X00473Y01489*
X00473Y01489*
X00473*
X00472Y01488*
X00471Y01488*
X00471Y01487*
X0047Y01487*
Y01487*
X0047Y01486*
X00469Y01485*
X00469Y01484*
X00469Y01484*
X00469Y01484*
Y01484*
X00469Y01483*
X00469Y01482*
X00469Y0148*
X00468Y0148*
Y01479*
Y01479*
Y01478*
Y01453*
X00468Y01452*
X00468Y01452*
Y01452*
X00468Y01452*
X00468Y01451*
X00467Y01451*
X00467*
X00467Y01451*
X00466*
X00466Y01451*
X00465*
X00464Y01451*
X00463Y01451*
X00461*
X0046Y01451*
X00459Y01451*
X00459*
X00458Y01451*
X00458*
X00457Y01451*
X00457*
X00457Y01452*
X00456Y01452*
X00456Y01452*
X00456*
X00456Y01452*
X00456Y01452*
Y01453*
Y01453*
Y0148*
Y01482*
X00456Y01484*
X00456Y01485*
X00456Y01487*
X00456Y01487*
X00457Y01488*
X00457Y01489*
Y01489*
X00457Y0149*
X00458Y01491*
X00458Y01492*
X00459Y01493*
X00459Y01494*
X00459Y01495*
X00459Y01495*
X0046Y01495*
X0046Y01496*
X00461Y01497*
X00462Y01498*
X00463Y01498*
X00464Y01499*
X00464Y01499*
X00465Y01499*
X00465Y01499*
X00466Y015*
X00467Y015*
X00468Y015*
X0047Y01501*
X00471Y01501*
X00472Y01501*
X00472*
X00474Y01501*
X00475Y01501*
X00476Y015*
X00477Y015*
X00478Y015*
X00479Y01499*
X00479Y01499*
X00479Y01499*
X00481Y01498*
X00482Y01498*
X00483Y01497*
X00484Y01496*
X00485Y01495*
X00485Y01495*
X00486Y01494*
X00486Y01494*
Y01519*
Y0152*
X00486Y0152*
X00486Y0152*
X00486*
X00487Y0152*
X00487Y01521*
X00487Y01521*
X00487*
X00488Y01521*
X00489Y01521*
X00489Y01521*
X00489*
X0049Y01521*
X00491Y01521*
X00494*
X00495Y01521*
G37*
G36*
X0065Y01501D02*
X00652Y015D01*
X00653Y015*
X00654Y015*
X00655Y01499*
X00656Y01499*
X00657Y01499*
X00657Y01499*
X00658Y01498*
X00659Y01497*
X00661Y01496*
X00662Y01495*
X00663Y01494*
X00663Y01493*
X00664Y01493*
X00664Y01493*
Y01498*
Y01498*
X00664Y01498*
X00664Y01499*
X00664Y01499*
X00665Y01499*
X00665Y01499*
X00665Y01499*
X00665*
X00666Y01499*
X00666Y01499*
X00667Y015*
X00667*
X00668Y015*
X00669Y015*
X00671*
X00671Y015*
X00672Y015*
X00672*
X00673Y01499*
X00673Y01499*
X00674Y01499*
X00674*
X00674Y01499*
X00674Y01499*
X00675Y01499*
Y01499*
X00675Y01498*
Y01498*
Y01498*
Y01453*
X00675Y01452*
X00675Y01452*
Y01452*
X00674Y01452*
X00674Y01451*
X00674Y01451*
X00674*
X00673Y01451*
X00672*
X00672Y01451*
X00672*
X00671Y01451*
X0067Y01451*
X00667*
X00666Y01451*
X00666Y01451*
X00666*
X00665Y01451*
X00664*
X00664Y01451*
X00664*
X00663Y01452*
X00663Y01452*
X00663Y01452*
X00662*
X00662Y01452*
X00662Y01452*
Y01453*
Y01453*
Y01483*
X00661Y01484*
X0066Y01485*
X00659Y01486*
X00659Y01487*
X00658Y01487*
X00658Y01487*
X00657Y01488*
X00657Y01488*
X00656Y01488*
X00655Y01489*
X00655Y01489*
X00654Y01489*
X00653Y0149*
X00653Y0149*
X00653*
X00651Y0149*
X0065Y01489*
X0065Y01489*
X00649Y01489*
X00649Y01488*
X00648Y01488*
X00647Y01487*
X00647Y01487*
Y01487*
X00647Y01486*
X00646Y01485*
X00646Y01484*
X00646Y01484*
X00646Y01484*
Y01484*
X00646Y01482*
X00645Y01481*
Y0148*
Y0148*
Y0148*
Y0148*
Y01453*
X00645Y01452*
X00645Y01452*
Y01452*
X00645Y01452*
X00644Y01451*
X00644Y01451*
X00644*
X00643Y01451*
X00643*
X00642Y01451*
X00642*
X00641Y01451*
X0064Y01451*
X00638*
X00637Y01451*
X00636Y01451*
X00636*
X00635Y01451*
X00635*
X00634Y01451*
X00634*
X00634Y01452*
X00633Y01452*
X00633Y01452*
X00633*
X00633Y01452*
X00633Y01452*
Y01453*
Y01453*
Y01483*
X00632Y01484*
X00631Y01485*
X0063Y01486*
X00629Y01487*
X00629Y01487*
X00628Y01487*
X00628Y01488*
X00628Y01488*
X00627Y01488*
X00626Y01489*
X00625Y01489*
X00625Y01489*
X00624Y0149*
X00624Y0149*
X00623*
X00622Y0149*
X00621Y01489*
X0062Y01489*
X0062Y01489*
X00619Y01488*
X00618Y01488*
X00618Y01487*
X00618Y01487*
Y01487*
X00617Y01486*
X00617Y01485*
X00617Y01484*
X00617Y01484*
X00616Y01484*
Y01484*
X00616Y01482*
X00616Y01481*
Y0148*
Y0148*
Y0148*
Y0148*
Y01453*
X00616Y01452*
X00616Y01452*
Y01452*
X00616Y01452*
X00615Y01451*
X00615Y01451*
X00615*
X00614Y01451*
X00614*
X00613Y01451*
X00613*
X00612Y01451*
X00611Y01451*
X00608*
X00607Y01451*
X00607Y01451*
X00607*
X00606Y01451*
X00605*
X00605Y01451*
X00605*
X00604Y01452*
X00604Y01452*
X00604Y01452*
X00604*
X00603Y01452*
X00603Y01452*
Y01453*
Y01453*
Y01482*
X00603Y01484*
X00604Y01486*
X00604Y01487*
X00604Y01488*
X00604Y01488*
X00604Y01489*
Y01489*
X00605Y0149*
X00605Y01491*
X00605Y01492*
X00606Y01493*
X00606Y01494*
X00607Y01495*
X00607Y01495*
X00607Y01495*
X00608Y01496*
X00609Y01497*
X00609Y01498*
X0061Y01498*
X00611Y01499*
X00611Y01499*
X00612Y01499*
X00612Y01499*
X00613Y015*
X00614Y015*
X00616Y015*
X00617Y01501*
X00618Y01501*
X00619Y01501*
X00619*
X00621Y01501*
X00622Y01501*
X00623Y015*
X00623Y015*
X00623Y015*
X00623*
X00625Y015*
X00626Y01499*
X00626Y01499*
X00627Y01499*
X00627Y01499*
X00627*
X00628Y01498*
X0063Y01497*
X0063Y01497*
X00631Y01496*
X00631Y01496*
X00631Y01496*
X00632Y01495*
X00634Y01494*
X00634Y01493*
X00635Y01493*
X00635Y01492*
X00635Y01492*
X00636Y01494*
X00636Y01495*
X00636Y01495*
X00637Y01496*
X00637Y01496*
X00637Y01496*
X00638Y01497*
X00639Y01498*
X0064Y01498*
X0064Y01498*
X0064*
X00641Y01499*
X00643Y015*
X00643Y015*
X00644Y015*
X00644Y015*
X00644*
X00646Y01501*
X00647Y01501*
X00648Y01501*
X00649*
X0065Y01501*
G37*
G36*
X00575D02*
X00576Y01501D01*
X00576*
X00577Y015*
X00578Y015*
X00578Y015*
X00578*
X0058Y015*
X00581Y015*
X00582Y01499*
X00583Y01499*
X00583Y01499*
X00583Y01499*
X00583*
X00585Y01498*
X00586Y01498*
X00587Y01498*
X00587Y01497*
X00587Y01497*
X00588*
X00589Y01497*
X00589Y01496*
X0059Y01496*
X0059Y01496*
X0059Y01495*
X00591Y01495*
X00591Y01494*
Y01494*
X00591Y01493*
X00591Y01492*
Y01492*
Y01492*
Y01492*
Y01491*
X00591Y0149*
Y0149*
Y01489*
X00591Y01489*
X00591Y01488*
X00591Y01488*
Y01488*
X0059Y01487*
X0059Y01487*
Y01487*
X0059Y01487*
X00589Y01487*
X00589*
X00588Y01487*
X00588Y01487*
X00587Y01487*
X00587Y01487*
X00586Y01488*
X00585Y01488*
X00584Y01489*
X00584Y01489*
X00584Y01489*
X00584*
X00582Y01489*
X00581Y0149*
X0058Y0149*
X0058Y0149*
X00579Y0149*
X00579*
X00577Y01491*
X00576Y01491*
X00575Y01491*
X00574*
X00572Y01491*
X00571Y01491*
X0057Y01491*
X0057Y01491*
X0057Y01491*
X0057*
X00569Y0149*
X00568Y0149*
X00567Y01489*
X00567Y01489*
X00566Y01488*
X00566Y01487*
X00566Y01487*
X00565Y01486*
Y01486*
X00565Y01485*
X00565Y01484*
Y01483*
Y01483*
Y01483*
Y01483*
Y0148*
X00572*
X00574Y0148*
X00575Y0148*
X00577Y0148*
X00578Y01479*
X00579Y01479*
X0058Y01479*
X0058*
X00582Y01479*
X00583Y01478*
X00584Y01478*
X00585Y01477*
X00586Y01477*
X00587Y01477*
X00587Y01476*
X00588Y01476*
X00589Y01475*
X0059Y01475*
X0059Y01474*
X00591Y01473*
X00591Y01472*
X00592Y01472*
X00592Y01471*
X00592Y01471*
X00593Y0147*
X00593Y01469*
X00593Y01468*
X00593Y01467*
X00593Y01466*
X00594Y01465*
Y01465*
Y01465*
Y01463*
X00593Y01462*
X00593Y01461*
X00593Y0146*
X00593Y01459*
X00593Y01459*
X00592Y01458*
Y01458*
X00591Y01456*
X00591Y01456*
X0059Y01455*
X0059Y01454*
X00589Y01454*
X00589Y01454*
X00589Y01454*
X00587Y01452*
X00586Y01452*
X00585Y01451*
X00584Y01451*
X00584Y01451*
X00584*
X00582Y0145*
X00581Y0145*
X00579Y0145*
X00579Y0145*
X00577*
X00576Y0145*
X00574Y0145*
X00573Y01451*
X00572Y01451*
X00571Y01451*
X0057Y01451*
X0057Y01452*
X00569Y01452*
X00568Y01452*
X00567Y01453*
X00566Y01454*
X00565Y01455*
X00564Y01455*
X00564Y01456*
X00563Y01456*
X00563Y01456*
Y01453*
X00563Y01452*
X00563Y01452*
X00563Y01452*
X00563Y01452*
X00562Y01451*
X00562Y01451*
X00561Y01451*
X00561*
X0056Y01451*
X00559Y01451*
X00557*
X00556Y01451*
X00555Y01451*
X00555*
X00554Y01451*
X00553Y01451*
X00553Y01452*
X00553*
X00553Y01452*
X00553Y01452*
X00553Y01453*
Y01453*
Y01483*
Y01485*
X00553Y01486*
X00553Y01487*
X00553Y01489*
X00553Y0149*
X00553Y0149*
X00554Y01491*
Y01491*
X00554Y01492*
X00555Y01493*
X00555Y01494*
X00556Y01495*
X00557Y01496*
X00557Y01496*
X00557Y01496*
X00557Y01496*
X00558Y01497*
X00559Y01498*
X00561Y01499*
X00562Y01499*
X00563Y01499*
X00563Y015*
X00563*
X00565Y015*
X00566Y015*
X00568Y01501*
X00569Y01501*
X00571Y01501*
X00572*
X00575Y01501*
G37*
G36*
X00764Y01501D02*
X00766Y015D01*
X00768Y015*
X00769Y015*
X0077Y01499*
X00771Y01499*
X00772Y01499*
X00772Y01499*
X00773Y01498*
X00775Y01498*
X00776Y01497*
X00777Y01496*
X00778Y01495*
X00778Y01495*
X00779Y01494*
X00779Y01494*
X0078Y01493*
X00781Y01492*
X00782Y0149*
X00782Y01489*
X00783Y01488*
X00783Y01487*
X00783Y01486*
X00784Y01486*
X00784Y01484*
X00784Y01482*
X00785Y0148*
X00785Y01478*
X00785Y01477*
X00785Y01476*
Y01475*
Y01475*
Y01475*
Y01474*
X00785Y01472*
X00785Y0147*
X00785Y01469*
X00784Y01467*
X00784Y01466*
X00784Y01465*
X00784Y01464*
Y01464*
X00783Y01462*
X00783Y01461*
X00782Y0146*
X00781Y01458*
X00781Y01458*
X0078Y01457*
X0078Y01456*
X0078Y01456*
X00779Y01455*
X00778Y01454*
X00776Y01453*
X00775Y01453*
X00774Y01452*
X00774Y01452*
X00773Y01452*
X00773Y01452*
X00772Y01451*
X0077Y01451*
X00768Y0145*
X00767Y0145*
X00766Y0145*
X00765Y0145*
X00764*
X00762Y0145*
X00761Y0145*
X0076Y0145*
X0076*
X00759Y01451*
X00759*
X00758Y01451*
X00756Y01451*
X00756Y01451*
X00756Y01451*
X00755Y01451*
X00755*
X00754Y01452*
X00753Y01452*
X00752Y01453*
X00752Y01453*
X00752*
X00751Y01454*
X0075Y01454*
X0075Y01454*
X0075Y01454*
X00749Y01455*
X00749Y01455*
X00749Y01455*
Y01455*
X00749Y01456*
X00749Y01456*
Y01456*
X00749Y01457*
Y01457*
X00749Y01458*
Y01458*
X00748Y01458*
Y01459*
Y0146*
Y0146*
Y01461*
Y01462*
X00749Y01462*
Y01463*
X00749Y01463*
X00749Y01464*
X00749Y01464*
Y01464*
X00749Y01465*
X00749Y01465*
X00749Y01465*
X00749*
X0075Y01466*
X0075Y01466*
X0075*
X00751Y01466*
X00751Y01465*
X00752Y01465*
X00752Y01465*
X00752Y01464*
X00753Y01464*
X00754Y01463*
X00754Y01463*
X00754*
X00755Y01462*
X00756Y01462*
X00757Y01462*
X00757Y01461*
X00757Y01461*
X00757*
X00759Y01461*
X0076Y01461*
X00761Y01461*
X00762*
X00764Y01461*
X00764Y01461*
X00765Y01461*
X00766Y01461*
X00766Y01461*
X00766Y01461*
X00766*
X00768Y01462*
X00769Y01463*
X00769Y01464*
X00769Y01464*
X0077Y01464*
X0077Y01466*
X00771Y01467*
X00771Y01468*
X00771Y01468*
X00772Y01469*
Y01469*
X00772Y01471*
X00772Y01472*
Y01473*
X00772Y01474*
Y01475*
Y01475*
Y01475*
X00772Y01478*
X00772Y0148*
X00771Y01482*
X00771Y01484*
X0077Y01485*
X0077Y01486*
X0077Y01486*
X0077Y01487*
X00768Y01488*
X00767Y01489*
X00766Y01489*
X00765Y0149*
X00764Y0149*
X00763Y0149*
X00762*
X0076Y0149*
X00759Y0149*
X00758Y0149*
X00758Y0149*
X00758Y0149*
X00758*
X00756Y01489*
X00755Y01489*
X00755Y01488*
X00755Y01488*
X00754Y01487*
X00753Y01487*
X00752Y01487*
X00752Y01487*
X00752Y01486*
X00751Y01486*
X00751Y01486*
X00751*
X0075Y01486*
X0075Y01486*
X00749Y01487*
X00749Y01487*
X00749Y01487*
X00749Y01488*
X00749Y01489*
X00749Y0149*
Y01491*
Y01491*
Y01491*
Y01492*
Y01493*
X00749Y01493*
Y01493*
X00749Y01494*
Y01494*
X00749Y01495*
Y01495*
X00749Y01495*
X00749Y01496*
Y01496*
X0075Y01496*
X0075Y01496*
X0075Y01496*
X0075Y01497*
X00751Y01497*
X00751Y01497*
X00752Y01498*
X00752Y01498*
X00752*
X00753Y01498*
X00754Y01499*
X00755Y01499*
X00755Y01499*
X00755*
X00756Y015*
X00758Y015*
X00758Y015*
X00758*
X00759Y015*
X00759*
X0076Y015*
X00761Y01501*
X00763*
X00764Y01501*
G37*
G36*
X00439Y015D02*
X0044Y015D01*
X0044*
X00441Y01499*
X00442Y01499*
X00442Y01499*
X00442Y01499*
X00443Y01499*
X00443Y01499*
X00443Y01499*
X00443Y01499*
X00443Y01498*
Y01498*
Y01498*
Y01453*
X00443Y01452*
X00443Y01452*
Y01452*
X00443Y01452*
X00442Y01451*
X00442Y01451*
X00442*
X00442Y01451*
X00441*
X0044Y01451*
X0044*
X00439Y01451*
X00438Y01451*
X00436*
X00435Y01451*
X00434Y01451*
X00434*
X00433Y01451*
X00433*
X00432Y01451*
X00432*
X00432Y01452*
X00431Y01452*
X00431Y01452*
X00431*
X00431Y01452*
X00431Y01452*
Y01453*
Y01453*
Y01498*
Y01498*
X00431Y01498*
X00431Y01498*
X00431Y01499*
X00431Y01499*
X00432Y01499*
X00432Y01499*
X00432*
X00433Y01499*
X00433Y01499*
X00434Y015*
X00434*
X00435Y015*
X00436Y015*
X00438*
X00439Y015*
G37*
G36*
X00396Y01501D02*
X00397Y01501D01*
X00398Y015*
X00398Y015*
X00398*
X00399Y015*
X004Y01499*
X00401Y01499*
X00401Y01499*
X00401*
X00402Y01498*
X00403Y01497*
X00404Y01497*
X00404Y01496*
X00404Y01496*
X00405Y01495*
X00406Y01494*
X00407Y01493*
X00407Y01493*
X00407Y01492*
X00407Y01492*
Y01498*
Y01498*
X00407Y01498*
X00407Y01499*
X00408Y01499*
X00408Y01499*
X00408Y01499*
X00408Y01499*
X00408*
X00409Y01499*
X00409Y01499*
X0041Y015*
X0041*
X00411Y015*
X00412Y015*
X00414*
X00415Y015*
X00415Y015*
X00415*
X00416Y01499*
X00417Y01499*
X00417Y01499*
X00417*
X00417Y01499*
X00418Y01499*
X00418Y01499*
Y01499*
X00418Y01498*
Y01498*
Y01498*
Y01453*
X00418Y01452*
X00418Y01452*
Y01452*
X00418Y01452*
X00417Y01451*
X00417Y01451*
X00417*
X00416Y01451*
X00416*
X00415Y01451*
X00415*
X00414Y01451*
X00413Y01451*
X00411*
X0041Y01451*
X00409Y01451*
X00409*
X00408Y01451*
X00407*
X00407Y01451*
X00407*
X00406Y01452*
X00406Y01452*
X00406Y01452*
X00406*
X00406Y01452*
X00405Y01452*
Y01453*
Y01453*
Y01481*
X00404Y01482*
X00404Y01484*
X00403Y01484*
X00403Y01484*
X00403Y01484*
Y01485*
X00402Y01486*
X00401Y01486*
X00401Y01487*
X004Y01487*
X004Y01488*
X00399Y01488*
X00399Y01488*
X00398Y01488*
X00397Y01489*
X00397Y01489*
X00395*
X00395Y01489*
X00395Y01489*
X00395*
X00394Y01489*
X00393Y01488*
X00393Y01488*
X00393*
X00393Y01488*
X00392Y01488*
X00392Y01488*
X00392*
X00391Y01488*
X00391*
X0039Y01488*
X0039Y01488*
X0039Y01488*
X0039Y01489*
X0039Y01489*
Y01489*
X0039Y01489*
X00389Y0149*
X00389Y01491*
Y01491*
X00389Y01492*
Y01493*
Y01493*
Y01494*
Y01494*
Y01495*
Y01496*
X00389Y01496*
Y01497*
Y01497*
Y01498*
X00389Y01498*
Y01498*
X0039Y01498*
Y01499*
X0039Y01499*
X0039Y01499*
X0039Y01499*
X0039*
X0039Y015*
X00391Y015*
X00391Y015*
X00391*
X00392Y015*
X00392Y015*
X00392*
X00393Y015*
X00393Y01501*
X00394Y01501*
X00394*
X00394Y01501*
X00395*
X00396Y01501*
G37*
G36*
X00726Y01501D02*
X00728Y015D01*
X00729Y015*
X0073Y015*
X0073Y015*
X00731Y015*
X00731*
X00732Y01499*
X00733Y01499*
X00734Y01498*
X00735Y01498*
X00736Y01497*
X00736Y01497*
X00737Y01497*
X00737Y01497*
X00738Y01495*
X0074Y01494*
X0074Y01493*
X0074Y01492*
X0074Y01492*
X00741Y01492*
X00741Y0149*
X00741Y01489*
X00742Y01488*
Y01487*
X00742Y01487*
Y01486*
Y01486*
Y01485*
X00742Y01484*
X00741Y01483*
X00741Y01482*
X00741Y01482*
X00741Y01481*
X00741Y01481*
Y01481*
X0074Y01479*
X00739Y01478*
X00739Y01477*
X00739Y01477*
X00739Y01477*
X00738Y01477*
X00737Y01476*
X00736Y01475*
X00736Y01475*
X00735Y01474*
X00735Y01474*
X00735*
X00733Y01473*
X00732Y01473*
X00732Y01472*
X00731Y01472*
X00731Y01472*
X00731*
X00729Y01471*
X00728Y01471*
X00728Y01471*
X00727Y01471*
X00727Y01471*
X00727*
X00726Y0147*
X00725Y0147*
X00724Y01469*
X00724Y01469*
X00724Y01469*
X00723*
X00722Y01468*
X00722Y01468*
X00721Y01467*
X00721Y01467*
X0072Y01466*
X0072Y01465*
X0072Y01465*
Y01465*
Y01465*
X0072Y01464*
X0072Y01463*
X0072Y01462*
X00721Y01462*
X00721Y01461*
X00721Y01461*
X00722Y01461*
X00722Y01461*
X00723Y0146*
X00724Y0146*
X00724Y0146*
X00724Y0146*
X00724*
X00725Y01459*
X00726Y01459*
X00727*
X00729Y01459*
X0073Y01459*
X00731Y0146*
X00731*
X00732Y0146*
X00732Y0146*
X00732*
X00734Y0146*
X00735Y01461*
X00735Y01461*
X00736Y01461*
X00736Y01461*
X00736*
X00737Y01462*
X00738Y01462*
X00739Y01463*
X00739Y01463*
X00739Y01463*
X0074Y01463*
X0074Y01463*
X0074*
X00741Y01463*
X00741Y01463*
X00741*
X00741Y01463*
X00741Y01463*
X00742Y01462*
Y01462*
X00742Y01462*
X00742Y01461*
X00742Y01461*
Y01461*
Y0146*
Y01459*
Y01459*
Y01459*
Y01459*
Y01457*
X00742Y01456*
X00742Y01456*
Y01455*
X00741Y01455*
X00741Y01454*
X00741Y01454*
X00741Y01454*
X0074Y01453*
X0074Y01453*
X00739Y01453*
X00739Y01452*
X00738Y01452*
X00737Y01452*
X00736Y01451*
X00736Y01451*
X00736*
X00735Y01451*
X00733Y01451*
X00733Y01451*
X00732*
X00732Y01451*
X00732*
X0073Y0145*
X00729Y0145*
X00728Y0145*
X00726*
X00724Y0145*
X00723Y0145*
X00722Y01451*
X00721Y01451*
X0072Y01451*
X0072Y01451*
X00719*
X00718Y01451*
X00717Y01452*
X00716Y01452*
X00715Y01453*
X00714Y01453*
X00714Y01454*
X00713Y01454*
X00713Y01454*
X00712Y01455*
X00711Y01456*
X00711Y01456*
X0071Y01457*
X0071Y01458*
X00709Y01458*
X00709Y01459*
X00709Y01459*
X00709Y0146*
X00708Y01461*
X00708Y01462*
X00708Y01463*
X00708Y01464*
X00708Y01465*
Y01465*
Y01466*
X00708Y01468*
X00708Y01469*
X00708Y01469*
X00708Y0147*
X00709Y0147*
X00709Y01471*
Y01471*
X00709Y01472*
X0071Y01474*
X00711Y01474*
X00711Y01475*
X00711Y01475*
X00711Y01475*
X00712Y01476*
X00714Y01477*
X00714Y01477*
X00714Y01477*
X00715Y01477*
X00715*
X00716Y01478*
X00718Y01479*
X00718Y01479*
X00718Y01479*
X00719Y01479*
X00719*
X0072Y0148*
X00721Y0148*
X00722Y01481*
X00722Y01481*
X00723Y01481*
X00723*
X00724Y01482*
X00725Y01482*
X00726Y01482*
X00726Y01482*
X00726Y01482*
X00726*
X00727Y01483*
X00728Y01484*
X00729Y01484*
X00729Y01484*
X00729Y01485*
X0073Y01486*
X0073Y01487*
Y01487*
Y01487*
X0073Y01488*
X0073Y01488*
X00729Y01489*
Y01489*
X00729Y01489*
X00729Y0149*
X00728Y0149*
X00728Y0149*
X00728Y01491*
X00727Y01491*
X00726Y01491*
X00726Y01491*
X00725Y01492*
X00724Y01492*
X00723*
X00721Y01492*
X0072Y01492*
X0072Y01491*
X00719Y01491*
X00719Y01491*
X00719*
X00718Y01491*
X00716Y0149*
X00716Y0149*
X00716Y0149*
X00716*
X00715Y0149*
X00714Y01489*
X00713Y01489*
X00713Y01489*
X00713Y01489*
X00712Y01489*
X00712Y01488*
X00712*
X00711Y01489*
X00711*
X00711Y01489*
X00711Y01489*
Y01489*
X00711Y0149*
X0071Y0149*
X0071Y0149*
Y01491*
X0071Y01491*
Y01492*
Y01493*
Y01493*
Y01494*
Y01494*
X0071Y01495*
Y01495*
X0071Y01495*
Y01496*
X00711Y01496*
Y01496*
X00711Y01497*
X00711Y01497*
Y01497*
X00711Y01497*
X00711Y01498*
X00711Y01498*
X00711*
X00712Y01498*
X00712Y01498*
X00713Y01498*
X00713Y01499*
X00714Y01499*
X00715Y01499*
X00716Y01499*
X00716Y015*
X00716*
X00717Y015*
X00718Y015*
X00719Y015*
X00719Y015*
X00719*
X00721Y01501*
X00722Y01501*
X00725*
X00726Y01501*
G37*
G36*
X00527D02*
X00528Y015D01*
X00529Y015*
X0053Y015*
X00531Y015*
X00532Y015*
X00532*
X00533Y01499*
X00534Y01499*
X00535Y01498*
X00536Y01498*
X00537Y01497*
X00537Y01497*
X00537Y01497*
X00537Y01497*
X00539Y01495*
X0054Y01494*
X00541Y01493*
X00541Y01492*
X00541Y01492*
X00541Y01492*
X00542Y0149*
X00542Y01489*
X00542Y01488*
Y01487*
X00542Y01487*
Y01486*
Y01486*
Y01485*
X00542Y01484*
X00542Y01483*
X00542Y01482*
X00542Y01482*
X00542Y01481*
X00541Y01481*
Y01481*
X00541Y01479*
X0054Y01478*
X0054Y01477*
X00539Y01477*
X00539Y01477*
X00539Y01477*
X00538Y01476*
X00537Y01475*
X00536Y01475*
X00536Y01474*
X00536Y01474*
X00536*
X00534Y01473*
X00533Y01473*
X00532Y01472*
X00532Y01472*
X00532Y01472*
X00532*
X0053Y01471*
X00529Y01471*
X00528Y01471*
X00528Y01471*
X00528Y01471*
X00528*
X00526Y0147*
X00525Y0147*
X00525Y01469*
X00524Y01469*
X00524Y01469*
X00524*
X00523Y01468*
X00522Y01468*
X00522Y01467*
X00522Y01467*
X00521Y01466*
X00521Y01465*
X00521Y01465*
Y01465*
Y01465*
X00521Y01464*
X00521Y01463*
X00521Y01462*
X00521Y01462*
X00522Y01461*
X00522Y01461*
X00522Y01461*
X00523Y01461*
X00523Y0146*
X00524Y0146*
X00525Y0146*
X00525Y0146*
X00525*
X00526Y01459*
X00527Y01459*
X00528*
X0053Y01459*
X00531Y01459*
X00531Y0146*
X00532*
X00532Y0146*
X00533Y0146*
X00533*
X00534Y0146*
X00536Y01461*
X00536Y01461*
X00536Y01461*
X00536Y01461*
X00537*
X00538Y01462*
X00539Y01462*
X00539Y01463*
X00539Y01463*
X0054Y01463*
X00541Y01463*
X00541Y01463*
X00541*
X00541Y01463*
X00542Y01463*
X00542*
X00542Y01463*
X00542Y01463*
X00542Y01462*
Y01462*
X00542Y01462*
X00542Y01461*
X00543Y01461*
Y01461*
Y0146*
Y01459*
Y01459*
Y01459*
Y01459*
Y01457*
X00542Y01456*
X00542Y01456*
Y01455*
X00542Y01455*
X00542Y01454*
X00542Y01454*
X00541Y01454*
X00541Y01453*
X0054Y01453*
X0054Y01453*
X0054Y01452*
X00539Y01452*
X00538Y01452*
X00537Y01451*
X00537Y01451*
X00537*
X00535Y01451*
X00534Y01451*
X00533Y01451*
X00533*
X00533Y01451*
X00533*
X00531Y0145*
X00529Y0145*
X00529Y0145*
X00526*
X00525Y0145*
X00523Y0145*
X00522Y01451*
X00521Y01451*
X00521Y01451*
X0052Y01451*
X0052*
X00519Y01451*
X00518Y01452*
X00517Y01452*
X00516Y01453*
X00515Y01453*
X00514Y01454*
X00514Y01454*
X00514Y01454*
X00513Y01455*
X00512Y01456*
X00511Y01456*
X00511Y01457*
X0051Y01458*
X0051Y01458*
X0051Y01459*
X0051Y01459*
X00509Y0146*
X00509Y01461*
X00509Y01462*
X00508Y01463*
X00508Y01464*
X00508Y01465*
Y01465*
Y01466*
X00508Y01468*
X00509Y01469*
X00509Y01469*
X00509Y0147*
X00509Y0147*
X00509Y01471*
Y01471*
X0051Y01472*
X00511Y01474*
X00511Y01474*
X00512Y01475*
X00512Y01475*
X00512Y01475*
X00513Y01476*
X00514Y01477*
X00515Y01477*
X00515Y01477*
X00515Y01477*
X00515*
X00517Y01478*
X00518Y01479*
X00519Y01479*
X00519Y01479*
X00519Y01479*
X00519*
X00521Y0148*
X00522Y0148*
X00523Y01481*
X00523Y01481*
X00523Y01481*
X00523*
X00525Y01482*
X00526Y01482*
X00526Y01482*
X00527Y01482*
X00527Y01482*
X00527*
X00528Y01483*
X00529Y01484*
X00529Y01484*
X00529Y01484*
X0053Y01485*
X0053Y01486*
X0053Y01487*
Y01487*
Y01487*
X0053Y01488*
X0053Y01488*
X0053Y01489*
Y01489*
X0053Y01489*
X00529Y0149*
X00529Y0149*
X00529Y0149*
X00528Y01491*
X00527Y01491*
X00527Y01491*
X00527Y01491*
X00526Y01492*
X00525Y01492*
X00524*
X00522Y01492*
X00521Y01492*
X0052Y01491*
X0052Y01491*
X0052Y01491*
X0052*
X00518Y01491*
X00517Y0149*
X00516Y0149*
X00516Y0149*
X00516*
X00515Y0149*
X00514Y01489*
X00514Y01489*
X00514Y01489*
X00513Y01489*
X00513Y01489*
X00512Y01488*
X00512*
X00512Y01489*
X00512*
X00511Y01489*
X00511Y01489*
Y01489*
X00511Y0149*
X00511Y0149*
X00511Y0149*
Y01491*
X00511Y01491*
Y01492*
Y01493*
Y01493*
Y01494*
Y01494*
X00511Y01495*
Y01495*
X00511Y01495*
Y01496*
X00511Y01496*
Y01496*
X00511Y01497*
X00511Y01497*
Y01497*
X00512Y01497*
X00512Y01498*
X00512Y01498*
X00512*
X00513Y01498*
X00513Y01498*
X00513Y01498*
X00514Y01499*
X00515Y01499*
X00515Y01499*
X00516Y01499*
X00516Y015*
X00516*
X00518Y015*
X00519Y015*
X00519Y015*
X0052Y015*
X0052*
X00522Y01501*
X00523Y01501*
X00526*
X00527Y01501*
G37*
G36*
X00362Y01501D02*
X00364Y01501D01*
X00366Y015*
X00367Y015*
X00369Y01499*
X00369Y01499*
X0037Y01499*
X0037Y01499*
X00372Y01498*
X00373Y01497*
X00375Y01496*
X00376Y01496*
X00377Y01495*
X00377Y01494*
X00378Y01494*
X00378Y01494*
X00379Y01492*
X0038Y01491*
X00381Y01489*
X00381Y01488*
X00382Y01487*
X00382Y01486*
X00382Y01486*
X00383Y01485*
X00383Y01484*
X00383Y01482*
X00384Y0148*
X00384Y01478*
X00384Y01477*
X00384Y01476*
Y01475*
Y01475*
Y01475*
X00384Y01473*
X00384Y01471*
X00384Y01469*
X00383Y01467*
X00383Y01466*
X00383Y01465*
X00383Y01465*
Y01464*
X00382Y01463*
X00381Y01461*
X00381Y0146*
X0038Y01459*
X00379Y01458*
X00379Y01457*
X00378Y01457*
X00378Y01456*
X00377Y01455*
X00376Y01454*
X00375Y01454*
X00374Y01453*
X00373Y01452*
X00372Y01452*
X00371Y01452*
X00371Y01452*
X00369Y01451*
X00367Y01451*
X00366Y0145*
X00364Y0145*
X00363Y0145*
X00362Y0145*
X00361*
X00358Y0145*
X00356Y0145*
X00354Y01451*
X00353Y01451*
X00352Y01451*
X00351Y01452*
X0035Y01452*
X0035Y01452*
X00348Y01453*
X00347Y01454*
X00345Y01454*
X00344Y01455*
X00343Y01456*
X00343Y01457*
X00342Y01457*
X00342Y01457*
X00341Y01458*
X0034Y0146*
X00339Y01461*
X00339Y01463*
X00338Y01464*
X00338Y01465*
X00338Y01465*
X00337Y01465*
X00337Y01467*
X00336Y01469*
X00336Y01471*
X00336Y01472*
X00336Y01474*
X00336Y01475*
Y01476*
Y01476*
Y01476*
X00336Y01478*
X00336Y0148*
X00336Y01482*
X00337Y01483*
X00337Y01485*
X00337Y01486*
X00337Y01486*
X00337Y01486*
X00338Y01488*
X00339Y0149*
X00339Y01491*
X0034Y01492*
X00341Y01493*
X00341Y01494*
X00342Y01494*
X00342Y01494*
X00343Y01495*
X00344Y01496*
X00345Y01497*
X00346Y01498*
X00347Y01498*
X00348Y01499*
X00349Y01499*
X00349Y01499*
X00351Y015*
X00352Y015*
X00354Y015*
X00356Y01501*
X00357Y01501*
X00358Y01501*
X00359*
X00362Y01501*
G37*
%LNmashiro_fs-2*%
%LPC*%
G36*
X02475Y00373D02*
X0246D01*
X0246*
X02454Y00351*
X02452Y00343*
X02452*
X0245Y00351*
X02444Y00373*
X02429*
Y00312*
X02475*
Y00373*
G37*
G36*
X02135D02*
X02121D01*
X02108Y00343*
X02103Y00329*
X02103*
Y00329*
Y00329*
X02103Y0033*
X02103Y00331*
X02103Y00332*
X02103Y00334*
X02103Y00336*
X02104Y00338*
X02104Y0034*
Y0034*
Y0034*
X02104Y0034*
Y00341*
X02104Y00342*
X02104Y00344*
X02105Y00345*
X02105Y00347*
X02105Y00351*
Y00373*
X02092*
Y00312*
X02106*
X02119Y00342*
X02124Y00356*
X02124*
Y00356*
Y00355*
X02124Y00355*
X02124Y00354*
X02124Y00352*
X02124Y00351*
X02123Y00349*
X02123Y00347*
X02123Y00345*
Y00345*
Y00345*
X02123Y00344*
Y00344*
X02123Y00343*
X02123Y00341*
X02122Y00339*
X02122Y00338*
X02122Y00336*
Y00333*
Y00312*
X02135*
Y00373*
G37*
G36*
X02404D02*
X02387D01*
X02368Y00312*
X02423*
X02404Y00373*
G37*
G36*
X02248D02*
X02205D01*
Y00361*
X02219*
Y00323*
X02205*
Y00312*
X02248*
Y00373*
G37*
G36*
X02179D02*
X02162D01*
X02143Y00312*
X02197*
X02178Y00373*
X02179*
G37*
G36*
X02363Y00374D02*
X02337D01*
X02336Y00374*
X02334Y00374*
X02333Y00374*
X02331Y00373*
X02329Y00373*
X02327Y00372*
X02327*
X02327Y00372*
X02326Y00372*
X02325Y00371*
X02324Y00371*
X02322Y0037*
X02321Y00369*
X02319Y00367*
X02317Y00366*
X02324Y00357*
X02324Y00357*
X02325Y00358*
X02326Y00358*
X02326Y00359*
X02327Y00359*
X02328Y0036*
X0233Y0036*
X02331Y00361*
X02331Y00361*
X02331Y00361*
X02332Y00361*
X02333Y00362*
X02334Y00362*
X02335Y00362*
X02337Y00362*
X02339*
X0234Y00362*
X0234Y00362*
X02342Y00362*
X02343Y00361*
X02344Y00361*
X02344Y00361*
X02344Y00361*
X02345Y0036*
X02345Y0036*
X02345Y00359*
X02346Y00359*
X02346Y00358*
X02346Y00357*
Y00357*
Y00356*
X02346Y00356*
X02346Y00355*
X02345Y00354*
X02345Y00354*
X02344Y00353*
X02343Y00352*
X02343Y00352*
X02343Y00352*
X02342Y00352*
X02341Y00352*
X0234Y00351*
X02339Y00351*
X02338Y0035*
X02336Y00349*
X02329Y00346*
X02328*
X02328Y00346*
X02328Y00346*
X02328Y00346*
X02327Y00345*
X02325Y00345*
X02324Y00344*
X02322Y00343*
X02321Y00341*
X02319Y0034*
X02319Y0034*
X02319Y00339*
X02318Y00339*
X02317Y00337*
X02317Y00336*
X02316Y00334*
X02316Y00332*
X02315Y0033*
Y00329*
X02316Y00328*
X02316Y00327*
X02316Y00326*
X02316Y00325*
X02317Y00324*
X02317Y00322*
X02317Y00322*
X02317Y00322*
X02318Y00321*
X02318Y0032*
X02319Y00319*
X0232Y00318*
X02321Y00317*
X02322Y00316*
X02322Y00316*
X02322Y00316*
X02323Y00315*
X02324Y00315*
X02325Y00314*
X02326Y00314*
X02328Y00313*
X02329Y00312*
X02329Y00312*
X0233Y00312*
X02331Y00312*
X02332Y00312*
X02334Y00311*
X02335Y00311*
X02337Y00311*
X02339Y00311*
X0234*
X02342Y00311*
X02343Y00311*
X02345Y00311*
X02347Y00312*
X02349Y00312*
X02352Y00313*
X02352*
X02352Y00313*
X02352Y00313*
X02353Y00313*
X02354Y00314*
X02355Y00315*
X02357Y00315*
X02359Y00317*
X02361Y00318*
X02363Y00319*
X02355Y00329*
X02355Y00329*
X02354Y00329*
X02353Y00328*
X02352Y00327*
X02351Y00327*
X0235Y00326*
X02348Y00325*
X02347Y00324*
X02347Y00324*
X02346Y00324*
X02345Y00324*
X02344Y00323*
X02343Y00323*
X02342Y00323*
X0234Y00323*
X02338Y00323*
X02338*
X02337Y00323*
X02336Y00323*
X02334Y00323*
X02333Y00324*
X02332Y00324*
X02332Y00324*
X02331Y00324*
X02331Y00325*
X02331Y00325*
X0233Y00326*
X0233Y00327*
X0233Y00328*
Y00328*
Y00328*
X0233Y00329*
X0233Y0033*
X0233Y00331*
X0233Y00331*
X02331Y00331*
X02331Y00332*
X02332Y00332*
X02332Y00333*
X02333Y00333*
X02334Y00334*
X02335Y00334*
X02335*
X02336Y00334*
X02336Y00334*
X02336Y00335*
X02338Y00335*
X02339Y00336*
X02347Y00339*
X02347*
X02348Y00339*
X02348Y0034*
X02349Y0034*
X02349Y0034*
X0235Y00341*
X02352Y00342*
X02352Y00342*
X02352Y00342*
X02353Y00342*
X02353Y00343*
X02355Y00344*
X02356Y00345*
X02356Y00345*
X02356Y00345*
X02357Y00346*
X02357Y00346*
X02358Y00347*
X02358Y00348*
X02359Y0035*
Y0035*
X02359Y0035*
X02359Y00351*
X0236Y00352*
X0236Y00352*
X0236Y00353*
X0236Y00355*
Y00356*
Y00356*
Y00357*
X0236Y00357*
X0236Y00358*
X0236Y00359*
X02359Y0036*
X02359Y00362*
X02358Y00363*
X02358Y00363*
X02358Y00364*
X02358Y00364*
X02357Y00365*
X02357Y00366*
X02356Y00367*
X02355Y00368*
X02354Y00369*
X02354Y00369*
X02353Y00369*
X02353Y0037*
X02352Y0037*
X02351Y00371*
X0235Y00372*
X02348Y00372*
X02347Y00373*
X02347Y00373*
X02346Y00373*
X02345Y00373*
X02344Y00373*
X02343Y00374*
X02341Y00374*
X02339Y00374*
X02338Y00374*
X02363*
G37*
G36*
X02306D02*
X02259D01*
Y00311*
Y00329*
X02259Y00328*
X02259Y00327*
X0226Y00326*
X0226Y00325*
X0226Y00324*
X02261Y00322*
X02261Y00322*
X02261Y00322*
X02261Y00321*
X02262Y0032*
X02262Y00319*
X02263Y00318*
X02264Y00317*
X02265Y00316*
X02265Y00316*
X02266Y00316*
X02267Y00315*
X02267Y00315*
X02268Y00314*
X0227Y00314*
X02271Y00313*
X02273Y00312*
X02273Y00312*
X02274Y00312*
X02274Y00312*
X02276Y00312*
X02277Y00311*
X02279Y00311*
X02281Y00311*
X02283Y00311*
X02284*
X02285Y00311*
X02287Y00311*
X02289Y00311*
X02291Y00312*
X02293Y00312*
X02295Y00313*
X02295*
X02295Y00313*
X02296Y00313*
X02296Y00313*
X02297Y00314*
X02299Y00315*
X02301Y00315*
X02302Y00317*
X02304Y00318*
X02306Y00319*
X02298Y00329*
X02298Y00329*
X02298Y00329*
X02297Y00328*
X02296Y00327*
X02295Y00327*
X02294Y00326*
X02292Y00325*
X02291Y00324*
X0229Y00324*
X0229Y00324*
X02289Y00324*
X02288Y00323*
X02287Y00323*
X02285Y00323*
X02284Y00323*
X02282Y00323*
X02281*
X0228Y00323*
X02279Y00323*
X02277Y00323*
X02276Y00324*
X02275Y00324*
X02275Y00324*
X02275Y00324*
X02275Y00325*
X02274Y00325*
X02274Y00326*
X02273Y00327*
X02273Y00328*
Y00328*
Y00328*
X02273Y00329*
X02274Y0033*
X02274Y00331*
X02274Y00331*
X02274Y00331*
X02275Y00332*
X02276Y00332*
X02276Y00333*
X02277Y00333*
X02278Y00334*
X02279Y00334*
X02279*
X02279Y00334*
X0228Y00334*
X0228Y00335*
X02281Y00335*
X02283Y00336*
X02291Y00339*
X02291*
X02291Y00339*
X02292Y0034*
X02292Y0034*
X02293Y0034*
X02294Y00341*
X02296Y00342*
X02296Y00342*
X02296Y00342*
X02296Y00342*
X02297Y00343*
X02298Y00344*
X023Y00345*
X023Y00345*
X023Y00345*
X023Y00346*
X02301Y00346*
X02301Y00347*
X02302Y00348*
X02303Y0035*
Y0035*
X02303Y0035*
X02303Y00351*
X02303Y00352*
X02303Y00352*
X02303Y00353*
X02304Y00355*
Y00356*
Y00356*
Y00357*
X02304Y00357*
X02303Y00358*
X02303Y00359*
X02303Y0036*
X02303Y00362*
X02302Y00363*
X02302Y00363*
X02302Y00364*
X02301Y00364*
X02301Y00365*
X023Y00366*
X02299Y00367*
X02299Y00368*
X02297Y00369*
X02297Y00369*
X02297Y00369*
X02296Y0037*
X02295Y0037*
X02294Y00371*
X02293Y00372*
X02292Y00372*
X0229Y00373*
X0229Y00373*
X0229Y00373*
X02289Y00373*
X02288Y00373*
X02286Y00374*
X02285Y00374*
X02283Y00374*
X02281Y00374*
X02306*
G37*
G36*
X02193Y00297D02*
X02179D01*
X02173Y00276*
X02171Y00267*
X0217*
X02168Y00276*
X02162Y00297*
X02148*
Y00236*
X02166*
X02159*
Y00255*
Y00255*
Y00256*
Y00256*
Y00257*
Y00258*
Y00259*
X02159Y0026*
Y00261*
Y00262*
Y00262*
X02159Y00263*
Y00264*
X02159Y00265*
X02159Y00266*
X02159Y00269*
Y0027*
X02159Y0027*
Y00271*
X02158Y00272*
X02158Y00273*
X02158Y00274*
X02158Y00277*
Y00277*
X02158Y00278*
Y00279*
X02158Y00279*
X02158Y0028*
Y00281*
X02158Y00282*
X02157Y00283*
X02158*
X02162Y00267*
X02167Y00252*
X02174*
X02179Y00267*
X02183Y00283*
X02183*
Y00283*
Y00283*
X02183Y00282*
Y00282*
X02183Y00281*
X02183Y0028*
X02183Y00279*
X02183Y00277*
Y00277*
X02183Y00277*
Y00276*
X02183Y00275*
X02182Y00274*
Y00272*
X02182Y00271*
X02182Y00269*
Y00269*
X02182Y00269*
Y00268*
X02182Y00267*
Y00266*
X02182Y00264*
X02182Y00261*
Y00261*
Y00261*
X02182Y0026*
Y00259*
Y00258*
X02182Y00257*
Y00256*
Y00255*
Y00236*
X02193*
Y00297*
G37*
G36*
X02423D02*
X02369D01*
X02389Y00257*
Y00236*
X02403*
Y00257*
X02423Y00297*
Y00237*
Y00297*
G37*
G36*
X02308D02*
X02258D01*
Y00286*
X02276*
Y00236*
X02258*
X02308*
Y00297*
G37*
G36*
X02246D02*
X02206D01*
Y00286*
X02232*
Y00273*
X0221*
Y00262*
X02232*
Y00248*
X02205*
Y00236*
X02246*
Y00297*
G37*
G36*
X02476Y00299D02*
Y00235D01*
Y00299*
G37*
G36*
X02429D01*
X0245*
X02449Y00298*
X02447Y00298*
X02446Y00298*
X02444Y00298*
X02442Y00297*
X0244Y00296*
X0244*
X0244Y00296*
X02439Y00296*
X02438Y00296*
X02437Y00295*
X02435Y00294*
X02434Y00293*
X02432Y00292*
X02431Y0029*
X02438Y00282*
X02438Y00282*
X02438Y00282*
X02439Y00283*
X0244Y00283*
X02441Y00284*
X02442Y00284*
X02443Y00285*
X02444Y00285*
X02444Y00285*
X02445Y00285*
X02445Y00286*
X02446Y00286*
X02447Y00286*
X02449Y00286*
X0245Y00287*
X02452*
X02453Y00286*
X02454Y00286*
X02456Y00286*
X02456Y00286*
X02457Y00285*
X02457Y00285*
X02458Y00285*
X02458Y00285*
X02458Y00284*
X02459Y00284*
X02459Y00283*
X02459Y00282*
X02459Y00281*
Y00281*
Y00281*
X02459Y0028*
X02459Y00279*
X02459Y00279*
X02458Y00278*
X02457Y00277*
X02457Y00277*
X02456Y00277*
X02456Y00277*
X02456Y00276*
X02455Y00276*
X02454Y00275*
X02452Y00275*
X02451Y00274*
X02449Y00274*
X02442Y00271*
X02442*
X02442Y00271*
X02441Y0027*
X02441Y0027*
X0244Y0027*
X02438Y00269*
X02437Y00268*
X02435Y00267*
X02434Y00266*
X02432Y00264*
X02432Y00264*
X02432Y00264*
X02431Y00263*
X0243Y00262*
X0243Y0026*
X02429Y00258*
X02429Y00256*
X02429Y00254*
Y00253*
X02429Y00253*
X02429Y00252*
X02429Y00251*
X02429Y00249*
X0243Y00248*
X0243Y00247*
X0243Y00247*
X02431Y00246*
X02431Y00245*
X02431Y00245*
X02432Y00244*
X02433Y00243*
X02434Y00242*
X02435Y00241*
X02435Y00241*
X02435Y0024*
X02436Y0024*
X02437Y00239*
X02438Y00239*
X02439Y00238*
X02441Y00237*
X02442Y00237*
X02443Y00237*
X02443Y00236*
X02444Y00236*
X02445Y00236*
X02447Y00236*
X02449Y00235*
X0245Y00235*
X02453Y00235*
X0245*
X02454*
X02455Y00235*
X02456Y00235*
X02458Y00236*
X0246Y00236*
X02462Y00237*
X02465Y00237*
X02465*
X02465Y00237*
X02465Y00238*
X02466Y00238*
X02467Y00238*
X02468Y00239*
X0247Y0024*
X02472Y00241*
X02474Y00242*
X02476Y00244*
X02468Y00253*
X02468Y00253*
X02467Y00253*
X02467Y00252*
X02466Y00252*
X02464Y00251*
X02463Y0025*
X02462Y00249*
X0246Y00249*
X0246Y00249*
X02459Y00248*
X02459Y00248*
X02458Y00248*
X02456Y00247*
X02455Y00247*
X02453Y00247*
X02452Y00247*
X02451*
X0245Y00247*
X02449Y00247*
X02447Y00248*
X02446Y00248*
X02445Y00248*
X02445Y00249*
X02445Y00249*
X02444Y00249*
X02444Y0025*
X02443Y00251*
X02443Y00251*
X02443Y00252*
Y00252*
Y00253*
X02443Y00253*
X02443Y00254*
X02444Y00255*
X02444Y00255*
X02444Y00256*
X02445Y00256*
X02445Y00257*
X02446Y00257*
X02446Y00257*
X02447Y00258*
X02449Y00258*
X02449*
X02449Y00259*
X02449Y00259*
X0245Y00259*
X02451Y00259*
X02452Y0026*
X0246Y00264*
X0246*
X02461Y00264*
X02461Y00264*
X02462Y00264*
X02463Y00265*
X02463Y00265*
X02465Y00266*
X02465Y00266*
X02466Y00266*
X02466Y00266*
X02467Y00267*
X02468Y00268*
X02469Y00269*
X02469Y0027*
X0247Y0027*
X0247Y0027*
X0247Y00271*
X02471Y00272*
X02471Y00272*
X02472Y00274*
Y00274*
X02472Y00275*
X02473Y00275*
X02473Y00276*
X02473Y00277*
X02473Y00278*
X02473Y00279*
Y0028*
Y0028*
Y00281*
X02473Y00282*
X02473Y00283*
X02473Y00284*
X02473Y00285*
X02472Y00286*
X02472Y00287*
X02472Y00287*
X02471Y00288*
X02471Y00289*
X0247Y00289*
X0247Y0029*
X02469Y00291*
X02468Y00292*
X02467Y00293*
X02467Y00293*
X02467Y00294*
X02466Y00294*
X02465Y00295*
X02464Y00295*
X02463Y00296*
X02462Y00297*
X0246Y00297*
X0246Y00297*
X02459Y00297*
X02458Y00298*
X02457Y00298*
X02456Y00298*
X02454Y00298*
X02453Y00298*
X02451Y00299*
X02476*
G37*
G36*
X02363D02*
Y00235D01*
X02341*
X02342Y00235*
X02344Y00235*
X02345Y00236*
X02348Y00236*
X0235Y00237*
X02352Y00237*
X02352*
X02352Y00237*
X02353Y00238*
X02353Y00238*
X02354Y00238*
X02356Y00239*
X02357Y0024*
X02359Y00241*
X02361Y00242*
X02363Y00244*
X02355Y00253*
X02355Y00253*
X02354Y00253*
X02354Y00252*
X02353Y00252*
X02352Y00251*
X0235Y0025*
X02349Y00249*
X02347Y00249*
X02347Y00249*
X02347Y00248*
X02346Y00248*
X02345Y00248*
X02343Y00247*
X02342Y00247*
X0234Y00247*
X02339Y00247*
X02338*
X02337Y00247*
X02336Y00247*
X02334Y00248*
X02333Y00248*
X02332Y00248*
X02332Y00249*
X02332Y00249*
X02332Y00249*
X02331Y0025*
X0233Y00251*
X0233Y00251*
X0233Y00252*
Y00252*
Y00253*
X0233Y00253*
X0233Y00254*
X02331Y00255*
X02331Y00255*
X02331Y00256*
X02332Y00256*
X02333Y00257*
X02333Y00257*
X02334Y00257*
X02334Y00258*
X02336Y00258*
X02336*
X02336Y00259*
X02336Y00259*
X02337Y00259*
X02338Y00259*
X0234Y0026*
X02348Y00264*
X02348*
X02348Y00264*
X02348Y00264*
X02349Y00264*
X0235Y00265*
X02351Y00265*
X02352Y00266*
X02353Y00266*
X02353Y00266*
X02353Y00266*
X02354Y00267*
X02355Y00268*
X02357Y00269*
X02357Y0027*
X02357Y0027*
X02357Y0027*
X02358Y00271*
X02358Y00272*
X02359Y00272*
X02359Y00274*
Y00274*
X0236Y00275*
X0236Y00275*
X0236Y00276*
X0236Y00277*
X0236Y00278*
X02361Y00279*
Y0028*
Y0028*
Y00281*
X0236Y00282*
X0236Y00283*
X0236Y00284*
X0236Y00285*
X02359Y00286*
X02359Y00287*
X02359Y00287*
X02359Y00288*
X02358Y00289*
X02358Y00289*
X02357Y0029*
X02356Y00291*
X02355Y00292*
X02354Y00293*
X02354Y00293*
X02354Y00294*
X02353Y00294*
X02352Y00295*
X02351Y00295*
X0235Y00296*
X02349Y00297*
X02347Y00297*
X02347Y00297*
X02346Y00297*
X02346Y00298*
X02344Y00298*
X02343Y00298*
X02342Y00298*
X0234Y00298*
X02338Y00299*
X02363*
X02337*
X02336Y00298*
X02335Y00298*
X02333Y00298*
X02331Y00298*
X02329Y00297*
X02327Y00296*
X02327*
X02327Y00296*
X02326Y00296*
X02325Y00296*
X02324Y00295*
X02323Y00294*
X02321Y00293*
X02319Y00292*
X02318Y0029*
X02325Y00282*
X02325Y00282*
X02325Y00282*
X02326Y00283*
X02327Y00283*
X02328Y00284*
X02329Y00284*
X0233Y00285*
X02331Y00285*
X02331Y00285*
X02332Y00285*
X02332Y00286*
X02333Y00286*
X02335Y00286*
X02336Y00286*
X02337Y00287*
X02339*
X0234Y00286*
X02341Y00286*
X02343Y00286*
X02344Y00286*
X02344Y00285*
X02345Y00285*
X02345Y00285*
X02345Y00285*
X02345Y00284*
X02346Y00284*
X02346Y00283*
X02346Y00282*
X02347Y00281*
Y00281*
Y00281*
X02346Y0028*
X02346Y00279*
X02346Y00279*
X02345Y00278*
X02345Y00277*
X02344Y00277*
X02344Y00277*
X02343Y00277*
X02343Y00276*
X02342Y00276*
X02341Y00275*
X0234Y00275*
X02338Y00274*
X02336Y00274*
X02329Y00271*
X02329*
X02329Y00271*
X02328Y0027*
X02328Y0027*
X02327Y0027*
X02326Y00269*
X02324Y00268*
X02322Y00267*
X02321Y00266*
X0232Y00264*
X02319Y00264*
X02319Y00264*
X02318Y00263*
X02318Y00262*
X02317Y0026*
X02316Y00258*
X02316Y00256*
X02316Y00254*
Y00253*
X02316Y00253*
X02316Y00252*
X02316Y00251*
X02317Y00249*
X02317Y00248*
X02318Y00247*
X02318Y00247*
X02318Y00246*
X02318Y00245*
X02319Y00245*
X02319Y00244*
X0232Y00243*
X02321Y00242*
X02322Y00241*
X02322Y00241*
X02323Y0024*
X02323Y0024*
X02324Y00239*
X02325Y00239*
X02327Y00238*
X02328Y00237*
X0233Y00237*
X0233Y00237*
X0233Y00236*
X02331Y00236*
X02333Y00236*
X02334Y00236*
X02336Y00235*
X02338Y00235*
X0234Y00235*
X02316*
X02363*
Y00299*
G37*
G36*
X02137D02*
D01*
Y00235*
Y00299*
G37*
G36*
X0209D01*
X02112*
X0211Y00298*
X02109Y00298*
X02107Y00298*
X02106Y00298*
X02104Y00297*
X02102Y00296*
X02101*
X02101Y00296*
X02101Y00296*
X021Y00296*
X02098Y00295*
X02097Y00294*
X02095Y00293*
X02094Y00292*
X02092Y0029*
X02099Y00282*
X02099Y00282*
X021Y00282*
X021Y00283*
X02101Y00283*
X02102Y00284*
X02103Y00284*
X02104Y00285*
X02106Y00285*
X02106Y00285*
X02106Y00285*
X02107Y00286*
X02108Y00286*
X02109Y00286*
X0211Y00286*
X02112Y00287*
X02114*
X02114Y00286*
X02115Y00286*
X02117Y00286*
X02118Y00286*
X02119Y00285*
X02119Y00285*
X02119Y00285*
X0212Y00285*
X0212Y00284*
X0212Y00284*
X02121Y00283*
X02121Y00282*
X02121Y00281*
Y00281*
Y00281*
X02121Y0028*
X02121Y00279*
X0212Y00279*
X0212Y00278*
X02119Y00277*
X02118Y00277*
X02118Y00277*
X02118Y00277*
X02117Y00276*
X02116Y00276*
X02115Y00275*
X02114Y00275*
X02113Y00274*
X02111Y00274*
X02103Y00271*
X02103*
X02103Y00271*
X02103Y0027*
X02102Y0027*
X02101Y0027*
X021Y00269*
X02099Y00268*
X02097Y00267*
X02095Y00266*
X02094Y00264*
X02094Y00264*
X02093Y00264*
X02093Y00263*
X02092Y00262*
X02091Y0026*
X02091Y00258*
X0209Y00256*
X0209Y00254*
Y00253*
X0209Y00253*
X02091Y00252*
X02091Y00251*
X02091Y00249*
X02091Y00248*
X02092Y00247*
X02092Y00247*
X02092Y00246*
X02093Y00245*
X02093Y00245*
X02094Y00244*
X02095Y00243*
X02095Y00242*
X02097Y00241*
X02097Y00241*
X02097Y0024*
X02098Y0024*
X02099Y00239*
X021Y00239*
X02101Y00238*
X02102Y00237*
X02104Y00237*
X02104Y00237*
X02105Y00236*
X02106Y00236*
X02107Y00236*
X02108Y00236*
X0211Y00235*
X02112Y00235*
X02114Y00235*
X02112*
X02115*
X02116Y00235*
X02118Y00235*
X0212Y00236*
X02122Y00236*
X02124Y00237*
X02126Y00237*
X02127*
X02127Y00237*
X02127Y00238*
X02127Y00238*
X02129Y00238*
X0213Y00239*
X02132Y0024*
X02134Y00241*
X02135Y00242*
X02137Y00244*
X02129Y00253*
X02129Y00253*
X02129Y00253*
X02128Y00252*
X02127Y00252*
X02126Y00251*
X02125Y0025*
X02123Y00249*
X02122Y00249*
X02122Y00249*
X02121Y00248*
X0212Y00248*
X02119Y00248*
X02118Y00247*
X02116Y00247*
X02115Y00247*
X02113Y00247*
X02112*
X02112Y00247*
X02111Y00247*
X02108Y00248*
X02107Y00248*
X02107Y00248*
X02107Y00249*
X02106Y00249*
X02106Y00249*
X02106Y0025*
X02105Y00251*
X02105Y00251*
X02105Y00252*
Y00252*
Y00253*
X02105Y00253*
X02105Y00254*
X02105Y00255*
X02105Y00255*
X02106Y00256*
X02106Y00256*
X02107Y00257*
X02107Y00257*
X02108Y00257*
X02109Y00258*
X0211Y00258*
X0211*
X0211Y00259*
X02111Y00259*
X02111Y00259*
X02113Y00259*
X02114Y0026*
X02122Y00264*
X02122*
X02122Y00264*
X02123Y00264*
X02123Y00264*
X02124Y00265*
X02125Y00265*
X02127Y00266*
X02127Y00266*
X02127Y00266*
X02128Y00266*
X02128Y00267*
X0213Y00268*
X02131Y00269*
X02131Y0027*
X02131Y0027*
X02132Y0027*
X02132Y00271*
X02132Y00272*
X02133Y00272*
X02134Y00274*
Y00274*
X02134Y00275*
X02134Y00275*
X02134Y00276*
X02135Y00277*
X02135Y00278*
X02135Y00279*
Y0028*
Y0028*
Y00281*
X02135Y00282*
X02135Y00283*
X02134Y00284*
X02134Y00285*
X02134Y00286*
X02133Y00287*
X02133Y00287*
X02133Y00288*
X02133Y00289*
X02132Y00289*
X02131Y0029*
X02131Y00291*
X0213Y00292*
X02129Y00293*
X02129Y00293*
X02128Y00294*
X02127Y00294*
X02127Y00295*
X02126Y00295*
X02124Y00296*
X02123Y00297*
X02122Y00297*
X02121Y00297*
X02121Y00297*
X0212Y00298*
X02119Y00298*
X02118Y00298*
X02116Y00298*
X02114Y00298*
X02113Y00299*
X02137*
G37*
G36*
X00572Y01472D02*
X00565D01*
Y01464*
X00566Y01463*
X00567Y01463*
X00567Y01462*
X00568Y01461*
X00569Y01461*
X00569Y01461*
X0057Y0146*
X0057Y0146*
X0057Y0146*
X00571Y0146*
X00573Y01459*
X00574*
X00574Y01459*
X00575*
X00576Y01459*
X00577Y01459*
X00577Y01459*
X00578Y0146*
X00579Y0146*
X00579Y0146*
X00579Y0146*
X00579Y01461*
X0058Y01461*
X00581Y01462*
X00581Y01463*
X00581Y01463*
X00581Y01464*
X00581Y01465*
Y01465*
Y01465*
X00581Y01466*
X00581Y01467*
X00581Y01468*
X00581Y01468*
X0058Y01469*
X00579Y0147*
X00579Y0147*
X00579Y0147*
X00577Y01471*
X00576Y01471*
X00576Y01471*
X00576Y01471*
X00575Y01472*
X00575*
X00573Y01472*
X00572Y01472*
G37*
G36*
X00361Y01491D02*
X00359D01*
X00358Y01491*
X00357Y0149*
X00356Y0149*
X00355Y0149*
X00355Y0149*
X00355Y0149*
X00355*
X00353Y01489*
X00352Y01487*
X00352Y01487*
X00352Y01487*
X00351Y01486*
Y01486*
X00351Y01485*
X0035Y01483*
X0035Y01482*
X0035Y01482*
X0035Y01482*
Y01481*
X00349Y01479*
X00349Y01478*
Y01477*
X00349Y01477*
Y01476*
Y01475*
Y01475*
Y01474*
X00349Y01473*
X00349Y01472*
X00349Y01471*
X00349Y0147*
X0035Y01469*
X0035Y01469*
Y01469*
X0035Y01467*
X00351Y01466*
X00351Y01466*
X00351Y01465*
X00352Y01465*
X00352Y01464*
X00352Y01464*
X00353Y01463*
X00354Y01462*
X00354Y01462*
X00355Y01461*
X00355Y01461*
X00355*
X00357Y01461*
X00358Y0146*
X00359Y0146*
X00361*
X00362Y0146*
X00363Y01461*
X00364Y01461*
X00365Y01461*
X00365Y01461*
X00365Y01461*
X00365*
X00367Y01462*
X00368Y01463*
X00368Y01464*
X00369Y01464*
X00369Y01464*
X00369Y01464*
X0037Y01466*
X0037Y01468*
X0037Y01468*
X0037Y01469*
X00371Y01469*
Y01469*
X00371Y01471*
X00371Y01472*
Y01473*
X00371Y01474*
Y01475*
Y01475*
Y01475*
Y01477*
X00371Y01478*
X00371Y01479*
X00371Y0148*
Y01481*
X00371Y01481*
X0037Y01482*
Y01482*
X0037Y01484*
X00369Y01485*
X00369Y01485*
X00369Y01486*
X00369Y01486*
X00368Y01487*
Y01487*
X00367Y01488*
X00366Y01489*
X00366Y01489*
X00365Y01489*
X00365Y0149*
X00365*
X00363Y0149*
X00362Y01491*
X00361Y01491*
G37*
%LNmashiro_fs-3*%
%LPD*%
G36*
X02465Y00359D02*
Y00359D01*
X02465Y00358*
Y00357*
X02465Y00356*
X02465Y00355*
X02464Y00354*
X02464Y00353*
Y00353*
X02464Y00352*
Y00351*
X02464Y0035*
X02464Y00349*
Y00348*
X02464Y00347*
X02464Y00345*
Y00345*
X02464Y00344*
Y00344*
X02464Y00343*
Y00341*
X02463Y0034*
X02463Y00337*
Y00337*
Y00336*
X02463Y00336*
Y00335*
Y00334*
X02463Y00333*
Y00332*
Y00331*
Y00312*
X02441*
Y00331*
Y00331*
Y00331*
Y00332*
Y00332*
Y00333*
Y00334*
X02441Y00336*
Y00337*
Y00337*
Y00338*
X02441Y00339*
Y0034*
X0244Y00341*
X0244Y00342*
X0244Y00345*
Y00345*
X0244Y00346*
Y00347*
X0244Y00348*
X0244Y00349*
X0244Y0035*
X0244Y00353*
Y00353*
X02439Y00353*
Y00354*
X02439Y00355*
X02439Y00356*
Y00357*
X02439Y00358*
X02439Y00359*
X02439*
X02444Y00343*
X02449Y00328*
X02455*
X0246Y00343*
X02465Y00359*
X02465*
Y00359*
G37*
G36*
X02396Y00362D02*
X02396Y00362D01*
X02396Y00361*
X02397Y00359*
X02397Y00358*
X02397Y00356*
X02398Y00354*
X02398Y00352*
Y00352*
Y00352*
X02399Y00352*
X02399Y00351*
X02399Y00349*
X02399Y00348*
X024Y00346*
X02401Y00343*
X02402Y00337*
X02389*
X02391Y00343*
Y00343*
X02391Y00344*
X02391Y00345*
X02391Y00346*
X02392Y00347*
X02392Y00349*
X02393Y00351*
X02393Y00352*
Y00353*
X02393Y00353*
X02393Y00353*
X02394Y00354*
X02394Y00356*
X02394Y00357*
X02395Y00359*
X02396Y00362*
X02396*
Y00362*
G37*
G36*
X02409Y00312D02*
X02383D01*
X02386Y00326*
X02405*
X02409Y00312*
G37*
G36*
X02248Y00323D02*
X02233D01*
Y00361*
X02248*
Y00323*
G37*
G36*
X0217Y00362D02*
X02171Y00362D01*
X02171Y00361*
X02171Y00359*
X02171Y00358*
X02172Y00356*
X02172Y00354*
X02173Y00352*
Y00352*
Y00352*
X02173Y00352*
X02173Y00351*
X02174Y00349*
X02174Y00348*
X02174Y00346*
X02175Y00343*
X02177Y00337*
X02164*
X02165Y00343*
Y00343*
X02165Y00344*
X02166Y00345*
X02166Y00346*
X02166Y00347*
X02167Y00349*
X02167Y00351*
X02168Y00352*
Y00353*
X02168Y00353*
X02168Y00353*
X02168Y00354*
X02168Y00356*
X02169Y00357*
X02169Y00359*
X0217Y00362*
X0217*
Y00362*
G37*
G36*
X02183Y00312D02*
X02157D01*
X02161Y00326*
X02179*
X02183Y00312*
G37*
G36*
X02279Y00374D02*
X02278Y00374D01*
X02276Y00374*
X02274Y00373*
X02272Y00373*
X0227Y00372*
X0227*
X0227Y00372*
X02269Y00372*
X02268Y00371*
X02267Y00371*
X02266Y0037*
X02264Y00369*
X02263Y00367*
X02261Y00366*
X02268Y00357*
X02268Y00357*
X02268Y00358*
X02269Y00358*
X0227Y00359*
X02271Y00359*
X02272Y0036*
X02273Y0036*
X02274Y00361*
X02274Y00361*
X02275Y00361*
X02276Y00361*
X02277Y00362*
X02278Y00362*
X02279Y00362*
X0228Y00362*
X02283*
X02283Y00362*
X02284Y00362*
X02286Y00362*
X02287Y00361*
X02288Y00361*
X02288Y00361*
X02288Y00361*
X02288Y0036*
X02289Y0036*
X02289Y00359*
X02289Y00359*
X0229Y00358*
X0229Y00357*
Y00357*
Y00356*
X0229Y00356*
X02289Y00355*
X02289Y00354*
X02288Y00354*
X02288Y00353*
X02287Y00352*
X02287Y00352*
X02286Y00352*
X02286Y00352*
X02285Y00352*
X02284Y00351*
X02283Y00351*
X02281Y0035*
X0228Y00349*
X02272Y00346*
X02272*
X02272Y00346*
X02272Y00346*
X02271Y00346*
X0227Y00345*
X02269Y00345*
X02267Y00344*
X02266Y00343*
X02264Y00341*
X02263Y0034*
X02263Y0034*
X02262Y00339*
X02262Y00339*
X02261Y00337*
X0226Y00336*
X0226Y00334*
X02259Y00332*
X02259Y0033*
Y00374*
X0228*
X02279Y00374*
G37*
G36*
X02402Y00283D02*
X02401Y00283D01*
X02401Y00282*
X02401Y00281*
X02401Y0028*
X024Y00279*
X024Y00278*
X02399Y00276*
X02399Y00276*
X02399Y00275*
X02398Y00274*
X02398Y00273*
X02398Y00272*
X02397Y00271*
X02396Y00269*
X02396*
X02395Y00269*
X02395Y00269*
X02395Y0027*
X02395Y00271*
X02394Y00272*
X02394Y00273*
X02393Y00276*
X02393Y00276*
X02393Y00276*
X02392Y00277*
X02392Y00278*
X02391Y00279*
X02391Y0028*
X0239Y00283*
X02384Y00297*
X02408*
X02402Y00283*
G37*
G36*
X02308Y00236D02*
X0229D01*
Y00286*
X02308*
Y00236*
G37*
G54D11*
X00911Y00334D02*
Y00275D01*
X00931Y00334D02*
X00891D01*
X00842Y0032D02*
X00845Y00326D01*
X00851Y00331*
X00856Y00334*
X00867*
X00873Y00331*
X00879Y00326*
X00881Y0032*
X00884Y00312*
Y00298*
X00881Y00289*
X00879Y00284*
X00873Y00278*
X00867Y00275*
X00856*
X00851Y00278*
X00845Y00284*
X00842Y00289*
X00786Y00326D02*
X00792Y00331D01*
X008Y00334*
X00811*
X0082Y00331*
X00826Y00326*
Y0032*
X00823Y00314*
X0082Y00312*
X00814Y00309*
X00797Y00303*
X00792Y003*
X00789Y00298*
X00786Y00292*
Y00284*
X00792Y00278*
X008Y00275*
X00811*
X0082Y00278*
X00826Y00284*
X00724Y0032D02*
Y00323D01*
X00721Y00329*
X00718Y00331*
X00713Y00334*
X00701*
X00696Y00331*
X00693Y00329*
X0069Y00323*
Y00317*
X00693Y00312*
X00698Y00303*
X00727Y00275*
X00687*
X00657Y00334D02*
X00666Y00331D01*
X00671Y00323*
X00674Y00309*
Y003*
X00671Y00286*
X00666Y00278*
X00657Y00275*
X00652*
X00643Y00278*
X00637Y00286*
X00635Y003*
Y00309*
X00637Y00323*
X00643Y00331*
X00652Y00334*
X00657*
X00619Y0032D02*
Y00323D01*
X00616Y00329*
X00613Y00331*
X00607Y00334*
X00596*
X0059Y00331*
X00588Y00329*
X00585Y00323*
Y00317*
X00588Y00312*
X00593Y00303*
X00621Y00275*
X00582*
X00552Y00334D02*
X0056Y00331D01*
X00566Y00323*
X00569Y00309*
Y003*
X00566Y00286*
X0056Y00278*
X00552Y00275*
X00546*
X00538Y00278*
X00532Y00286*
X00529Y003*
Y00309*
X00532Y00323*
X00538Y00331*
X00546Y00334*
X00552*
X0047Y00323D02*
X00464Y00326D01*
X00456Y00334*
Y00275*
X0041Y00334D02*
X00418Y00331D01*
X00424Y00323*
X00427Y00309*
Y003*
X00424Y00286*
X00418Y00278*
X0041Y00275*
X00404*
X00396Y00278*
X0039Y00286*
X00387Y003*
Y00309*
X0039Y00323*
X00396Y00331*
X00404Y00334*
X0041*
G54D68*
X01538Y00397D02*
D01*
X01535Y004*
X01532Y00402*
X01529Y00405*
X01525Y00407*
X01521Y00409*
X01518Y0041*
X01514Y00411*
X0151Y00413*
X01506Y00413*
X01502Y00414*
X01497Y00414*
X01496Y00414*
X01449D02*
D01*
X01445Y00414*
X01441Y00413*
X01437Y00413*
X01433Y00412*
X01429Y00411*
X01425Y00409*
X01422Y00407*
X01418Y00405*
X01415Y00403*
X01412Y004*
X01408Y00398*
X01408Y00397*
X01436Y00353D02*
D01*
X01434Y00351*
X01432Y00348*
X0143Y00345*
X01428Y00342*
X01426Y00339*
X01425Y00336*
X01424Y00333*
X01423Y00329*
X01422Y00326*
X01422Y00323*
X01422Y00319*
X01422Y00318*
X01507Y00342D02*
D01*
X01504Y00339*
X01502Y00336*
X01499Y00333*
X01497Y00329*
X01495Y00326*
X01494Y00322*
X01493Y00318*
X01492Y00314*
X01491Y0031*
X0149Y00306*
X0149Y00302*
X0149Y00301*
X01473Y00349D02*
D01*
X0147Y00346*
X01468Y00343*
X01465Y0034*
X01463Y00336*
X01461Y00332*
X0146Y00329*
X01458Y00325*
X01457Y00321*
X01457Y00317*
X01456Y00313*
X01456Y00309*
X01456Y00308*
X01408Y00305D02*
D01*
X01411Y00302*
X01414Y00299*
X01417Y00297*
X01421Y00295*
X01425Y00293*
X01428Y00291*
X01432Y0029*
X01436Y00289*
X0144Y00288*
X01444Y00288*
X01448Y00287*
X01449Y00287*
X01496D02*
D01*
X01501Y00288*
X01505Y00288*
X01509Y00289*
X01513Y0029*
X01517Y00291*
X0152Y00293*
X01524Y00294*
X01528Y00296*
X01531Y00299*
X01534Y00301*
X01537Y00304*
X01538Y00305*
X01507Y00342D02*
D01*
X0151Y00345*
X01513Y00348*
X01515Y00352*
X01517Y00355*
X01519Y00359*
X0152Y00363*
X01522Y00366*
X01523Y0037*
X01524Y00374*
X01524Y00378*
X01524Y00382*
X01524Y00383*
X01439Y00356D02*
D01*
X01441Y00359*
X01444Y00362*
X01446Y00365*
X01448Y00369*
X0145Y00373*
X01452Y00376*
X01453Y0038*
X01454Y00384*
X01455Y00388*
X01456Y00392*
X01456Y00396*
X01456Y00397*
X01401Y00321D02*
D01*
X01401Y00319*
X01401Y00318*
X01402Y00316*
X01402Y00315*
X01402Y00313*
X01403Y00312*
X01404Y0031*
X01405Y00309*
X01405Y00307*
X01406Y00306*
X01407Y00305*
X01408Y00305*
X01538D02*
D01*
X01539Y00306*
X0154Y00307*
X01541Y00308*
X01542Y0031*
X01543Y00311*
X01543Y00313*
X01544Y00314*
X01544Y00316*
X01545Y00317*
X01545Y00319*
X01545Y0032*
X01545Y00321*
X01408Y00397D02*
D01*
X01407Y00396*
X01406Y00394*
X01405Y00393*
X01404Y00392*
X01403Y0039*
X01403Y00389*
X01402Y00387*
X01402Y00386*
X01401Y00384*
X01401Y00383*
X01401Y00381*
Y00381*
X01473Y00349D02*
D01*
X01476Y00352*
X01478Y00355*
X01481Y00359*
X01483Y00362*
X01485Y00366*
X01486Y00369*
X01487Y00373*
X01489Y00377*
X01489Y00381*
X0149Y00385*
X0149Y00389*
X0149Y0039*
X01545Y00381D02*
D01*
X01545Y00382*
X01545Y00384*
X01544Y00385*
X01544Y00387*
X01543Y00388*
X01543Y0039*
X01542Y00391*
X01541Y00393*
X0154Y00394*
X01539Y00395*
X01538Y00397*
X01538Y00397*
X01524Y00318D02*
Y00383D01*
X01401Y00321D02*
Y00352D01*
X01422Y00318D02*
Y00383D01*
X0149Y00301D02*
Y004D01*
X01456Y00301D02*
Y004D01*
X0149Y00414D02*
X01496D01*
X01449D02*
X0149D01*
X01545Y00321D02*
Y00349D01*
X01449Y00287D02*
X0149D01*
X01496*
X01436Y00353D02*
X01439Y00356D01*
X01401Y00352D02*
Y00381D01*
X01507Y00342D02*
X01507Y00342D01*
X01456Y0039D02*
Y004D01*
Y00397D02*
Y004D01*
X0149Y0039D02*
Y004D01*
Y0039D02*
Y004D01*
X01545Y00349D02*
Y00381D01*
G54D69*
X00349Y01566D02*
X00413Y01619D01*
X00361Y01627D02*
X00408Y0157D01*
X00648Y01599D02*
X00712Y01652D01*
X00708Y01603D02*
X00772Y01657D01*
X00712Y01652D02*
X00757Y01599D01*
X00472Y01624D02*
X00536Y01678D01*
X00408Y0157D02*
X00472Y01624D01*
X00413Y01619D02*
X00477Y01673D01*
X0059Y01614D02*
X00644Y0155D01*
X00708Y01603*
X00584Y01545D02*
X00648Y01599D01*
X00477Y01673D02*
X0053Y01609D01*
X00536Y01678D02*
X0059Y01614D01*
X0053Y01609D02*
X00584Y01545D01*
G54D70*
X01337Y00397D02*
X01339Y00401D01*
X01344Y00406*
X01348Y00408*
X01357*
X01362Y00406*
X01366Y00401*
X01369Y00397*
X01371Y0039*
Y00379*
X01369Y00372*
X01366Y00367*
X01362Y00363*
X01357Y00361*
X01348*
X01344Y00363*
X01339Y00367*
X01337Y00372*
X01324Y00392D02*
Y00361D01*
Y00379D02*
X01322Y00385D01*
X01317Y0039*
X01313Y00392*
X01306*
X01297Y00408D02*
X01295Y00406D01*
X01292Y00408*
X01295Y0041*
X01297Y00408*
X01295Y00392D02*
Y00361D01*
X01277Y00408D02*
Y0037D01*
X01275Y00363*
X01271Y00361*
X01266*
X01284Y00392D02*
X01268D01*
X01259Y00379D02*
X01232D01*
Y00383*
X01235Y00388*
X01237Y0039*
X01241Y00392*
X01248*
X01253Y0039*
X01257Y00385*
X01259Y00379*
Y00374*
X01257Y00367*
X01253Y00363*
X01248Y00361*
X01241*
X01237Y00363*
X01232Y00367*
X01222Y00392D02*
Y00361D01*
Y00379D02*
X0122Y00385D01*
X01216Y0039*
X01211Y00392*
X01204*
X01196Y00408D02*
X01193Y00406D01*
X01191Y00408*
X01193Y0041*
X01196Y00408*
X01193Y00392D02*
Y00361D01*
X01171Y00392D02*
X01176Y0039D01*
X0118Y00385*
X01183Y00379*
Y00374*
X0118Y00367*
X01176Y00363*
X01171Y00361*
X01165*
X0116Y00363*
X01156Y00367*
X01153Y00374*
Y00379*
X01156Y00385*
X0116Y0039*
X01165Y00392*
X01171*
X01143D02*
Y00361D01*
Y00383D02*
X01136Y0039D01*
X01132Y00392*
X01125*
X01121Y0039*
X01118Y00383*
Y00361*
X01425Y00249D02*
X01418Y00223D01*
X0141Y00249D02*
X01418Y00223D01*
X0141Y00249D02*
X01403Y00223D01*
X01395Y00249D02*
X01403Y00223D01*
X01386Y00249D02*
X01379Y00223D01*
X01371Y00249D02*
X01379Y00223D01*
X01371Y00249D02*
X01364Y00223D01*
X01356Y00249D02*
X01364Y00223D01*
X01347Y00249D02*
X0134Y00223D01*
X01332Y00249D02*
X0134Y00223D01*
X01332Y00249D02*
X01325Y00223D01*
X01317Y00249D02*
X01325Y00223D01*
X01306Y00226D02*
X01308Y00225D01*
X01306Y00223*
X01304Y00225*
X01306Y00226*
X01273Y00243D02*
X01277Y00247D01*
X01281Y00249*
X01286*
X0129Y00247*
X01294Y00243*
X01296Y00238*
Y00234*
X01294Y00228*
X0129Y00225*
X01286Y00223*
X01281*
X01277Y00225*
X01273Y00228*
X01244Y00243D02*
X01246Y00247D01*
X01251Y00249*
X01257*
X01263Y00247*
X01265Y00243*
X01263Y0024*
X01259Y00238*
X0125Y00236*
X01246Y00234*
X01244Y0023*
Y00228*
X01246Y00225*
X01251Y00223*
X01257*
X01263Y00225*
X01265Y00228*
X01236Y00249D02*
X01228Y00223D01*
X01221Y00249D02*
X01228Y00223D01*
X01221Y00249D02*
X01213Y00223D01*
X01206Y00249D02*
X01213Y00223D01*
X01195Y00226D02*
X01197Y00225D01*
X01195Y00223*
X01193Y00225*
X01195Y00226*
X01162Y00243D02*
X01165Y00247D01*
X01169Y00249*
X01175*
X01179Y00247*
X01182Y00243*
X01184Y00238*
Y00234*
X01182Y00228*
X01179Y00225*
X01175Y00223*
X01169*
X01165Y00225*
X01162Y00228*
X01153Y00249D02*
X01133Y00223D01*
Y00249D02*
X01153Y00223D01*
X01339Y00338D02*
X01344Y00343D01*
X01351Y00345*
X0136*
X01366Y00343*
X01371Y00338*
Y00334*
X01369Y00329*
X01366Y00327*
X01362Y00325*
X01348Y0032*
X01344Y00318*
X01342Y00316*
X01339Y00311*
Y00304*
X01344Y003*
X01351Y00298*
X0136*
X01366Y003*
X01371Y00304*
X01324Y00345D02*
X01322Y00343D01*
X0132Y00345*
X01322Y00347*
X01324Y00345*
X01322Y00329D02*
Y00298D01*
X01284Y00329D02*
Y00293D01*
X01287Y00286*
X01289Y00284*
X01293Y00282*
X013*
X01305Y00284*
X01284Y00322D02*
X01289Y00327D01*
X01293Y00329*
X013*
X01305Y00327*
X01309Y00322*
X01311Y00316*
Y00311*
X01309Y00304*
X01305Y003*
X013Y00298*
X01293*
X01289Y003*
X01284Y00304*
X01272Y00329D02*
Y00298D01*
Y0032D02*
X01265Y00327D01*
X01261Y00329*
X01254*
X01249Y00327*
X01247Y0032*
Y00298*
X01208Y00329D02*
Y00298D01*
Y00322D02*
X01212Y00327D01*
X01217Y00329*
X01223*
X01228Y00327*
X01232Y00322*
X01235Y00316*
Y00311*
X01232Y00304*
X01228Y003*
X01223Y00298*
X01217*
X01212Y003*
X01208Y00304*
X01195Y00345D02*
Y00298D01*
X01185Y00329D02*
X01176Y00298D01*
X01167Y00329D02*
X01176Y00298D01*
X01167Y00329D02*
X01158Y00298D01*
X01149Y00329D02*
X01158Y00298D01*
X01127Y00329D02*
X01131Y00327D01*
X01136Y00322*
X01138Y00316*
Y00311*
X01136Y00304*
X01131Y003*
X01127Y00298*
X0112*
X01116Y003*
X01111Y00304*
X01109Y00311*
Y00316*
X01111Y00322*
X01116Y00327*
X0112Y00329*
X01127*
X01099D02*
Y00298D01*
Y00316D02*
X01096Y00322D01*
X01092Y00327*
X01087Y00329*
X01081*
X01076Y00345D02*
Y00298D01*
X01054Y00329D02*
X01076Y00307D01*
X01067Y00316D02*
X01052Y00298D01*
X01019Y00322D02*
X01022Y00327D01*
X01028Y00329*
X01035*
X01042Y00327*
X01044Y00322*
X01042Y00318*
X01037Y00316*
X01026Y00313*
X01022Y00311*
X01019Y00307*
Y00304*
X01022Y003*
X01028Y00298*
X01035*
X01042Y003*
X01044Y00304*
M02*