%FSTAX23Y23*%
%MOIN*%
%SFA1B1*%

%IPPOS*%
%AMD13*
4,1,4,0.018000,-0.001300,-0.001300,0.018000,-0.018000,0.001300,0.001300,-0.018000,0.018000,-0.001300,0.0*
%
%AMD15*
4,1,8,-0.022600,-0.005900,0.022600,-0.005900,0.025600,-0.003000,0.025600,0.003000,0.022600,0.005900,-0.022600,0.005900,-0.025600,0.003000,-0.025600,-0.003000,-0.022600,-0.005900,0.0*
1,1,0.005900,-0.022600,-0.003000*
1,1,0.005900,0.022600,-0.003000*
1,1,0.005900,0.022600,0.003000*
1,1,0.005900,-0.022600,0.003000*
%
%AMD16*
4,1,8,0.013800,-0.002500,0.013800,0.002500,0.011300,0.004900,-0.011300,0.004900,-0.013800,0.002500,-0.013800,-0.002500,-0.011300,-0.004900,0.011300,-0.004900,0.013800,-0.002500,0.0*
1,1,0.004920,0.011300,-0.002500*
1,1,0.004920,0.011300,0.002500*
1,1,0.004920,-0.011300,0.002500*
1,1,0.004920,-0.011300,-0.002500*
%
%AMD17*
4,1,8,-0.002500,-0.013800,0.002500,-0.013800,0.004900,-0.011300,0.004900,0.011300,0.002500,0.013800,-0.002500,0.013800,-0.004900,0.011300,-0.004900,-0.011300,-0.002500,-0.013800,0.0*
1,1,0.004920,-0.002500,-0.011300*
1,1,0.004920,0.002500,-0.011300*
1,1,0.004920,0.002500,0.011300*
1,1,0.004920,-0.002500,0.011300*
%
%AMD20*
4,1,8,0.012800,0.005900,-0.012800,0.005900,-0.015700,0.003000,-0.015700,-0.003000,-0.012800,-0.005900,0.012800,-0.005900,0.015700,-0.003000,0.015700,0.003000,0.012800,0.005900,0.0*
1,1,0.005900,0.012800,0.003000*
1,1,0.005900,-0.012800,0.003000*
1,1,0.005900,-0.012800,-0.003000*
1,1,0.005900,0.012800,-0.003000*
%
%AMD21*
4,1,8,0.003100,-0.006600,0.006600,-0.003100,0.006600,0.000400,0.000400,0.006600,-0.003100,0.006600,-0.006600,0.003100,-0.006600,-0.000400,-0.000400,-0.006600,0.003100,-0.006600,0.0*
1,1,0.004920,0.001300,-0.004900*
1,1,0.004920,0.004900,-0.001300*
1,1,0.004920,-0.001300,0.004900*
1,1,0.004920,-0.004900,0.001300*
%
%AMD22*
4,1,8,0.003100,-0.006600,0.006600,-0.003100,0.006600,0.000400,0.000400,0.006600,-0.003100,0.006600,-0.006600,0.003100,-0.006600,-0.000400,-0.000400,-0.006600,0.003100,-0.006600,0.0*
1,1,0.004920,0.001300,-0.004900*
1,1,0.004920,0.004900,-0.001300*
1,1,0.004920,-0.001300,0.004900*
1,1,0.004920,-0.004900,0.001300*
%
%AMD23*
4,1,8,-0.002100,-0.021600,0.021600,0.002100,0.021600,0.011800,0.011800,0.021600,0.002100,0.021600,-0.021600,-0.002100,-0.021600,-0.011800,-0.011800,-0.021600,-0.002100,-0.021600,0.0*
1,1,0.013780,-0.006900,-0.016700*
1,1,0.013780,0.016700,0.006900*
1,1,0.013780,0.006900,0.016700*
1,1,0.013780,-0.016700,-0.006900*
%
%AMD24*
4,1,8,0.002500,0.013800,-0.002500,0.013800,-0.004900,0.011300,-0.004900,-0.011300,-0.002500,-0.013800,0.002500,-0.013800,0.004900,-0.011300,0.004900,0.011300,0.002500,0.013800,0.0*
1,1,0.004920,0.002500,0.011300*
1,1,0.004920,-0.002500,0.011300*
1,1,0.004920,-0.002500,-0.011300*
1,1,0.004920,0.002500,-0.011300*
%
%AMD25*
4,1,8,-0.013800,0.002500,-0.013800,-0.002500,-0.011300,-0.004900,0.011300,-0.004900,0.013800,-0.002500,0.013800,0.002500,0.011300,0.004900,-0.011300,0.004900,-0.013800,0.002500,0.0*
1,1,0.004920,-0.011300,0.002500*
1,1,0.004920,-0.011300,-0.002500*
1,1,0.004920,0.011300,-0.002500*
1,1,0.004920,0.011300,0.002500*
%
%AMD26*
4,1,8,-0.009800,0.003000,-0.009800,-0.003000,-0.006900,-0.005900,0.006900,-0.005900,0.009800,-0.003000,0.009800,0.003000,0.006900,0.005900,-0.006900,0.005900,-0.009800,0.003000,0.0*
1,1,0.005900,-0.006900,0.003000*
1,1,0.005900,-0.006900,-0.003000*
1,1,0.005900,0.006900,-0.003000*
1,1,0.005900,0.006900,0.003000*
%
%AMD27*
4,1,8,0.005900,-0.012800,0.005900,0.012800,0.003000,0.015700,-0.003000,0.015700,-0.005900,0.012800,-0.005900,-0.012800,-0.003000,-0.015700,0.003000,-0.015700,0.005900,-0.012800,0.0*
1,1,0.005900,0.003000,-0.012800*
1,1,0.005900,0.003000,0.012800*
1,1,0.005900,-0.003000,0.012800*
1,1,0.005900,-0.003000,-0.012800*
%
%AMD28*
4,1,8,-0.015700,0.002700,-0.015700,-0.002700,-0.012900,-0.005500,0.012900,-0.005500,0.015700,-0.002700,0.015700,0.002700,0.012900,0.005500,-0.012900,0.005500,-0.015700,0.002700,0.0*
1,1,0.005520,-0.012900,0.002700*
1,1,0.005520,-0.012900,-0.002700*
1,1,0.005520,0.012900,-0.002700*
1,1,0.005520,0.012900,0.002700*
%
%AMD29*
4,1,8,-0.005500,0.012900,-0.005500,-0.012900,-0.002700,-0.015700,0.002700,-0.015700,0.005500,-0.012900,0.005500,0.012900,0.002700,0.015700,-0.002700,0.015700,-0.005500,0.012900,0.0*
1,1,0.005520,-0.002700,0.012900*
1,1,0.005520,-0.002700,-0.012900*
1,1,0.005520,0.002700,-0.012900*
1,1,0.005520,0.002700,0.012900*
%
%ADD12R,0.023620X0.027560*%
G04~CAMADD=13~9~0.0~0.0~275.6~236.2~0.0~0.0~0~0.0~0.0~0.0~0.0~0~0.0~0.0~0.0~0.0~0~0.0~0.0~0.0~315.0~360.0~359.0*
%ADD13D13*%
%ADD14R,0.027560X0.023620*%
G04~CAMADD=15~8~0.0~0.0~511.8~118.1~29.5~0.0~15~0.0~0.0~0.0~0.0~0~0.0~0.0~0.0~0.0~0~0.0~0.0~0.0~180.0~512.0~118.0*
%ADD15D15*%
G04~CAMADD=16~8~0.0~0.0~98.4~275.6~24.6~0.0~15~0.0~0.0~0.0~0.0~0~0.0~0.0~0.0~0.0~0~0.0~0.0~0.0~270.0~276.0~98.0*
%ADD16D16*%
G04~CAMADD=17~8~0.0~0.0~98.4~275.6~24.6~0.0~15~0.0~0.0~0.0~0.0~0~0.0~0.0~0.0~0.0~0~0.0~0.0~0.0~180.0~99.0~276.0*
%ADD17D17*%
%ADD18R,0.110240X0.110240*%
%ADD19R,0.027560X0.049210*%
G04~CAMADD=20~8~0.0~0.0~315.0~118.1~29.5~0.0~15~0.0~0.0~0.0~0.0~0~0.0~0.0~0.0~0.0~0~0.0~0.0~0.0~0.0~315.0~118.1*
%ADD20D20*%
G04~CAMADD=21~8~0.0~0.0~98.4~137.8~24.6~0.0~15~0.0~0.0~0.0~0.0~0~0.0~0.0~0.0~0.0~0~0.0~0.0~0.0~225.0~148.0~148.0*
%ADD21D21*%
G04~CAMADD=22~8~0.0~0.0~98.4~137.8~24.6~0.0~15~0.0~0.0~0.0~0.0~0~0.0~0.0~0.0~0.0~0~0.0~0.0~0.0~225.0~148.0~148.0*
%ADD22D22*%
G04~CAMADD=23~8~0.0~0.0~472.4~275.6~68.9~0.0~15~0.0~0.0~0.0~0.0~0~0.0~0.0~0.0~0.0~0~0.0~0.0~0.0~225.0~471.0~471.0*
%ADD23D23*%
G04~CAMADD=24~8~0.0~0.0~98.4~275.6~24.6~0.0~15~0.0~0.0~0.0~0.0~0~0.0~0.0~0.0~0.0~0~0.0~0.0~0.0~0.0~98.4~275.6*
%ADD24D24*%
G04~CAMADD=25~8~0.0~0.0~98.4~275.6~24.6~0.0~15~0.0~0.0~0.0~0.0~0~0.0~0.0~0.0~0.0~0~0.0~0.0~0.0~90.0~276.0~99.0*
%ADD25D25*%
G04~CAMADD=26~8~0.0~0.0~118.1~196.8~29.5~0.0~15~0.0~0.0~0.0~0.0~0~0.0~0.0~0.0~0.0~0~0.0~0.0~0.0~90.0~196.0~118.0*
%ADD26D26*%
G04~CAMADD=27~8~0.0~0.0~315.0~118.1~29.5~0.0~15~0.0~0.0~0.0~0.0~0~0.0~0.0~0.0~0.0~0~0.0~0.0~0.0~270.0~118.0~315.0*
%ADD27D27*%
G04~CAMADD=28~8~0.0~0.0~110.2~313.3~27.6~0.0~15~0.0~0.0~0.0~0.0~0~0.0~0.0~0.0~0.0~0~0.0~0.0~0.0~90.0~314.0~111.0*
%ADD28D28*%
G04~CAMADD=29~8~0.0~0.0~313.3~110.2~27.6~0.0~15~0.0~0.0~0.0~0.0~0~0.0~0.0~0.0~0.0~0~0.0~0.0~0.0~90.0~111.0~314.0*
%ADD29D29*%
%ADD30R,0.106300X0.106300*%
%LNmashiro_fs-1*%
%LPD*%
G36*
X01198Y01305D02*
X01151D01*
Y01257*
X01198*
Y01305*
G37*
G36*
Y0136D02*
X01151D01*
Y01312*
X01198*
Y0136*
G37*
G36*
X01253Y01305D02*
X01206D01*
Y01257*
X01253*
Y01305*
G37*
G36*
Y0136D02*
X01206D01*
Y01312*
X01253*
Y0136*
G37*
G54D12*
X01417Y01318D03*
X01456D03*
X01564Y00413D03*
X01525D03*
X01929Y01318D03*
X01968D03*
X02352Y00836D03*
X02391D03*
X02588Y00521D03*
X02627D03*
X01594Y0059D03*
X01555D03*
X01574Y00472D03*
X01535D03*
X01584Y00531D03*
X01545D03*
G54D13*
X01234Y00988D03*
X01206Y0096D03*
X01127D03*
X01155Y00988D03*
X01049Y0096D03*
X01076Y00988D03*
X0097Y0096D03*
X00998Y00988D03*
G54D14*
X01505Y00974D03*
Y00935D03*
X02007Y01131D03*
Y01171D03*
X01919Y01131D03*
Y01171D03*
X02431Y00561D03*
Y00521D03*
X02509Y00561D03*
Y00521D03*
X0123Y00383D03*
Y00423D03*
X01131Y00383D03*
Y00423D03*
X0121Y01476D03*
Y01515D03*
X01279Y01476D03*
Y01515D03*
X01574Y01062D03*
Y01102D03*
X0183Y01131D03*
Y01171D03*
X02657Y01161D03*
Y01122D03*
X02086Y00866D03*
Y00905D03*
X02244Y00866D03*
Y00905D03*
X01358Y00875D03*
Y00915D03*
G54D15*
X01072Y00833D03*
Y00808D03*
Y00783D03*
Y00758D03*
Y00733D03*
Y00708D03*
Y00683D03*
Y00658D03*
Y00633D03*
Y00608D03*
Y00583D03*
Y00558D03*
Y00533D03*
Y00508D03*
X01289Y00833D03*
Y00808D03*
Y00783D03*
Y00758D03*
Y00733D03*
Y00708D03*
Y00683D03*
Y00658D03*
Y00633D03*
Y00608D03*
Y00583D03*
Y00558D03*
Y00533D03*
Y00508D03*
G54D16*
X01125Y01358D03*
Y01338D03*
Y01318D03*
Y01299D03*
Y01279D03*
Y01259D03*
X01279D03*
Y01279D03*
Y01299D03*
Y01318D03*
Y01338D03*
Y01358D03*
G54D17*
X01153Y01232D03*
X01173D03*
X01192D03*
X01212D03*
X01232D03*
X01251D03*
Y01385D03*
X01232D03*
X01212D03*
X01192D03*
X01173D03*
X01153D03*
G54D18*
X01202Y01309D03*
G54D19*
X01474Y01151D03*
X01399D03*
X01437Y01053D03*
G54D20*
X02139Y01049D03*
X0219Y00998D03*
Y01023D03*
Y01049D03*
X02139Y00998D03*
Y01023D03*
G54D21*
X02629Y00621D03*
X02657Y00649D03*
X02617Y00689D03*
X02603Y00676D03*
X02589Y00662D03*
G54D22*
X02643Y00635D03*
G54D23*
X02623Y00655D03*
G54D24*
X02155Y00744D03*
X02175D03*
X02155Y00673D03*
X02175D03*
G54D25*
X022Y00708D03*
X02129D03*
Y00688D03*
Y00728D03*
X022D03*
Y00688D03*
G54D26*
X02165Y00708D03*
G54D27*
X02407Y00724D03*
X02356Y00673D03*
X02381D03*
X02407D03*
X02356Y00724D03*
X02381D03*
G54D28*
X01594Y01358D03*
Y01338D03*
Y01318D03*
Y01299D03*
Y01279D03*
X01751D03*
Y01299D03*
Y01318D03*
Y01338D03*
Y01358D03*
G54D29*
X01633Y0124D03*
X01653D03*
X01673D03*
X01692D03*
X01712D03*
Y01397D03*
X01692D03*
X01673D03*
X01653D03*
X01633D03*
G54D30*
X01673Y01318D03*
M02*